<?xml version="1.0" encoding="UTF-8" standalone="no"?>
<svg
   xmlns:dc="http://purl.org/dc/elements/1.1/"
   xmlns:cc="http://creativecommons.org/ns#"
   xmlns:rdf="http://www.w3.org/1999/02/22-rdf-syntax-ns#"
   xmlns:svg="http://www.w3.org/2000/svg"
   xmlns="http://www.w3.org/2000/svg"
   width="661.45831mm"
   height="661.45831mm"
   viewBox="0 0 661.45831 661.45831"
   version="1.1"
   id="svg8">
  <defs
     id="defs2" />
  <metadata
     id="metadata5">
    <rdf:RDF>
      <cc:Work
         rdf:about="">
        <dc:format>image/svg+xml</dc:format>
        <dc:type
           rdf:resource="http://purl.org/dc/dcmitype/StillImage" />
        <dc:title></dc:title>
      </cc:Work>
    </rdf:RDF>
  </metadata>
  <g
     id="layer1"
     transform="translate(280.50912,318.84916)">
    <g
       id="g1061"
       transform="matrix(2.2730527,0,0,2.2730527,-280.50912,-318.84916)">
      <circle
         cx="145.5"
         cy="145.5"
         fill="#f1f3f4"
         r="145.5"
         id="circle936" />
      <path
         d="m 24.4,176.3 c 21,0 21,-13.6 42,-13.6 21,0 21,13.6 42,13.6 21,0 21,-13.6 42,-13.6 21,0 21,13.6 42,13.6 21,0 21,-13.6 42,-13.6 19.9,0 20.9,12.2 38.7,13.5 C 289.1,105.8 245,35.8 174.6,19.9 104.2,4 34.3,48 18.3,118.3 14,137.2 14,156.9 18.2,175.8 c 2.1,0.3 4.2,0.5 6.3,0.5 z"
         fill="#304ffe"
         id="path938"
         style="fill:#007cf0;fill-opacity:1" />
      <path
         d="m 132.9,33 h 34 v 31.5 h -34 z"
         fill="#ffd54f"
         id="path940" />
      <path
         d="m 132.9,33 h 12 v 31.5 h -12 z"
         fill="#fff176"
         id="path942" />
      <ellipse
         cx="144.60001"
         cy="40.799999"
         fill="#fff176"
         rx="8"
         ry="10"
         id="ellipse944" />
      <path
         d="m 132.1,29.4 c 0,-9.7 7.9,-17.6 17.6,-17.6 9.7,0 17.6,7.9 17.6,17.6"
         fill="#f4511e"
         id="path946" />
      <path
         d="m 149.8,11.8 c 9.6,0 17.4,7.8 17.4,17.5 v 0.1 h -17.4 z"
         fill="#e64a19"
         id="path948" />
      <path
         d="m 130.9,28.8 h 37.4 c 1.3,0 2.3,1 2.3,2.3 0,1.3 -1,2.3 -2.3,2.3 h -37.4 c -1.3,0 -2.3,-1 -2.3,-2.3 0,-1.3 1.1,-2.3 2.3,-2.3 z"
         fill="#f4511e"
         id="path950" />
      <path
         d="m 128,161.5 4.9,-97.3 h 34 l 4.4,92.5 z"
         fill="#c5cae9"
         id="path952" />
      <path
         d="m 167.4,71.7 1.3,25.8"
         fill="none"
         id="path954" />
      <path
         d="m 131.6,88.4 -1.3,27 38.4,-17.9 -1.3,-25.8 z"
         fill="#ff7043"
         id="path956" />
      <path
         d="m 170,122.8 1.3,25.8"
         fill="none"
         id="path958" />
      <path
         d="m 128.9,142 -1.4,27 43.8,-20.4 -1.3,-25.8 z"
         fill="#ff7043"
         id="path960" />
      <path
         d="m 127.7,49.9 h 43.9 v 14.4 h -43.9 z"
         fill="#e64a19"
         id="path962" />
      <path
         d="m 127.7,49.9 h 28.8 v 14.4 h -28.8 z"
         fill="#f4511e"
         id="path964" />
      <path
         d="m 149.3,49.9 c 0,5.2 -4.9,9.4 -10.8,9.4 -5.9,0 -10.8,-4.2 -10.8,-9.4"
         fill="#ffe082"
         opacity="0.5"
         id="path966" />
      <path
         d="m 205,45.9 c 1.2,0 2.3,0.3 3.3,0.7 a 13.9,13.9 0 0 1 26.8,-3.6 9.3,9.3 0 1 1 0,18.6 H 205 c -4.4,0 -7.9,-3.5 -7.9,-7.9 0,-4.4 3.5,-7.8 7.9,-7.8 z"
         fill="#2979ff"
         id="path968"
         style="fill:#3299fc;fill-opacity:1" />
      <path
         d="m 115.5,121.1 c 1,0 1.9,0.2 2.8,0.6 0.6,-6.5 6.3,-11.2 12.7,-10.7 4.5,0.4 8.4,3.4 10,7.6 4.4,-0.2 8.1,3.1 8.3,7.5 0.2,4.4 -3.1,8.1 -7.5,8.3 h -26.2 c -3.7,-0.1 -6.6,-3.3 -6.4,-6.9 0,-3.5 2.8,-6.3 6.3,-6.4 z"
         fill="#448aff"
         id="path970"
         style="fill:#3299fc;fill-opacity:1" />
      <circle
         cx="180.89999"
         cy="30.5"
         fill="#fdd835"
         r="1.4"
         id="circle972" />
      <g
         fill="#fff9c4"
         id="g984">
        <circle
           cx="193.39999"
           cy="110.1"
           r="2.5"
           id="circle974" />
        <circle
           cx="44.400002"
           cy="87.599998"
           r="2.5"
           id="circle976" />
        <circle
           cx="84.5"
           cy="130.39999"
           r="2.5"
           id="circle978" />
        <circle
           cx="182.8"
           cy="70.800003"
           r="2.5"
           id="circle980" />
        <circle
           cx="234.60001"
           cy="134.10001"
           r="2.5"
           id="circle982" />
      </g>
      <g
         fill="#fdd835"
         id="g1004">
        <circle
           cx="39.099998"
           cy="143.3"
           r="1.4"
           id="circle986" />
        <circle
           cx="52.200001"
           cy="114.7"
           r="1.4"
           id="circle988" />
        <circle
           cx="61"
           cy="107.3"
           r="1.4"
           id="circle990" />
        <circle
           cx="98.099998"
           cy="74.199997"
           r="1.4"
           id="circle992" />
        <circle
           cx="215.39999"
           cy="78.199997"
           r="1.4"
           id="circle994" />
        <circle
           cx="271.10001"
           cy="137.39999"
           r="1.4"
           id="circle996" />
        <circle
           cx="74.599998"
           cy="69.900002"
           r="1.4"
           id="circle998" />
        <circle
           cx="199.8"
           cy="138"
           r="1.4"
           id="circle1000" />
        <circle
           cx="242.7"
           cy="102.5"
           r="1.4"
           id="circle1002" />
      </g>
      <path
         d="m 133.5,32.5 c 0,0 -66.5,-9.3 -66.7,-9.3 -26,17 -38,35 -44,44 L 133.4,51 Z"
         fill="#ffe082"
         opacity="0.5"
         id="path1006" />
      <path
         d="M 168.2,64.2 H 151 v 88.1 l 20.7,9.2 z"
         fill="#304ffe"
         opacity="0.5"
         id="path1008" />
      <path
         d="m 108.7,176.6 c 21,0 21,-13.6 42,-13.6 21,0 21,13.6 42,13.6 17.8,0 20.5,-9.8 33.8,-12.8 -18.1,-9.9 -45.1,-16.2 -75.3,-16.2 -30.2,0 -57.6,6.4 -75.7,16.4 12.8,3.1 15.6,12.6 33.2,12.6 z"
         fill="#00c853"
         id="path1010" />
      <path
         d="m 108.8,176.4 c 21,0 21,-13.6 42,-13.6 h 0.4 l -0.2,-15 c -30,0 -57,6.2 -75,16 12.5,3.2 15.4,12.6 32.8,12.6 z"
         fill="#64dd17"
         id="path1012" />
    </g>
  </g>
</svg>
