<?xml version="1.0" encoding="UTF-8" standalone="no"?>
<svg
   xmlns:dc="http://purl.org/dc/elements/1.1/"
   xmlns:cc="http://creativecommons.org/ns#"
   xmlns:rdf="http://www.w3.org/1999/02/22-rdf-syntax-ns#"
   xmlns:svg="http://www.w3.org/2000/svg"
   xmlns="http://www.w3.org/2000/svg"
   xmlns:sodipodi="http://sodipodi.sourceforge.net/DTD/sodipodi-0.dtd"
   xmlns:inkscape="http://www.inkscape.org/namespaces/inkscape"
   width="900"
   height="600"
   version="1.1"
   id="svg32"
   sodipodi:docname="logo.svg"
   inkscape:version="1.0.1 (3bc2e813f5, 2020-09-07)">
  <metadata
     id="metadata38">
    <rdf:RDF>
      <cc:Work
         rdf:about="">
        <dc:format>image/svg+xml</dc:format>
        <dc:type
           rdf:resource="http://purl.org/dc/dcmitype/StillImage" />
        <dc:title></dc:title>
      </cc:Work>
    </rdf:RDF>
  </metadata>
  <defs
     id="defs36" />
  <sodipodi:namedview
     pagecolor="#ffffff"
     bordercolor="#666666"
     borderopacity="1"
     objecttolerance="10"
     gridtolerance="10"
     guidetolerance="10"
     inkscape:pageopacity="0"
     inkscape:pageshadow="2"
     inkscape:window-width="1243"
     inkscape:window-height="848"
     id="namedview34"
     showgrid="false"
     inkscape:pagecheckerboard="true"
     inkscape:zoom="0.79290091"
     inkscape:cx="503.22045"
     inkscape:cy="297.31484"
     inkscape:window-x="322"
     inkscape:window-y="88"
     inkscape:window-maximized="0"
     inkscape:current-layer="svg32" />
  <g
     id="g30">
    <title
       id="title25">Layer 1</title>
    <rect
       fill="none"
       id="rect2397"
       y="0"
       x="0"
       height="600"
       width="900" />
    <path
       fill="#0173bc"
       id="path2392"
       d="m194,473c0,0 48.090897,36 132.96875,36c130.022369,0 242.46875,-95.08493 242.46875,-211.8125c0,-105.12561 -93.954803,-198.25 -229.5,-198.25c-130.054794,0 -206.712891,86.956055 -225,135.0625c38,-51.5 112.902283,-113.4375 207.5,-113.4375c79.533447,0 141.53125,54.770004 141.53125,131.28125c0,112.5 -119.977783,225.15625 -241.59375,225.15625c-18.878723,0 -28.375,-4 -28.375,-4z" />
    <path
       fill="#0173bc"
       id="path2388"
       d="m451,509c172.041565,0 207,-80.493988 207,-125.65625c0,-72.672211 -73.515625,-127.859375 -73.515625,-127.859375c0,0 7.953125,20.949432 7.953125,54.953125c0,146.60321 -141.4375,198.5625 -141.4375,198.5625z" />
  </g>
</svg>
