<?xml version="1.0" encoding="UTF-8" standalone="no"?>
<svg
   xmlns:dc="http://purl.org/dc/elements/1.1/"
   xmlns:cc="http://creativecommons.org/ns#"
   xmlns:rdf="http://www.w3.org/1999/02/22-rdf-syntax-ns#"
   xmlns:svg="http://www.w3.org/2000/svg"
   xmlns="http://www.w3.org/2000/svg"
   width="110.64076mm"
   height="117.71408mm"
   viewBox="0 0 110.64076 117.71408"
   version="1.1"
   id="svg8">
  <defs
     id="defs2" />
  <metadata
     id="metadata5">
    <rdf:RDF>
      <cc:Work
         rdf:about="">
        <dc:format>image/svg+xml</dc:format>
        <dc:type
           rdf:resource="http://purl.org/dc/dcmitype/StillImage" />
        <dc:title></dc:title>
      </cc:Work>
    </rdf:RDF>
  </metadata>
  <g
     id="layer1"
     transform="translate(-49.749922,-89.64296)">
    <path
       id="path833"
       style="fill:none;stroke:none;stroke-width:2.73653"
       d="M 148.52184,142.7301 A 43.521835,43.521835 0 0 1 105,186.25194 43.521835,43.521835 0 0 1 61.478165,142.7301 43.521835,43.521835 0 0 1 105,99.208267 43.521835,43.521835 0 0 1 148.52184,142.7301 Z" />
    <g
       aria-label="●  LUE LISÄÄ  ●  LUE LISÄÄ  "
       transform="rotate(-11.568475,133.49644,145.41027)"
       id="text837"
       style="font-size:21.1667px;line-height:1.25;font-family:Arial;-inkscape-font-specification:Arial;letter-spacing:0px;word-spacing:0px;stroke-width:0.264583">
      <g
         id="g921"
         style="opacity:1">
        <path
           style="color:#000000;font-style:normal;font-variant:normal;font-weight:600;font-stretch:normal;font-size:21.1667px;line-height:1.25;font-family:'Open Sans';-inkscape-font-specification:'Open Sans Semi-Bold';font-variant-ligatures:normal;font-variant-position:normal;font-variant-caps:normal;font-variant-numeric:normal;font-variant-alternates:normal;font-variant-east-asian:normal;font-feature-settings:normal;font-variation-settings:normal;text-indent:0;text-align:start;text-decoration:none;text-decoration-line:none;text-decoration-style:solid;text-decoration-color:#000000;letter-spacing:0px;word-spacing:0px;text-transform:none;writing-mode:lr-tb;direction:ltr;text-orientation:mixed;dominant-baseline:auto;baseline-shift:baseline;text-anchor:start;white-space:normal;shape-padding:0;shape-margin:0;inline-size:0;clip-rule:nonzero;display:inline;overflow:visible;visibility:visible;isolation:auto;mix-blend-mode:normal;color-interpolation:sRGB;color-interpolation-filters:linearRGB;solid-color:#000000;solid-opacity:1;vector-effect:none;fill:#000000;fill-opacity:1;fill-rule:nonzero;stroke-width:0.264583;stroke-linecap:butt;stroke-linejoin:miter;stroke-miterlimit:4;stroke-dasharray:none;stroke-dashoffset:0;stroke-opacity:1.0;color-rendering:auto;image-rendering:auto;shape-rendering:auto;text-rendering:auto;enable-background:accumulate;stop-color:#000000;stop-opacity:1;stroke:none;"
           d="m 154.61249,145.45161 c 1.24749,0.1834 2.24629,0.77943 2.9964,1.7881 0.7501,1.00867 1.03345,2.13675 0.85005,3.38424 -0.18239,1.24068 -0.77792,2.23607 -1.78659,2.98618 -1.00867,0.7501 -2.13675,1.03345 -3.38425,0.85005 -1.24068,-0.18239 -2.23607,-0.77792 -2.98617,-1.78659 -0.7501,-1.00867 -1.03395,-2.13334 -0.85156,-3.37402 0.1834,-1.2475 0.77943,-2.2463 1.7881,-2.9964 1.00866,-0.7501 2.13333,-1.03395 3.37402,-0.85156 z"
           id="path923" />
        <path
           style="color:#000000;font-style:normal;font-variant:normal;font-weight:600;font-stretch:normal;font-size:21.1667px;line-height:1.25;font-family:'Open Sans';-inkscape-font-specification:'Open Sans Semi-Bold';font-variant-ligatures:normal;font-variant-position:normal;font-variant-caps:normal;font-variant-numeric:normal;font-variant-alternates:normal;font-variant-east-asian:normal;font-feature-settings:normal;font-variation-settings:normal;text-indent:0;text-align:start;text-decoration:none;text-decoration-line:none;text-decoration-style:solid;text-decoration-color:#000000;letter-spacing:0px;word-spacing:0px;text-transform:none;writing-mode:lr-tb;direction:ltr;text-orientation:mixed;dominant-baseline:auto;baseline-shift:baseline;text-anchor:start;white-space:normal;shape-padding:0;shape-margin:0;inline-size:0;clip-rule:nonzero;display:inline;overflow:visible;visibility:visible;isolation:auto;mix-blend-mode:normal;color-interpolation:sRGB;color-interpolation-filters:linearRGB;solid-color:#000000;solid-opacity:1;vector-effect:none;fill-opacity:1;fill-rule:nonzero;stroke-width:0.264583;stroke-linecap:butt;stroke-linejoin:miter;stroke-miterlimit:4;stroke-dasharray:none;stroke-dashoffset:0;stroke-opacity:1.0;color-rendering:auto;image-rendering:auto;shape-rendering:auto;text-rendering:auto;enable-background:accumulate;stop-color:#000000;stop-opacity:1;stroke:none;"
           d="M 154.63086 145.32031 C 153.35925 145.13337 152.19378 145.4286 151.16016 146.19727 C 150.12639 146.96603 149.50823 148.003 149.32031 149.28125 C 149.13337 150.55285 149.42665 151.71832 150.19531 152.75195 C 150.96398 153.78558 151.99793 154.40486 153.26953 154.5918 C 154.54779 154.77972 155.71819 154.48556 156.75195 153.7168 C 157.78558 152.94813 158.4029 151.91418 158.58984 150.64258 C 158.77777 149.36433 158.48361 148.19392 157.71484 147.16016 C 156.94607 146.12639 155.90911 145.50823 154.63086 145.32031 z M 154.59375 145.58203 C 155.81049 145.76091 156.77051 146.33479 157.50195 147.31836 C 158.23339 148.30193 158.507 149.38873 158.32812 150.60547 C 158.15028 151.81523 157.57746 152.77236 156.59375 153.50391 C 155.61018 154.23534 154.52339 154.50896 153.30664 154.33008 C 152.09688 154.15223 151.13974 153.57745 150.4082 152.59375 C 149.67667 151.61004 149.40418 150.52812 149.58203 149.31836 C 149.76091 148.10161 150.33479 147.14159 151.31836 146.41016 C 152.30206 145.67862 153.38399 145.40418 154.59375 145.58203 z "
           id="path925" />
      </g>
      <g
         id="g927"
         style="opacity:1">
        <path
           style="color:#000000;font-style:normal;font-variant:normal;font-weight:600;font-stretch:normal;font-size:21.1667px;line-height:1.25;font-family:'Open Sans';-inkscape-font-specification:'Open Sans Semi-Bold';font-variant-ligatures:normal;font-variant-position:normal;font-variant-caps:normal;font-variant-numeric:normal;font-variant-alternates:normal;font-variant-east-asian:normal;font-feature-settings:normal;font-variation-settings:normal;text-indent:0;text-align:start;text-decoration:none;text-decoration-line:none;text-decoration-style:solid;text-decoration-color:#000000;letter-spacing:0px;word-spacing:0px;text-transform:none;writing-mode:lr-tb;direction:ltr;text-orientation:mixed;dominant-baseline:auto;baseline-shift:baseline;text-anchor:start;white-space:normal;shape-padding:0;shape-margin:0;inline-size:0;clip-rule:nonzero;display:inline;overflow:visible;visibility:visible;isolation:auto;mix-blend-mode:normal;color-interpolation:sRGB;color-interpolation-filters:linearRGB;solid-color:#000000;solid-opacity:1;vector-effect:none;fill:#000000;fill-opacity:1;fill-rule:nonzero;stroke-width:0.264583;stroke-linecap:butt;stroke-linejoin:miter;stroke-miterlimit:4;stroke-dasharray:none;stroke-dashoffset:0;stroke-opacity:1.0;color-rendering:auto;image-rendering:auto;shape-rendering:auto;text-rendering:auto;enable-background:accumulate;stop-color:#000000;stop-opacity:1;stroke:none;"
           d="m 141.24259,167.12131 11.76195,9.48552 -1.55064,1.92278 -10.11271,-8.15547 -4.01609,4.97992 -1.64925,-1.33005 z"
           id="path929" />
        <path
           style="color:#000000;font-style:normal;font-variant:normal;font-weight:600;font-stretch:normal;font-size:21.1667px;line-height:1.25;font-family:'Open Sans';-inkscape-font-specification:'Open Sans Semi-Bold';font-variant-ligatures:normal;font-variant-position:normal;font-variant-caps:normal;font-variant-numeric:normal;font-variant-alternates:normal;font-variant-east-asian:normal;font-feature-settings:normal;font-variation-settings:normal;text-indent:0;text-align:start;text-decoration:none;text-decoration-line:none;text-decoration-style:solid;text-decoration-color:#000000;letter-spacing:0px;word-spacing:0px;text-transform:none;writing-mode:lr-tb;direction:ltr;text-orientation:mixed;dominant-baseline:auto;baseline-shift:baseline;text-anchor:start;white-space:normal;shape-padding:0;shape-margin:0;inline-size:0;clip-rule:nonzero;display:inline;overflow:visible;visibility:visible;isolation:auto;mix-blend-mode:normal;color-interpolation:sRGB;color-interpolation-filters:linearRGB;solid-color:#000000;solid-opacity:1;vector-effect:none;fill-opacity:1;fill-rule:nonzero;stroke-width:0.264583;stroke-linecap:butt;stroke-linejoin:miter;stroke-miterlimit:4;stroke-dasharray:none;stroke-dashoffset:0;stroke-opacity:1.0;color-rendering:auto;image-rendering:auto;shape-rendering:auto;text-rendering:auto;enable-background:accumulate;stop-color:#000000;stop-opacity:1;stroke:none;"
           d="M 141.22266 166.93555 L 141.13867 167.03906 L 135.49023 174.04297 L 137.3457 175.54102 L 141.36133 170.55859 L 151.47461 178.71484 L 153.19141 176.58594 L 141.22266 166.93555 z M 141.26367 167.30664 L 152.81836 176.62695 L 151.43555 178.34375 L 141.32031 170.1875 L 137.30469 175.16797 L 135.86133 174.00391 L 141.26367 167.30664 z "
           id="path931" />
      </g>
      <g
         id="g933"
         style="opacity:1">
        <path
           style="color:#000000;font-style:normal;font-variant:normal;font-weight:600;font-stretch:normal;font-size:21.1667px;line-height:1.25;font-family:'Open Sans';-inkscape-font-specification:'Open Sans Semi-Bold';font-variant-ligatures:normal;font-variant-position:normal;font-variant-caps:normal;font-variant-numeric:normal;font-variant-alternates:normal;font-variant-east-asian:normal;font-feature-settings:normal;font-variation-settings:normal;text-indent:0;text-align:start;text-decoration:none;text-decoration-line:none;text-decoration-style:solid;text-decoration-color:#000000;letter-spacing:0px;word-spacing:0px;text-transform:none;writing-mode:lr-tb;direction:ltr;text-orientation:mixed;dominant-baseline:auto;baseline-shift:baseline;text-anchor:start;white-space:normal;shape-padding:0;shape-margin:0;inline-size:0;clip-rule:nonzero;display:inline;overflow:visible;visibility:visible;isolation:auto;mix-blend-mode:normal;color-interpolation:sRGB;color-interpolation-filters:linearRGB;solid-color:#000000;solid-opacity:1;vector-effect:none;fill:#000000;fill-opacity:1;fill-rule:nonzero;stroke-width:0.264583;stroke-linecap:butt;stroke-linejoin:miter;stroke-miterlimit:4;stroke-dasharray:none;stroke-dashoffset:0;stroke-opacity:1.0;color-rendering:auto;image-rendering:auto;shape-rendering:auto;text-rendering:auto;enable-background:accumulate;stop-color:#000000;stop-opacity:1;stroke:none;"
           d="m 132.16154,195.04384 -5.3673,-8.17225 c -0.61276,-0.93298 -0.9483,-1.88317 -1.00662,-2.85056 -0.0603,-0.95785 0.16487,-1.87646 0.67541,-2.75585 0.50859,-0.86985 1.28984,-1.65087 2.34377,-2.34306 1.56649,-1.02883 3.05689,-1.41416 4.4712,-1.15599 1.41431,0.25817 2.59805,1.11291 3.55123,2.56422 l 5.34461,8.13769 -2.0733,1.36168 -5.24816,-7.99083 c -0.68462,-1.04241 -1.43146,-1.65239 -2.24052,-1.82995 -0.80907,-0.17756 -1.71465,0.0627 -2.71674,0.72088 -1.94659,1.27847 -2.2485,2.93995 -0.90573,4.98445 l 5.23681,7.97356 z"
           id="path935" />
        <path
           style="color:#000000;font-style:normal;font-variant:normal;font-weight:600;font-stretch:normal;font-size:21.1667px;line-height:1.25;font-family:'Open Sans';-inkscape-font-specification:'Open Sans Semi-Bold';font-variant-ligatures:normal;font-variant-position:normal;font-variant-caps:normal;font-variant-numeric:normal;font-variant-alternates:normal;font-variant-east-asian:normal;font-feature-settings:normal;font-variation-settings:normal;text-indent:0;text-align:start;text-decoration:none;text-decoration-line:none;text-decoration-style:solid;text-decoration-color:#000000;letter-spacing:0px;word-spacing:0px;text-transform:none;writing-mode:lr-tb;direction:ltr;text-orientation:mixed;dominant-baseline:auto;baseline-shift:baseline;text-anchor:start;white-space:normal;shape-padding:0;shape-margin:0;inline-size:0;clip-rule:nonzero;display:inline;overflow:visible;visibility:visible;isolation:auto;mix-blend-mode:normal;color-interpolation:sRGB;color-interpolation-filters:linearRGB;solid-color:#000000;solid-opacity:1;vector-effect:none;fill-opacity:1;fill-rule:nonzero;stroke-width:0.264583;stroke-linecap:butt;stroke-linejoin:miter;stroke-miterlimit:4;stroke-dasharray:none;stroke-dashoffset:0;stroke-opacity:1.0;color-rendering:auto;image-rendering:auto;shape-rendering:auto;text-rendering:auto;enable-background:accumulate;stop-color:#000000;stop-opacity:1;stroke:none;"
           d="M 133.30078 177.63672 C 131.84745 177.37143 130.32038 177.77086 128.73438 178.8125 C 127.66736 179.51329 126.87058 180.3082 126.34961 181.19922 L 126.34766 181.19922 C 125.82551 182.0986 125.59435 183.04555 125.65625 184.0293 C 125.71609 185.02192 126.06037 185.99445 126.68359 186.94336 L 132.12305 195.22656 L 132.23438 195.1543 L 134.41016 193.72656 L 129.09961 185.64258 C 128.43975 184.63787 128.19676 183.74639 128.33984 182.95898 C 128.48292 182.17158 129.01286 181.46636 129.9668 180.83984 C 130.95067 180.19366 131.81952 179.9709 132.58398 180.13867 C 133.34773 180.30629 134.0688 180.88681 134.74219 181.91211 L 140.0625 190.01367 L 142.35742 188.50586 L 136.93945 180.25781 C 135.97177 178.78442 134.753 177.90181 133.30078 177.63672 z M 133.25391 177.89648 C 134.6303 178.14774 135.78008 178.97312 136.71875 180.40234 L 141.99023 188.42969 L 140.13867 189.64648 L 134.96289 181.76562 C 134.26704 180.70611 133.495 180.06641 132.64062 179.87891 C 131.78696 179.69156 130.84258 179.94903 129.82227 180.61914 C 128.82961 181.27109 128.23695 182.03608 128.07812 182.91016 C 127.9193 183.78423 128.196 184.74731 128.87891 185.78711 L 134.04297 193.65039 L 132.19922 194.86133 L 126.9043 186.79883 C 126.302 185.88177 125.97672 184.95583 125.91992 184.01367 C 125.86128 183.08172 126.07919 182.19143 126.57812 181.33203 C 127.07433 180.48336 127.83807 179.7168 128.87891 179.0332 C 130.42589 178.01719 131.87863 177.64544 133.25391 177.89648 z "
           id="path937" />
      </g>
      <g
         id="g939"
         style="opacity:1">
        <path
           style="color:#000000;font-style:normal;font-variant:normal;font-weight:600;font-stretch:normal;font-size:21.1667px;line-height:1.25;font-family:'Open Sans';-inkscape-font-specification:'Open Sans Semi-Bold';font-variant-ligatures:normal;font-variant-position:normal;font-variant-caps:normal;font-variant-numeric:normal;font-variant-alternates:normal;font-variant-east-asian:normal;font-feature-settings:normal;font-variation-settings:normal;text-indent:0;text-align:start;text-decoration:none;text-decoration-line:none;text-decoration-style:solid;text-decoration-color:#000000;letter-spacing:0px;word-spacing:0px;text-transform:none;writing-mode:lr-tb;direction:ltr;text-orientation:mixed;dominant-baseline:auto;baseline-shift:baseline;text-anchor:start;white-space:normal;shape-padding:0;shape-margin:0;inline-size:0;clip-rule:nonzero;display:inline;overflow:visible;visibility:visible;isolation:auto;mix-blend-mode:normal;color-interpolation:sRGB;color-interpolation-filters:linearRGB;solid-color:#000000;solid-opacity:1;vector-effect:none;fill:#000000;fill-opacity:1;fill-rule:nonzero;stroke-width:0.264583;stroke-linecap:butt;stroke-linejoin:miter;stroke-miterlimit:4;stroke-dasharray:none;stroke-dashoffset:0;stroke-opacity:1.0;color-rendering:auto;image-rendering:auto;shape-rendering:auto;text-rendering:auto;enable-background:accumulate;stop-color:#000000;stop-opacity:1;stroke:none;"
           d="m 111.89615,185.95976 8.25177,-2.22812 3.93895,14.58778 -8.25177,2.22811 -0.54424,-2.01554 5.86705,-1.5842 -1.0723,-3.97123 -5.49786,1.48451 -0.53884,-1.99559 5.49785,-1.48451 -1.23664,-4.57989 -5.86704,1.5842 z"
           id="path941" />
        <path
           style="color:#000000;font-style:normal;font-variant:normal;font-weight:600;font-stretch:normal;font-size:21.1667px;line-height:1.25;font-family:'Open Sans';-inkscape-font-specification:'Open Sans Semi-Bold';font-variant-ligatures:normal;font-variant-position:normal;font-variant-caps:normal;font-variant-numeric:normal;font-variant-alternates:normal;font-variant-east-asian:normal;font-feature-settings:normal;font-variation-settings:normal;text-indent:0;text-align:start;text-decoration:none;text-decoration-line:none;text-decoration-style:solid;text-decoration-color:#000000;letter-spacing:0px;word-spacing:0px;text-transform:none;writing-mode:lr-tb;direction:ltr;text-orientation:mixed;dominant-baseline:auto;baseline-shift:baseline;text-anchor:start;white-space:normal;shape-padding:0;shape-margin:0;inline-size:0;clip-rule:nonzero;display:inline;overflow:visible;visibility:visible;isolation:auto;mix-blend-mode:normal;color-interpolation:sRGB;color-interpolation-filters:linearRGB;solid-color:#000000;solid-opacity:1;vector-effect:none;fill-opacity:1;fill-rule:nonzero;stroke-width:0.264583;stroke-linecap:butt;stroke-linejoin:miter;stroke-miterlimit:4;stroke-dasharray:none;stroke-dashoffset:0;stroke-opacity:1.0;color-rendering:auto;image-rendering:auto;shape-rendering:auto;text-rendering:auto;enable-background:accumulate;stop-color:#000000;stop-opacity:1;stroke:none;"
           d="M 120.24023 183.57031 L 111.73438 185.86719 L 111.76758 185.99414 L 112.34961 188.14844 L 118.2168 186.56445 L 119.38477 190.88867 L 113.88672 192.37305 L 114.49414 194.62305 L 119.99219 193.13867 L 120.99414 196.85547 L 115.12891 198.43945 L 115.74219 200.70898 L 124.25 198.41211 L 120.24023 183.57031 z M 120.05469 183.89453 L 123.92383 198.22656 L 115.92773 200.38477 L 115.45312 198.62695 L 121.32031 197.04102 L 120.17969 192.81445 L 114.68164 194.29883 L 114.21094 192.55859 L 119.70898 191.07422 L 118.4043 186.23828 L 112.53711 187.82227 L 112.05859 186.05273 L 120.05469 183.89453 z "
           id="path943" />
      </g>
      <g
         id="g945"
         style="opacity:1">
        <path
           style="color:#000000;font-style:normal;font-variant:normal;font-weight:600;font-stretch:normal;font-size:21.1667px;line-height:1.25;font-family:'Open Sans';-inkscape-font-specification:'Open Sans Semi-Bold';font-variant-ligatures:normal;font-variant-position:normal;font-variant-caps:normal;font-variant-numeric:normal;font-variant-alternates:normal;font-variant-east-asian:normal;font-feature-settings:normal;font-variation-settings:normal;text-indent:0;text-align:start;text-decoration:none;text-decoration-line:none;text-decoration-style:solid;text-decoration-color:#000000;letter-spacing:0px;word-spacing:0px;text-transform:none;writing-mode:lr-tb;direction:ltr;text-orientation:mixed;dominant-baseline:auto;baseline-shift:baseline;text-anchor:start;white-space:normal;shape-padding:0;shape-margin:0;inline-size:0;clip-rule:nonzero;display:inline;overflow:visible;visibility:visible;isolation:auto;mix-blend-mode:normal;color-interpolation:sRGB;color-interpolation-filters:linearRGB;solid-color:#000000;solid-opacity:1;vector-effect:none;fill:#000000;fill-opacity:1;fill-rule:nonzero;stroke-width:0.264583;stroke-linecap:butt;stroke-linejoin:miter;stroke-miterlimit:4;stroke-dasharray:none;stroke-dashoffset:0;stroke-opacity:1.0;color-rendering:auto;image-rendering:auto;shape-rendering:auto;text-rendering:auto;enable-background:accumulate;stop-color:#000000;stop-opacity:1;stroke:none;"
           d="m 103.08774,186.37187 -1.93775,14.98544 -2.449746,-0.31677 1.666046,-12.88421 -6.344726,-0.82043 0.271711,-2.10124 z"
           id="path947" />
        <path
           style="color:#000000;font-style:normal;font-variant:normal;font-weight:600;font-stretch:normal;font-size:21.1667px;line-height:1.25;font-family:'Open Sans';-inkscape-font-specification:'Open Sans Semi-Bold';font-variant-ligatures:normal;font-variant-position:normal;font-variant-caps:normal;font-variant-numeric:normal;font-variant-alternates:normal;font-variant-east-asian:normal;font-feature-settings:normal;font-variation-settings:normal;text-indent:0;text-align:start;text-decoration:none;text-decoration-line:none;text-decoration-style:solid;text-decoration-color:#000000;letter-spacing:0px;word-spacing:0px;text-transform:none;writing-mode:lr-tb;direction:ltr;text-orientation:mixed;dominant-baseline:auto;baseline-shift:baseline;text-anchor:start;white-space:normal;shape-padding:0;shape-margin:0;inline-size:0;clip-rule:nonzero;display:inline;overflow:visible;visibility:visible;isolation:auto;mix-blend-mode:normal;color-interpolation:sRGB;color-interpolation-filters:linearRGB;solid-color:#000000;solid-opacity:1;vector-effect:none;fill-opacity:1;fill-rule:nonzero;stroke-width:0.264583;stroke-linecap:butt;stroke-linejoin:miter;stroke-miterlimit:4;stroke-dasharray:none;stroke-dashoffset:0;stroke-opacity:1.0;color-rendering:auto;image-rendering:auto;shape-rendering:auto;text-rendering:auto;enable-background:accumulate;stop-color:#000000;stop-opacity:1;stroke:none;"
           d="M 94.179688 185.08594 L 93.873047 187.44922 L 100.2168 188.26953 L 98.552734 201.1543 L 101.26367 201.50586 L 103.23633 186.25781 L 103.10547 186.24023 L 94.179688 185.08594 z M 94.408203 185.38281 L 102.93945 186.48633 L 101.03516 201.20898 L 98.849609 200.92773 L 100.51367 188.04297 L 94.169922 187.22266 L 94.408203 185.38281 z "
           id="path949" />
      </g>
      <g
         id="g951"
         style="opacity:1">
        <path
           style="color:#000000;font-style:normal;font-variant:normal;font-weight:600;font-stretch:normal;font-size:21.1667px;line-height:1.25;font-family:'Open Sans';-inkscape-font-specification:'Open Sans Semi-Bold';font-variant-ligatures:normal;font-variant-position:normal;font-variant-caps:normal;font-variant-numeric:normal;font-variant-alternates:normal;font-variant-east-asian:normal;font-feature-settings:normal;font-variation-settings:normal;text-indent:0;text-align:start;text-decoration:none;text-decoration-line:none;text-decoration-style:solid;text-decoration-color:#000000;letter-spacing:0px;word-spacing:0px;text-transform:none;writing-mode:lr-tb;direction:ltr;text-orientation:mixed;dominant-baseline:auto;baseline-shift:baseline;text-anchor:start;white-space:normal;shape-padding:0;shape-margin:0;inline-size:0;clip-rule:nonzero;display:inline;overflow:visible;visibility:visible;isolation:auto;mix-blend-mode:normal;color-interpolation:sRGB;color-interpolation-filters:linearRGB;solid-color:#000000;solid-opacity:1;vector-effect:none;fill:#000000;fill-opacity:1;fill-rule:nonzero;stroke-width:0.264583;stroke-linecap:butt;stroke-linejoin:miter;stroke-miterlimit:4;stroke-dasharray:none;stroke-dashoffset:0;stroke-opacity:1.0;color-rendering:auto;image-rendering:auto;shape-rendering:auto;text-rendering:auto;enable-background:accumulate;stop-color:#000000;stop-opacity:1;stroke:none;"
           d="m 91.832847,184.2431 -4.974402,14.26794 -2.332446,-0.81319 4.974402,-14.26793 z"
           id="path953" />
        <path
           style="color:#000000;font-style:normal;font-variant:normal;font-weight:600;font-stretch:normal;font-size:21.1667px;line-height:1.25;font-family:'Open Sans';-inkscape-font-specification:'Open Sans Semi-Bold';font-variant-ligatures:normal;font-variant-position:normal;font-variant-caps:normal;font-variant-numeric:normal;font-variant-alternates:normal;font-variant-east-asian:normal;font-feature-settings:normal;font-variation-settings:normal;text-indent:0;text-align:start;text-decoration:none;text-decoration-line:none;text-decoration-style:solid;text-decoration-color:#000000;letter-spacing:0px;word-spacing:0px;text-transform:none;writing-mode:lr-tb;direction:ltr;text-orientation:mixed;dominant-baseline:auto;baseline-shift:baseline;text-anchor:start;white-space:normal;shape-padding:0;shape-margin:0;inline-size:0;clip-rule:nonzero;display:inline;overflow:visible;visibility:visible;isolation:auto;mix-blend-mode:normal;color-interpolation:sRGB;color-interpolation-filters:linearRGB;solid-color:#000000;solid-opacity:1;vector-effect:none;fill-opacity:1;fill-rule:nonzero;stroke-width:0.264583;stroke-linecap:butt;stroke-linejoin:miter;stroke-miterlimit:4;stroke-dasharray:none;stroke-dashoffset:0;stroke-opacity:1.0;color-rendering:auto;image-rendering:auto;shape-rendering:auto;text-rendering:auto;enable-background:accumulate;stop-color:#000000;stop-opacity:1;stroke:none;"
           d="M 89.419922 183.26172 L 84.357422 197.7793 L 86.939453 198.67969 L 92.001953 184.16211 L 91.876953 184.11914 L 89.419922 183.26172 z M 89.582031 183.59766 L 91.664062 184.32422 L 86.777344 198.34375 L 84.695312 197.61719 L 89.582031 183.59766 z "
           id="path955" />
      </g>
      <g
         id="g957"
         style="opacity:1">
        <path
           style="color:#000000;font-style:normal;font-variant:normal;font-weight:600;font-stretch:normal;font-size:21.1667px;line-height:1.25;font-family:'Open Sans';-inkscape-font-specification:'Open Sans Semi-Bold';font-variant-ligatures:normal;font-variant-position:normal;font-variant-caps:normal;font-variant-numeric:normal;font-variant-alternates:normal;font-variant-east-asian:normal;font-feature-settings:normal;font-variation-settings:normal;text-indent:0;text-align:start;text-decoration:none;text-decoration-line:none;text-decoration-style:solid;text-decoration-color:#000000;letter-spacing:0px;word-spacing:0px;text-transform:none;writing-mode:lr-tb;direction:ltr;text-orientation:mixed;dominant-baseline:auto;baseline-shift:baseline;text-anchor:start;white-space:normal;shape-padding:0;shape-margin:0;inline-size:0;clip-rule:nonzero;display:inline;overflow:visible;visibility:visible;isolation:auto;mix-blend-mode:normal;color-interpolation:sRGB;color-interpolation-filters:linearRGB;solid-color:#000000;solid-opacity:1;vector-effect:none;fill:#000000;fill-opacity:1;fill-rule:nonzero;stroke-width:0.264583;stroke-linecap:butt;stroke-linejoin:miter;stroke-miterlimit:4;stroke-dasharray:none;stroke-dashoffset:0;stroke-opacity:1.0;color-rendering:auto;image-rendering:auto;shape-rendering:auto;text-rendering:auto;enable-background:accumulate;stop-color:#000000;stop-opacity:1;stroke:none;"
           d="m 76.188211,180.96855 c 0.695609,-1.1495 1.656985,-1.79993 2.884128,-1.95128 1.227142,-0.15135 2.57168,0.2153 4.033614,1.09997 1.461933,0.88467 2.521258,1.83578 3.177975,2.85331 l -1.20929,1.99837 c -0.42183,-0.63379 -0.914701,-1.23003 -1.478614,-1.78872 -0.569808,-0.56225 -1.140614,-1.01639 -1.712419,-1.36242 -0.837075,-0.50655 -1.549406,-0.72016 -2.136994,-0.64084 -0.593483,0.0757 -1.052534,0.38185 -1.377152,0.91829 -0.292513,0.48338 -0.357693,1.00366 -0.195542,1.56083 0.162151,0.55718 0.67591,1.41169 1.541276,2.56354 0.890033,1.19093 1.391245,2.23918 1.503634,3.14477 0.112389,0.90558 -0.09182,1.7887 -0.612639,2.64935 -0.652803,1.07877 -1.549651,1.69576 -2.690546,1.85098 -1.140895,0.15523 -2.356834,-0.15777 -3.647815,-0.93899 -1.237928,-0.74912 -2.305868,-1.76584 -3.203821,-3.05015 l 1.715432,-1.31759 c 0.856991,1.17899 1.736446,2.04137 2.638365,2.58716 0.683808,0.4138 1.293523,0.5774 1.829145,0.49079 0.532055,-0.0807 0.946123,-0.36571 1.242202,-0.85498 0.203332,-0.33601 0.307388,-0.66766 0.312167,-0.99497 0.0012,-0.32141 -0.09609,-0.68632 -0.291881,-1.09473 -0.195799,-0.40841 -0.60995,-1.04158 -1.242453,-1.89949 -0.710074,-0.96929 -1.18272,-1.75865 -1.417938,-2.36809 -0.235217,-0.60945 -0.325783,-1.19176 -0.271697,-1.74694 0.05409,-0.55518 0.257708,-1.12457 0.610863,-1.70817 z"
           id="path959" />
        <path
           style="color:#000000;font-style:normal;font-variant:normal;font-weight:600;font-stretch:normal;font-size:21.1667px;line-height:1.25;font-family:'Open Sans';-inkscape-font-specification:'Open Sans Semi-Bold';font-variant-ligatures:normal;font-variant-position:normal;font-variant-caps:normal;font-variant-numeric:normal;font-variant-alternates:normal;font-variant-east-asian:normal;font-feature-settings:normal;font-variation-settings:normal;text-indent:0;text-align:start;text-decoration:none;text-decoration-line:none;text-decoration-style:solid;text-decoration-color:#000000;letter-spacing:0px;word-spacing:0px;text-transform:none;writing-mode:lr-tb;direction:ltr;text-orientation:mixed;dominant-baseline:auto;baseline-shift:baseline;text-anchor:start;white-space:normal;shape-padding:0;shape-margin:0;inline-size:0;clip-rule:nonzero;display:inline;overflow:visible;visibility:visible;isolation:auto;mix-blend-mode:normal;color-interpolation:sRGB;color-interpolation-filters:linearRGB;solid-color:#000000;solid-opacity:1;vector-effect:none;fill-opacity:1;fill-rule:nonzero;stroke-width:0.264583;stroke-linecap:butt;stroke-linejoin:miter;stroke-miterlimit:4;stroke-dasharray:none;stroke-dashoffset:0;stroke-opacity:1.0;color-rendering:auto;image-rendering:auto;shape-rendering:auto;text-rendering:auto;enable-background:accumulate;stop-color:#000000;stop-opacity:1;stroke:none;"
           d="M 79.056641 178.88672 C 77.79213 179.04268 76.786336 179.72361 76.074219 180.90039 C 75.712992 181.49733 75.50166 182.08568 75.445312 182.66406 C 75.388979 183.24231 75.48526 183.84549 75.726562 184.4707 C 75.969399 185.09988 76.446386 185.89481 77.160156 186.86914 L 77.160156 186.87109 C 77.790578 187.72618 78.203221 188.35715 78.390625 188.74805 C 78.580519 189.14417 78.671021 189.49082 78.669922 189.78516 C 78.665196 190.08519 78.568349 190.39338 78.375 190.71289 C 78.095424 191.17489 77.723025 191.43055 77.226562 191.50586 C 76.732472 191.58575 76.153549 191.43501 75.486328 191.03125 C 74.604629 190.4977 73.736441 189.64946 72.886719 188.48047 L 72.806641 188.37109 L 70.882812 189.84766 L 70.955078 189.95117 C 71.862468 191.24898 72.944763 192.27994 74.199219 193.03906 C 75.508289 193.83123 76.756718 194.15622 77.933594 193.99609 C 79.111713 193.83581 80.049729 193.1876 80.71875 192.08203 C 81.252388 191.20019 81.465706 190.28311 81.349609 189.34766 C 81.232836 188.40675 80.718373 187.34229 79.820312 186.14062 C 78.958716 184.9938 78.452124 184.13918 78.300781 183.61914 C 78.147462 183.09232 78.207171 182.61892 78.482422 182.16406 C 78.78998 181.65581 79.206088 181.37976 79.763672 181.30859 C 80.306007 181.23538 80.991725 181.43378 81.814453 181.93164 C 82.375359 182.27107 82.938636 182.71774 83.501953 183.27344 C 84.059814 183.82614 84.548145 184.41689 84.964844 185.04297 L 85.080078 185.21484 L 86.439453 182.96875 L 86.394531 182.89844 C 85.723033 181.858 84.647475 180.89567 83.173828 180.00391 C 81.695008 179.10902 80.321196 178.73075 79.056641 178.88672 z M 79.087891 179.14844 C 80.27762 179.0017 81.592061 179.35602 83.037109 180.23047 C 84.461134 181.0922 85.47066 182.01747 86.115234 182.99219 L 85.056641 184.74219 C 84.655 184.1616 84.210627 183.60229 83.689453 183.08594 C 83.113555 182.51767 82.533477 182.05746 81.951172 181.70508 C 81.100438 181.19027 80.36297 180.96007 79.730469 181.04492 L 79.728516 181.04492 C 79.099943 181.12565 78.597224 181.46323 78.255859 182.02734 C 77.946085 182.53925 77.875892 183.10584 78.046875 183.69336 C 78.219835 184.28768 78.740239 185.14196 79.609375 186.29883 C 80.491381 187.47901 80.979885 188.5106 81.087891 189.38086 C 81.196573 190.25657 81.00018 191.10585 80.492188 191.94531 C 79.855603 192.99728 79.002107 193.58422 77.898438 193.73438 C 76.793523 193.88471 75.60883 193.58277 74.335938 192.8125 C 73.150833 192.09535 72.13728 191.10627 71.265625 189.88867 L 72.769531 188.73242 C 73.604105 189.85598 74.461121 190.72015 75.349609 191.25781 C 76.050004 191.68165 76.690425 191.85895 77.267578 191.76562 L 77.267578 191.76758 C 77.835226 191.68147 78.288979 191.36616 78.601562 190.84961 C 78.814507 190.49772 78.928424 190.14114 78.933594 189.78711 C 78.934895 189.43863 78.830587 189.05547 78.628906 188.63477 C 78.424711 188.20884 78.00763 187.57363 77.373047 186.71289 C 76.666669 185.74865 76.200256 184.96665 75.972656 184.37695 C 75.743524 183.78327 75.657146 183.22156 75.708984 182.68945 C 75.760811 182.15748 75.955697 181.60737 76.300781 181.03711 C 76.979883 179.91489 77.898116 179.29518 79.087891 179.14844 z "
           id="path961" />
      </g>
      <g
         id="g963"
         style="opacity:1">
        <path
           style="color:#000000;font-style:normal;font-variant:normal;font-weight:600;font-stretch:normal;font-size:21.1667px;line-height:1.25;font-family:'Open Sans';-inkscape-font-specification:'Open Sans Semi-Bold';font-variant-ligatures:normal;font-variant-position:normal;font-variant-caps:normal;font-variant-numeric:normal;font-variant-alternates:normal;font-variant-east-asian:normal;font-feature-settings:normal;font-variation-settings:normal;text-indent:0;text-align:start;text-decoration:none;text-decoration-line:none;text-decoration-style:solid;text-decoration-color:#000000;letter-spacing:0px;word-spacing:0px;text-transform:none;writing-mode:lr-tb;direction:ltr;text-orientation:mixed;dominant-baseline:auto;baseline-shift:baseline;text-anchor:start;white-space:normal;shape-padding:0;shape-margin:0;inline-size:0;clip-rule:nonzero;display:inline;overflow:visible;visibility:visible;isolation:auto;mix-blend-mode:normal;color-interpolation:sRGB;color-interpolation-filters:linearRGB;solid-color:#000000;solid-opacity:1;vector-effect:none;fill:#000000;fill-opacity:1;fill-rule:nonzero;stroke-width:0.264583;stroke-linecap:butt;stroke-linejoin:miter;stroke-miterlimit:4;stroke-dasharray:none;stroke-dashoffset:0;stroke-opacity:1.0;color-rendering:auto;image-rendering:auto;shape-rendering:auto;text-rendering:auto;enable-background:accumulate;stop-color:#000000;stop-opacity:1;stroke:none;"
           d="m 69.728796,168.6017 -2.107856,3.92956 3.866722,4.29269 4.106931,-1.71026 1.743137,1.93517 -15.056832,5.95393 -1.798475,-1.9966 7.4894,-14.35502 z m -3.253994,5.8383 -2.108678,3.8051 c -0.135607,0.26125 -0.361294,0.65929 -0.67706,1.1941 -0.320378,0.52969 -0.559899,0.91237 -0.718564,1.14802 0.754207,-0.42899 1.624932,-0.84701 2.612174,-1.25407 l 3.838861,-1.6218 z m -4.986851,11.8365 c -0.317408,0.28591 -0.621315,0.40664 -0.91172,0.36221 -0.300135,-0.0449 -0.560879,-0.19027 -0.78223,-0.43601 -0.244408,-0.27133 -0.358738,-0.55783 -0.342989,-0.85949 0.01114,-0.30678 0.157494,-0.58699 0.439063,-0.84062 0.271333,-0.24441 0.562695,-0.35848 0.874086,-0.34222 0.311391,0.0163 0.586984,0.1575 0.826781,0.4237 0.221351,0.24573 0.336189,0.5225 0.344514,0.8303 0.0037,0.30267 -0.145435,0.59005 -0.447505,0.86213 z m -2.718465,-3.01794 c -0.317408,0.28591 -0.621314,0.40664 -0.911719,0.36221 -0.300136,-0.0449 -0.56088,-0.19027 -0.782231,-0.43601 -0.244408,-0.27133 -0.361043,-0.56039 -0.349906,-0.86717 0.01113,-0.30678 0.157488,-0.58699 0.439063,-0.84062 0.276453,-0.24902 0.57268,-0.36284 0.888682,-0.34146 0.310883,0.026 0.583917,0.16954 0.819102,0.43062 0.221351,0.24573 0.336189,0.5225 0.344514,0.8303 0.0037,0.30267 -0.145435,0.59005 -0.447505,0.86213 z"
           id="path965" />
        <path
           style="color:#000000;font-style:normal;font-variant:normal;font-weight:600;font-stretch:normal;font-size:21.1667px;line-height:1.25;font-family:'Open Sans';-inkscape-font-specification:'Open Sans Semi-Bold';font-variant-ligatures:normal;font-variant-position:normal;font-variant-caps:normal;font-variant-numeric:normal;font-variant-alternates:normal;font-variant-east-asian:normal;font-feature-settings:normal;font-variation-settings:normal;text-indent:0;text-align:start;text-decoration:none;text-decoration-line:none;text-decoration-style:solid;text-decoration-color:#000000;letter-spacing:0px;word-spacing:0px;text-transform:none;writing-mode:lr-tb;direction:ltr;text-orientation:mixed;dominant-baseline:auto;baseline-shift:baseline;text-anchor:start;white-space:normal;shape-padding:0;shape-margin:0;inline-size:0;clip-rule:nonzero;display:inline;overflow:visible;visibility:visible;isolation:auto;mix-blend-mode:normal;color-interpolation:sRGB;color-interpolation-filters:linearRGB;solid-color:#000000;solid-opacity:1;vector-effect:none;fill-opacity:1;fill-rule:nonzero;stroke-width:0.264583;stroke-linecap:butt;stroke-linejoin:miter;stroke-miterlimit:4;stroke-dasharray:none;stroke-dashoffset:0;stroke-opacity:1.0;color-rendering:auto;image-rendering:auto;shape-rendering:auto;text-rendering:auto;enable-background:accumulate;stop-color:#000000;stop-opacity:1;stroke:none;"
           d="M 67.943359 166.42188 L 60.322266 181.02734 L 62.244141 183.16016 L 77.564453 177.10156 L 75.630859 174.95508 L 71.523438 176.66602 L 67.78125 172.51172 L 69.888672 168.58203 L 69.826172 168.51367 L 67.943359 166.42188 z M 68.001953 166.88281 L 69.568359 168.61914 L 67.460938 172.55078 L 71.451172 176.98242 L 75.558594 175.27148 L 77.113281 176.99609 L 62.318359 182.8457 L 60.642578 180.98633 L 68.001953 166.88281 z M 66.449219 174.21289 L 66.359375 174.375 L 64.25 178.18164 L 64.248047 178.18359 C 64.114777 178.44034 63.889405 178.83726 63.574219 179.37109 L 63.576172 179.37109 C 63.256303 179.89995 63.017385 180.28189 62.861328 180.51367 L 63.035156 180.70312 C 63.783432 180.27751 64.649736 179.86042 65.632812 179.45508 L 69.644531 177.76172 L 66.449219 174.21289 z M 66.5 174.66602 L 69.197266 177.66211 L 65.53125 179.21094 C 64.698865 179.55421 63.993493 179.91166 63.324219 180.27148 C 63.466397 180.04821 63.590129 179.85932 63.802734 179.50781 L 63.802734 179.50586 C 64.118469 178.9711 64.344403 178.57435 64.482422 178.30859 L 64.484375 178.30664 L 66.5 174.66602 z M 58.0625 181.00391 C 57.709393 180.98002 57.372648 181.11185 57.076172 181.37891 C 56.775533 181.64971 56.606301 181.96665 56.59375 182.3125 C 56.581288 182.65576 56.714892 182.98294 56.976562 183.27344 C 57.21513 183.53829 57.50754 183.7025 57.837891 183.75195 C 58.177351 183.80389 58.522574 183.65904 58.857422 183.35742 C 59.177819 183.06883 59.353891 182.74169 59.349609 182.39453 L 59.349609 182.39258 C 59.340454 182.05405 59.209886 181.74404 58.970703 181.47852 C 58.717578 181.19752 58.409223 181.03274 58.064453 181.00391 L 58.0625 181.00391 z M 58.042969 181.26758 C 58.319965 181.29074 58.556191 181.41313 58.773438 181.6543 C 58.976957 181.88023 59.076491 182.12332 59.083984 182.40039 C 59.086657 182.65802 58.964815 182.9051 58.681641 183.16016 C 58.381672 183.43035 58.118302 183.52716 57.876953 183.49023 C 57.607032 183.44982 57.377963 183.32233 57.173828 183.0957 C 56.946683 182.84353 56.847609 182.59257 56.857422 182.32227 C 56.867137 182.05456 56.991394 181.81263 57.253906 181.57617 C 57.509786 181.34568 57.764768 181.24924 58.042969 181.26758 z M 60.771484 184.02734 C 60.423625 184.00918 60.091897 184.14207 59.800781 184.4043 C 59.500646 184.67465 59.331415 184.99075 59.318359 185.33594 C 59.300645 185.67524 59.433642 186.00052 59.695312 186.29102 C 59.93388 186.55587 60.22629 186.72007 60.556641 186.76953 C 60.896102 186.82147 61.241324 186.67662 61.576172 186.375 C 61.896569 186.08641 62.072641 185.75927 62.068359 185.41211 L 62.068359 185.41016 C 62.059203 185.07163 61.928635 184.76162 61.689453 184.49609 C 61.431494 184.20973 61.118652 184.04548 60.771484 184.02734 z M 60.757812 184.29297 C 61.033426 184.30737 61.270553 184.42584 61.492188 184.67188 C 61.695707 184.89781 61.79524 185.14089 61.802734 185.41797 C 61.805408 185.6756 61.681613 185.92267 61.398438 186.17773 C 61.098469 186.44793 60.837053 186.54474 60.595703 186.50781 C 60.325783 186.4674 60.096713 186.33991 59.892578 186.11328 C 59.665433 185.86111 59.570201 185.61362 59.583984 185.34961 L 59.583984 185.34766 C 59.593706 185.07995 59.71601 184.83802 59.978516 184.60156 C 60.230066 184.37498 60.48289 184.27861 60.757812 184.29297 z "
           id="path967" />
      </g>
      <g
         id="g969"
         style="opacity:1">
        <path
           style="color:#000000;font-style:normal;font-variant:normal;font-weight:600;font-stretch:normal;font-size:21.1667px;line-height:1.25;font-family:'Open Sans';-inkscape-font-specification:'Open Sans Semi-Bold';font-variant-ligatures:normal;font-variant-position:normal;font-variant-caps:normal;font-variant-numeric:normal;font-variant-alternates:normal;font-variant-east-asian:normal;font-feature-settings:normal;font-variation-settings:normal;text-indent:0;text-align:start;text-decoration:none;text-decoration-line:none;text-decoration-style:solid;text-decoration-color:#000000;letter-spacing:0px;word-spacing:0px;text-transform:none;writing-mode:lr-tb;direction:ltr;text-orientation:mixed;dominant-baseline:auto;baseline-shift:baseline;text-anchor:start;white-space:normal;shape-padding:0;shape-margin:0;inline-size:0;clip-rule:nonzero;display:inline;overflow:visible;visibility:visible;isolation:auto;mix-blend-mode:normal;color-interpolation:sRGB;color-interpolation-filters:linearRGB;solid-color:#000000;solid-opacity:1;vector-effect:none;fill:#000000;fill-opacity:1;fill-rule:nonzero;stroke-width:0.264583;stroke-linecap:butt;stroke-linejoin:miter;stroke-miterlimit:4;stroke-dasharray:none;stroke-dashoffset:0;stroke-opacity:1.0;color-rendering:auto;image-rendering:auto;shape-rendering:auto;text-rendering:auto;enable-background:accumulate;stop-color:#000000;stop-opacity:1;stroke:none;"
           d="m 63.350628,156.13514 -3.241226,3.0625 2.312723,5.29435 4.436891,-0.32536 1.042588,2.38671 -16.166644,0.8928 -1.075685,-2.46248 11.640491,-11.25418 z m -4.931625,4.51146 -3.202692,2.94416 c -0.211191,0.20504 -0.551055,0.5114 -1.019594,0.91908 -0.471297,0.40137 -0.819436,0.68879 -1.044417,0.86226 0.851101,-0.16878 1.80929,-0.29035 2.874568,-0.36471 l 4.154604,-0.32611 z m -8.470513,9.65514 c -0.391472,0.17101 -0.717958,0.18957 -0.979457,0.0557 -0.270571,-0.13745 -0.472053,-0.35771 -0.604445,-0.66079 -0.146183,-0.33464 -0.16416,-0.64258 -0.05393,-0.92382 0.107475,-0.28755 0.334849,-0.50718 0.682123,-0.65888 0.334645,-0.14619 0.647124,-0.16239 0.937435,-0.0486 0.290311,0.11379 0.507179,0.33485 0.650604,0.66318 0.132392,0.30307 0.153922,0.60194 0.06459,0.89661 -0.09209,0.28835 -0.324398,0.51389 -0.696927,0.67662 z m -1.62594,-3.72214 c -0.391472,0.17101 -0.717958,0.18957 -0.979457,0.0557 -0.270571,-0.13745 -0.472053,-0.35771 -0.604445,-0.66079 -0.146183,-0.33464 -0.165536,-0.64574 -0.05806,-0.93329 0.107474,-0.28755 0.334848,-0.50718 0.682122,-0.65888 0.340959,-0.14894 0.657974,-0.16337 0.951043,-0.0433 0.286755,0.12286 0.500466,0.3453 0.641133,0.66732 0.132392,0.30307 0.153922,0.60194 0.06459,0.89661 -0.09209,0.28835 -0.324397,0.51389 -0.696927,0.67662 z"
           id="path971" />
        <path
           style="color:#000000;font-style:normal;font-variant:normal;font-weight:600;font-stretch:normal;font-size:21.1667px;line-height:1.25;font-family:'Open Sans';-inkscape-font-specification:'Open Sans Semi-Bold';font-variant-ligatures:normal;font-variant-position:normal;font-variant-caps:normal;font-variant-numeric:normal;font-variant-alternates:normal;font-variant-east-asian:normal;font-feature-settings:normal;font-variation-settings:normal;text-indent:0;text-align:start;text-decoration:none;text-decoration-line:none;text-decoration-style:solid;text-decoration-color:#000000;letter-spacing:0px;word-spacing:0px;text-transform:none;writing-mode:lr-tb;direction:ltr;text-orientation:mixed;dominant-baseline:auto;baseline-shift:baseline;text-anchor:start;white-space:normal;shape-padding:0;shape-margin:0;inline-size:0;clip-rule:nonzero;display:inline;overflow:visible;visibility:visible;isolation:auto;mix-blend-mode:normal;color-interpolation:sRGB;color-interpolation-filters:linearRGB;solid-color:#000000;solid-opacity:1;vector-effect:none;fill-opacity:1;fill-rule:nonzero;stroke-width:0.264583;stroke-linecap:butt;stroke-linejoin:miter;stroke-miterlimit:4;stroke-dasharray:none;stroke-dashoffset:0;stroke-opacity:1.0;color-rendering:auto;image-rendering:auto;shape-rendering:auto;text-rendering:auto;enable-background:accumulate;stop-color:#000000;stop-opacity:1;stroke:none;"
           d="M 62.345703 153.50195 L 50.501953 164.95312 L 51.650391 167.58398 L 68.099609 166.67578 L 66.943359 164.02734 L 62.505859 164.35352 L 60.267578 159.23047 L 63.509766 156.16797 L 63.472656 156.08203 L 62.345703 153.50195 z M 62.253906 153.95898 L 63.191406 156.10352 L 59.951172 159.16602 L 62.337891 164.63086 L 66.775391 164.30469 L 67.705078 166.43164 L 51.820312 167.30859 L 50.816406 165.01562 L 62.253906 153.95898 z M 58.466797 160.42383 L 58.330078 160.54883 L 55.125 163.49414 L 55.125 163.49609 C 54.91745 163.6976 54.577054 164.00322 54.109375 164.41016 C 53.640286 164.8096 53.293099 165.0973 53.072266 165.26758 L 53.177734 165.50195 C 54.022141 165.3345 54.974373 165.21272 56.035156 165.13867 L 56.037109 165.13867 L 60.376953 164.79883 L 58.466797 160.42383 z M 58.371094 160.86914 L 59.986328 164.5625 L 56.015625 164.875 C 55.11727 164.93777 54.336661 165.05356 53.587891 165.18359 C 53.793172 165.01676 53.970905 164.87729 54.283203 164.61133 L 54.283203 164.60938 C 54.751664 164.20176 55.091736 163.89605 55.306641 163.6875 L 55.308594 163.68555 L 58.371094 160.86914 z M 48.363281 164.2168 C 48.035801 164.08262 47.676198 164.10199 47.310547 164.26172 C 46.939762 164.42369 46.677803 164.66996 46.556641 164.99414 C 46.436386 165.31588 46.46068 165.66907 46.617188 166.02734 C 46.759876 166.354 46.985394 166.60262 47.283203 166.75391 C 47.588877 166.91039 47.962021 166.88157 48.375 166.70117 C 48.770134 166.52856 49.03891 166.27408 49.144531 165.94336 L 49.146484 165.94141 C 49.244734 165.61732 49.219229 165.28061 49.076172 164.95312 C 48.924776 164.60654 48.68325 164.35305 48.365234 164.2168 L 48.363281 164.2168 z M 48.261719 164.46094 C 48.517213 164.5704 48.704047 164.76114 48.833984 165.05859 C 48.955418 165.33658 48.972326 165.59869 48.892578 165.86328 C 48.814024 166.10925 48.61946 166.30612 48.269531 166.45898 C 47.899566 166.6206 47.621622 166.62884 47.404297 166.51758 L 47.402344 166.51758 C 47.15901 166.39397 46.98147 166.20138 46.859375 165.92188 C 46.723518 165.61087 46.70999 165.34125 46.804688 165.08789 C 46.898473 164.83696 47.092253 164.64534 47.416016 164.50391 C 47.731556 164.36607 48.003589 164.35574 48.261719 164.46094 z M 49.978516 167.94141 C 49.654204 167.81429 49.298497 167.83534 48.939453 167.99219 C 48.568668 168.15416 48.308663 168.40238 48.1875 168.72656 C 48.064308 169.04243 48.087929 169.3924 48.244141 169.75 C 48.38683 170.07665 48.610394 170.32333 48.908203 170.47461 C 49.14673 170.59672 49.453913 170.52295 49.761719 170.43555 L 49.722656 170.54492 L 50.001953 170.42383 C 50.397084 170.25122 50.665862 169.99674 50.771484 169.66602 L 50.771484 169.66406 C 50.869734 169.33998 50.844229 169.00327 50.701172 168.67578 C 50.546884 168.32258 50.302186 168.06827 49.978516 167.94141 z M 49.882812 168.18945 C 50.139765 168.29016 50.326423 168.47778 50.458984 168.78125 C 50.580417 169.05924 50.599278 169.31939 50.519531 169.58398 C 50.440976 169.82995 50.246412 170.02683 49.896484 170.17969 C 49.526519 170.3413 49.246622 170.35149 49.029297 170.24023 C 48.785963 170.11662 48.608423 169.92404 48.486328 169.64453 C 48.35047 169.33353 48.337119 169.06646 48.433594 168.82031 L 48.435547 168.81836 C 48.529333 168.56743 48.721159 168.3758 49.044922 168.23438 C 49.355169 168.09885 49.626501 168.08899 49.882812 168.18945 z "
           id="path973" />
      </g>
      <g
         id="g975"
         style="opacity:1">
        <path
           style="color:#000000;font-style:normal;font-variant:normal;font-weight:600;font-stretch:normal;font-size:21.1667px;line-height:1.25;font-family:'Open Sans';-inkscape-font-specification:'Open Sans Semi-Bold';font-variant-ligatures:normal;font-variant-position:normal;font-variant-caps:normal;font-variant-numeric:normal;font-variant-alternates:normal;font-variant-east-asian:normal;font-feature-settings:normal;font-variation-settings:normal;text-indent:0;text-align:start;text-decoration:none;text-decoration-line:none;text-decoration-style:solid;text-decoration-color:#000000;letter-spacing:0px;word-spacing:0px;text-transform:none;writing-mode:lr-tb;direction:ltr;text-orientation:mixed;dominant-baseline:auto;baseline-shift:baseline;text-anchor:start;white-space:normal;shape-padding:0;shape-margin:0;inline-size:0;clip-rule:nonzero;display:inline;overflow:visible;visibility:visible;isolation:auto;mix-blend-mode:normal;color-interpolation:sRGB;color-interpolation-filters:linearRGB;solid-color:#000000;solid-opacity:1;vector-effect:none;fill:#000000;fill-opacity:1;fill-rule:nonzero;stroke-width:0.264583;stroke-linecap:butt;stroke-linejoin:miter;stroke-miterlimit:4;stroke-dasharray:none;stroke-dashoffset:0;stroke-opacity:1.0;color-rendering:auto;image-rendering:auto;shape-rendering:auto;text-rendering:auto;enable-background:accumulate;stop-color:#000000;stop-opacity:1;stroke:none;"
           d="m 55.39268,139.91416 c -1.247147,-0.18577 -2.244811,-0.78371 -2.992992,-1.7938 -0.748182,-1.01009 -1.029387,-2.1387 -0.843614,-3.38585 0.184758,-1.24033 0.782182,-2.23459 1.792273,-2.98277 1.010091,-0.74819 2.138709,-1.02939 3.385856,-0.84362 1.240331,0.18476 2.234588,0.78218 2.98277,1.79227 0.748181,1.01009 1.029893,2.13531 0.845136,3.37564 -0.185773,1.24715 -0.783704,2.24481 -1.793795,2.99299 -1.010091,0.74818 -2.135302,1.02989 -3.375634,0.84514 z"
           id="path977" />
        <path
           style="color:#000000;font-style:normal;font-variant:normal;font-weight:600;font-stretch:normal;font-size:21.1667px;line-height:1.25;font-family:'Open Sans';-inkscape-font-specification:'Open Sans Semi-Bold';font-variant-ligatures:normal;font-variant-position:normal;font-variant-caps:normal;font-variant-numeric:normal;font-variant-alternates:normal;font-variant-east-asian:normal;font-feature-settings:normal;font-variation-settings:normal;text-indent:0;text-align:start;text-decoration:none;text-decoration-line:none;text-decoration-style:solid;text-decoration-color:#000000;letter-spacing:0px;word-spacing:0px;text-transform:none;writing-mode:lr-tb;direction:ltr;text-orientation:mixed;dominant-baseline:auto;baseline-shift:baseline;text-anchor:start;white-space:normal;shape-padding:0;shape-margin:0;inline-size:0;clip-rule:nonzero;display:inline;overflow:visible;visibility:visible;isolation:auto;mix-blend-mode:normal;color-interpolation:sRGB;color-interpolation-filters:linearRGB;solid-color:#000000;solid-opacity:1;vector-effect:none;fill-opacity:1;fill-rule:nonzero;stroke-width:0.264583;stroke-linecap:butt;stroke-linejoin:miter;stroke-miterlimit:4;stroke-dasharray:none;stroke-dashoffset:0;stroke-opacity:1.0;color-rendering:auto;image-rendering:auto;shape-rendering:auto;text-rendering:auto;enable-background:accumulate;stop-color:#000000;stop-opacity:1;stroke:none;"
           d="M 56.753906 130.77734 C 55.476014 130.58699 54.304756 130.87773 53.269531 131.64453 C 52.234444 132.41123 51.615144 133.4436 51.425781 134.71484 C 51.235429 135.99274 51.526169 137.164 52.292969 138.19922 C 53.059767 139.23445 54.095154 139.85457 55.373047 140.04492 C 56.644293 140.23428 57.812569 139.94248 58.847656 139.17578 C 59.882881 138.40898 60.503007 137.3736 60.693359 136.0957 C 60.882722 134.82446 60.590915 133.65618 59.824219 132.62109 C 59.057521 131.58601 58.025152 130.96671 56.753906 130.77734 z M 56.714844 131.03906 C 57.924261 131.21922 58.881662 131.79421 59.611328 132.7793 C 60.340994 133.76439 60.611793 134.84722 60.431641 136.05664 C 60.250448 137.27304 59.674409 138.23333 58.689453 138.96289 C 57.704359 139.69256 56.621527 139.96335 55.412109 139.7832 C 54.195708 139.60201 53.235424 139.02597 52.505859 138.04102 C 51.776295 137.05606 51.506307 135.97031 51.6875 134.75391 C 51.867653 133.54449 52.442641 132.58709 53.427734 131.85742 C 54.412691 131.12785 55.498443 130.85787 56.714844 131.03906 z "
           id="path979" />
      </g>
      <g
         id="g981"
         style="opacity:1">
        <path
           style="color:#000000;font-style:normal;font-variant:normal;font-weight:600;font-stretch:normal;font-size:21.1667px;line-height:1.25;font-family:'Open Sans';-inkscape-font-specification:'Open Sans Semi-Bold';font-variant-ligatures:normal;font-variant-position:normal;font-variant-caps:normal;font-variant-numeric:normal;font-variant-alternates:normal;font-variant-east-asian:normal;font-feature-settings:normal;font-variation-settings:normal;text-indent:0;text-align:start;text-decoration:none;text-decoration-line:none;text-decoration-style:solid;text-decoration-color:#000000;letter-spacing:0px;word-spacing:0px;text-transform:none;writing-mode:lr-tb;direction:ltr;text-orientation:mixed;dominant-baseline:auto;baseline-shift:baseline;text-anchor:start;white-space:normal;shape-padding:0;shape-margin:0;inline-size:0;clip-rule:nonzero;display:inline;overflow:visible;visibility:visible;isolation:auto;mix-blend-mode:normal;color-interpolation:sRGB;color-interpolation-filters:linearRGB;solid-color:#000000;solid-opacity:1;vector-effect:none;fill:#000000;fill-opacity:1;fill-rule:nonzero;stroke-width:0.264583;stroke-linecap:butt;stroke-linejoin:miter;stroke-miterlimit:4;stroke-dasharray:none;stroke-dashoffset:0;stroke-opacity:1.0;color-rendering:auto;image-rendering:auto;shape-rendering:auto;text-rendering:auto;enable-background:accumulate;stop-color:#000000;stop-opacity:1;stroke:none;"
           d="m 68.803985,118.26998 -11.743942,-9.50781 1.554285,-1.91984 10.09722,8.17463 4.025535,-4.97229 1.646722,1.33317 z"
           id="path983" />
        <path
           style="color:#000000;font-style:normal;font-variant:normal;font-weight:600;font-stretch:normal;font-size:21.1667px;line-height:1.25;font-family:'Open Sans';-inkscape-font-specification:'Open Sans Semi-Bold';font-variant-ligatures:normal;font-variant-position:normal;font-variant-caps:normal;font-variant-numeric:normal;font-variant-alternates:normal;font-variant-east-asian:normal;font-feature-settings:normal;font-variation-settings:normal;text-indent:0;text-align:start;text-decoration:none;text-decoration-line:none;text-decoration-style:solid;text-decoration-color:#000000;letter-spacing:0px;word-spacing:0px;text-transform:none;writing-mode:lr-tb;direction:ltr;text-orientation:mixed;dominant-baseline:auto;baseline-shift:baseline;text-anchor:start;white-space:normal;shape-padding:0;shape-margin:0;inline-size:0;clip-rule:nonzero;display:inline;overflow:visible;visibility:visible;isolation:auto;mix-blend-mode:normal;color-interpolation:sRGB;color-interpolation-filters:linearRGB;solid-color:#000000;solid-opacity:1;vector-effect:none;fill-opacity:1;fill-rule:nonzero;stroke-width:0.264583;stroke-linecap:butt;stroke-linejoin:miter;stroke-miterlimit:4;stroke-dasharray:none;stroke-dashoffset:0;stroke-opacity:1.0;color-rendering:auto;image-rendering:auto;shape-rendering:auto;text-rendering:auto;enable-background:accumulate;stop-color:#000000;stop-opacity:1;stroke:none;"
           d="M 58.595703 106.65625 L 56.873047 108.78125 L 68.824219 118.45508 L 68.90625 118.35352 L 74.570312 111.35742 L 72.716797 109.85938 L 68.691406 114.83008 L 58.595703 106.65625 z M 58.632812 107.0293 L 68.730469 115.20312 L 72.755859 110.23047 L 74.197266 111.39844 L 68.785156 118.08398 L 57.246094 108.74219 L 58.632812 107.0293 z "
           id="path985" />
      </g>
      <g
         id="g987"
         style="opacity:1">
        <path
           style="color:#000000;font-style:normal;font-variant:normal;font-weight:600;font-stretch:normal;font-size:21.1667px;line-height:1.25;font-family:'Open Sans';-inkscape-font-specification:'Open Sans Semi-Bold';font-variant-ligatures:normal;font-variant-position:normal;font-variant-caps:normal;font-variant-numeric:normal;font-variant-alternates:normal;font-variant-east-asian:normal;font-feature-settings:normal;font-variation-settings:normal;text-indent:0;text-align:start;text-decoration:none;text-decoration-line:none;text-decoration-style:solid;text-decoration-color:#000000;letter-spacing:0px;word-spacing:0px;text-transform:none;writing-mode:lr-tb;direction:ltr;text-orientation:mixed;dominant-baseline:auto;baseline-shift:baseline;text-anchor:start;white-space:normal;shape-padding:0;shape-margin:0;inline-size:0;clip-rule:nonzero;display:inline;overflow:visible;visibility:visible;isolation:auto;mix-blend-mode:normal;color-interpolation:sRGB;color-interpolation-filters:linearRGB;solid-color:#000000;solid-opacity:1;vector-effect:none;fill:#000000;fill-opacity:1;fill-rule:nonzero;stroke-width:0.264583;stroke-linecap:butt;stroke-linejoin:miter;stroke-miterlimit:4;stroke-dasharray:none;stroke-dashoffset:0;stroke-opacity:1.0;color-rendering:auto;image-rendering:auto;shape-rendering:auto;text-rendering:auto;enable-background:accumulate;stop-color:#000000;stop-opacity:1;stroke:none;"
           d="m 77.938031,90.364698 5.351752,8.18244 c 0.610982,0.934147 0.944712,1.884972 1.00119,2.852472 0.05847,0.95796 -0.168409,1.87615 -0.680648,2.75456 -0.510243,0.86888 -1.292985,1.64841 -2.348226,2.33859 -1.568445,1.02585 -3.059575,1.40834 -4.473388,1.14749 -1.413813,-0.26086 -2.595927,-1.11785 -3.546344,-2.57097 l -5.329123,-8.147839 2.075884,-1.357738 5.232949,8.000797 c 0.682641,1.04371 1.428322,1.65512 2.237043,1.83422 0.808721,0.1791 1.714754,-0.0595 2.718097,-0.71571 1.949024,-1.27477 2.254096,-2.93568 0.915215,-4.98273 l -5.221634,-7.983502 z"
           id="path989" />
        <path
           style="color:#000000;font-style:normal;font-variant:normal;font-weight:600;font-stretch:normal;font-size:21.1667px;line-height:1.25;font-family:'Open Sans';-inkscape-font-specification:'Open Sans Semi-Bold';font-variant-ligatures:normal;font-variant-position:normal;font-variant-caps:normal;font-variant-numeric:normal;font-variant-alternates:normal;font-variant-east-asian:normal;font-feature-settings:normal;font-variation-settings:normal;text-indent:0;text-align:start;text-decoration:none;text-decoration-line:none;text-decoration-style:solid;text-decoration-color:#000000;letter-spacing:0px;word-spacing:0px;text-transform:none;writing-mode:lr-tb;direction:ltr;text-orientation:mixed;dominant-baseline:auto;baseline-shift:baseline;text-anchor:start;white-space:normal;shape-padding:0;shape-margin:0;inline-size:0;clip-rule:nonzero;display:inline;overflow:visible;visibility:visible;isolation:auto;mix-blend-mode:normal;color-interpolation:sRGB;color-interpolation-filters:linearRGB;solid-color:#000000;solid-opacity:1;vector-effect:none;fill-opacity:1;fill-rule:nonzero;stroke-width:0.264583;stroke-linecap:butt;stroke-linejoin:miter;stroke-miterlimit:4;stroke-dasharray:none;stroke-dashoffset:0;stroke-opacity:1.0;color-rendering:auto;image-rendering:auto;shape-rendering:auto;text-rendering:auto;enable-background:accumulate;stop-color:#000000;stop-opacity:1;stroke:none;"
           d="M 77.976562 90.181641 L 77.865234 90.253906 L 75.6875 91.677734 L 80.982422 99.773438 C 81.640371 100.7794 81.88286 101.6699 81.738281 102.45703 C 81.593702 103.24417 81.0606 103.94756 80.105469 104.57227 C 79.120366 105.21658 78.252423 105.43876 77.488281 105.26953 C 76.724854 105.10046 76.00347 104.51877 75.332031 103.49219 L 70.027344 95.380859 L 67.730469 96.882812 L 73.130859 105.14258 C 74.095739 106.61781 75.313911 107.50168 76.765625 107.76953 C 78.218452 108.03758 79.746001 107.64214 81.333984 106.60352 C 82.402333 105.90476 83.201946 105.11073 83.724609 104.2207 C 84.248153 103.3229 84.48346 102.37575 84.423828 101.39258 C 84.365877 100.39984 84.021802 99.424703 83.400391 98.474609 L 77.976562 90.181641 z M 77.900391 90.546875 L 83.179688 98.619141 C 83.78024 99.537342 84.103198 100.46594 84.158203 101.4082 C 84.215095 102.34026 83.996687 103.22945 83.496094 104.08789 C 82.998271 104.93562 82.231585 105.70121 81.189453 106.38281 C 79.640545 107.39588 78.1873 107.76342 76.8125 107.50977 C 75.436589 107.2559 74.289469 106.4271 73.353516 104.99609 L 68.095703 96.958984 L 69.951172 95.746094 L 75.111328 103.63672 C 75.805171 104.69756 76.575672 105.33821 77.429688 105.52734 C 78.282988 105.71632 79.228417 105.46114 80.25 104.79297 C 81.243892 104.14291 81.837554 103.37963 81.998047 102.50586 C 82.15854 101.63208 81.884056 100.66805 81.203125 99.626953 L 76.054688 91.755859 L 77.900391 90.546875 z "
           id="path991" />
      </g>
      <g
         id="g993"
         style="opacity:1">
        <path
           style="color:#000000;font-style:normal;font-variant:normal;font-weight:600;font-stretch:normal;font-size:21.1667px;line-height:1.25;font-family:'Open Sans';-inkscape-font-specification:'Open Sans Semi-Bold';font-variant-ligatures:normal;font-variant-position:normal;font-variant-caps:normal;font-variant-numeric:normal;font-variant-alternates:normal;font-variant-east-asian:normal;font-feature-settings:normal;font-variation-settings:normal;text-indent:0;text-align:start;text-decoration:none;text-decoration-line:none;text-decoration-style:solid;text-decoration-color:#000000;letter-spacing:0px;word-spacing:0px;text-transform:none;writing-mode:lr-tb;direction:ltr;text-orientation:mixed;dominant-baseline:auto;baseline-shift:baseline;text-anchor:start;white-space:normal;shape-padding:0;shape-margin:0;inline-size:0;clip-rule:nonzero;display:inline;overflow:visible;visibility:visible;isolation:auto;mix-blend-mode:normal;color-interpolation:sRGB;color-interpolation-filters:linearRGB;solid-color:#000000;solid-opacity:1;vector-effect:none;fill:#000000;fill-opacity:1;fill-rule:nonzero;stroke-width:0.264583;stroke-linecap:butt;stroke-linejoin:miter;stroke-miterlimit:4;stroke-dasharray:none;stroke-dashoffset:0;stroke-opacity:1.0;color-rendering:auto;image-rendering:auto;shape-rendering:auto;text-rendering:auto;enable-background:accumulate;stop-color:#000000;stop-opacity:1;stroke:none;"
           d="m 98.186143,99.487506 -8.256025,2.212314 -3.910999,-14.595299 8.256024,-2.212309 0.540371,2.016586 -5.870063,1.57296 1.06469,3.973275 5.500689,-1.473982 0.535021,1.99662 -5.500689,1.473982 1.227872,4.582243 5.870063,-1.57296 z"
           id="path995" />
        <path
           style="color:#000000;font-style:normal;font-variant:normal;font-weight:600;font-stretch:normal;font-size:21.1667px;line-height:1.25;font-family:'Open Sans';-inkscape-font-specification:'Open Sans Semi-Bold';font-variant-ligatures:normal;font-variant-position:normal;font-variant-caps:normal;font-variant-numeric:normal;font-variant-alternates:normal;font-variant-east-asian:normal;font-feature-settings:normal;font-variation-settings:normal;text-indent:0;text-align:start;text-decoration:none;text-decoration-line:none;text-decoration-style:solid;text-decoration-color:#000000;letter-spacing:0px;word-spacing:0px;text-transform:none;writing-mode:lr-tb;direction:ltr;text-orientation:mixed;dominant-baseline:auto;baseline-shift:baseline;text-anchor:start;white-space:normal;shape-padding:0;shape-margin:0;inline-size:0;clip-rule:nonzero;display:inline;overflow:visible;visibility:visible;isolation:auto;mix-blend-mode:normal;color-interpolation:sRGB;color-interpolation-filters:linearRGB;solid-color:#000000;solid-opacity:1;vector-effect:none;fill-opacity:1;fill-rule:nonzero;stroke-width:0.264583;stroke-linecap:butt;stroke-linejoin:miter;stroke-miterlimit:4;stroke-dasharray:none;stroke-dashoffset:0;stroke-opacity:1.0;color-rendering:auto;image-rendering:auto;shape-rendering:auto;text-rendering:auto;enable-background:accumulate;stop-color:#000000;stop-opacity:1;stroke:none;"
           d="M 94.369141 84.730469 L 85.857422 87.011719 L 89.835938 101.86133 L 98.347656 99.580078 L 98.314453 99.453125 L 97.736328 97.298828 L 91.867188 98.871094 L 90.707031 94.544922 L 96.207031 93.070312 L 95.603516 90.818359 L 90.105469 92.292969 L 89.107422 88.576172 L 94.976562 87.001953 L 94.369141 84.730469 z M 94.181641 85.054688 L 94.652344 86.816406 L 88.783203 88.388672 L 89.916016 92.617188 L 95.417969 91.142578 L 95.882812 92.884766 L 90.382812 94.357422 L 91.679688 99.195312 L 97.548828 97.623047 L 98.023438 99.394531 L 90.023438 101.53711 L 86.181641 87.197266 L 94.181641 85.054688 z "
           id="path997" />
      </g>
      <g
         id="g999"
         style="opacity:1">
        <path
           style="color:#000000;font-style:normal;font-variant:normal;font-weight:600;font-stretch:normal;font-size:21.1667px;line-height:1.25;font-family:'Open Sans';-inkscape-font-specification:'Open Sans Semi-Bold';font-variant-ligatures:normal;font-variant-position:normal;font-variant-caps:normal;font-variant-numeric:normal;font-variant-alternates:normal;font-variant-east-asian:normal;font-feature-settings:normal;font-variation-settings:normal;text-indent:0;text-align:start;text-decoration:none;text-decoration-line:none;text-decoration-style:solid;text-decoration-color:#000000;letter-spacing:0px;word-spacing:0px;text-transform:none;writing-mode:lr-tb;direction:ltr;text-orientation:mixed;dominant-baseline:auto;baseline-shift:baseline;text-anchor:start;white-space:normal;shape-padding:0;shape-margin:0;inline-size:0;clip-rule:nonzero;display:inline;overflow:visible;visibility:visible;isolation:auto;mix-blend-mode:normal;color-interpolation:sRGB;color-interpolation-filters:linearRGB;solid-color:#000000;solid-opacity:1;vector-effect:none;fill:#000000;fill-opacity:1;fill-rule:nonzero;stroke-width:0.264583;stroke-linecap:butt;stroke-linejoin:miter;stroke-miterlimit:4;stroke-dasharray:none;stroke-dashoffset:0;stroke-opacity:1.0;color-rendering:auto;image-rendering:auto;shape-rendering:auto;text-rendering:auto;enable-background:accumulate;stop-color:#000000;stop-opacity:1;stroke:none;"
           d="m 106.99542,99.091976 1.96622,-14.981738 2.44914,0.321428 -1.69053,12.881016 6.34316,0.832485 -0.2757,2.100723 z"
           id="path1001" />
        <path
           style="color:#000000;font-style:normal;font-variant:normal;font-weight:600;font-stretch:normal;font-size:21.1667px;line-height:1.25;font-family:'Open Sans';-inkscape-font-specification:'Open Sans Semi-Bold';font-variant-ligatures:normal;font-variant-position:normal;font-variant-caps:normal;font-variant-numeric:normal;font-variant-alternates:normal;font-variant-east-asian:normal;font-feature-settings:normal;font-variation-settings:normal;text-indent:0;text-align:start;text-decoration:none;text-decoration-line:none;text-decoration-style:solid;text-decoration-color:#000000;letter-spacing:0px;word-spacing:0px;text-transform:none;writing-mode:lr-tb;direction:ltr;text-orientation:mixed;dominant-baseline:auto;baseline-shift:baseline;text-anchor:start;white-space:normal;shape-padding:0;shape-margin:0;inline-size:0;clip-rule:nonzero;display:inline;overflow:visible;visibility:visible;isolation:auto;mix-blend-mode:normal;color-interpolation:sRGB;color-interpolation-filters:linearRGB;solid-color:#000000;solid-opacity:1;vector-effect:none;fill-opacity:1;fill-rule:nonzero;stroke-width:0.264583;stroke-linecap:butt;stroke-linejoin:miter;stroke-miterlimit:4;stroke-dasharray:none;stroke-dashoffset:0;stroke-opacity:1.0;color-rendering:auto;image-rendering:auto;shape-rendering:auto;text-rendering:auto;enable-background:accumulate;stop-color:#000000;stop-opacity:1;stroke:none;"
           d="M 108.84766 83.960938 L 106.84766 99.205078 L 106.97852 99.222656 L 115.90234 100.39453 L 116.21094 98.03125 L 109.86914 97.199219 L 111.55859 84.318359 L 108.84766 83.960938 z M 109.07617 84.259766 L 111.26172 84.544922 L 109.57227 97.425781 L 115.91406 98.259766 L 115.67383 100.09766 L 107.14453 98.978516 L 109.07617 84.259766 z "
           id="path1003" />
      </g>
      <g
         id="g1005"
         style="opacity:1">
        <path
           style="color:#000000;font-style:normal;font-variant:normal;font-weight:600;font-stretch:normal;font-size:21.1667px;line-height:1.25;font-family:'Open Sans';-inkscape-font-specification:'Open Sans Semi-Bold';font-variant-ligatures:normal;font-variant-position:normal;font-variant-caps:normal;font-variant-numeric:normal;font-variant-alternates:normal;font-variant-east-asian:normal;font-feature-settings:normal;font-variation-settings:normal;text-indent:0;text-align:start;text-decoration:none;text-decoration-line:none;text-decoration-style:solid;text-decoration-color:#000000;letter-spacing:0px;word-spacing:0px;text-transform:none;writing-mode:lr-tb;direction:ltr;text-orientation:mixed;dominant-baseline:auto;baseline-shift:baseline;text-anchor:start;white-space:normal;shape-padding:0;shape-margin:0;inline-size:0;clip-rule:nonzero;display:inline;overflow:visible;visibility:visible;isolation:auto;mix-blend-mode:normal;color-interpolation:sRGB;color-interpolation-filters:linearRGB;solid-color:#000000;solid-opacity:1;vector-effect:none;fill:#000000;fill-opacity:1;fill-rule:nonzero;stroke-width:0.264583;stroke-linecap:butt;stroke-linejoin:miter;stroke-miterlimit:4;stroke-dasharray:none;stroke-dashoffset:0;stroke-opacity:1.0;color-rendering:auto;image-rendering:auto;shape-rendering:auto;text-rendering:auto;enable-background:accumulate;stop-color:#000000;stop-opacity:1;stroke:none;"
           d="m 118.24614,101.24222 5.00176,-14.258369 2.33088,0.81766 -5.00175,14.258369 z"
           id="path1007" />
        <path
           style="color:#000000;font-style:normal;font-variant:normal;font-weight:600;font-stretch:normal;font-size:21.1667px;line-height:1.25;font-family:'Open Sans';-inkscape-font-specification:'Open Sans Semi-Bold';font-variant-ligatures:normal;font-variant-position:normal;font-variant-caps:normal;font-variant-numeric:normal;font-variant-alternates:normal;font-variant-east-asian:normal;font-feature-settings:normal;font-variation-settings:normal;text-indent:0;text-align:start;text-decoration:none;text-decoration-line:none;text-decoration-style:solid;text-decoration-color:#000000;letter-spacing:0px;word-spacing:0px;text-transform:none;writing-mode:lr-tb;direction:ltr;text-orientation:mixed;dominant-baseline:auto;baseline-shift:baseline;text-anchor:start;white-space:normal;shape-padding:0;shape-margin:0;inline-size:0;clip-rule:nonzero;display:inline;overflow:visible;visibility:visible;isolation:auto;mix-blend-mode:normal;color-interpolation:sRGB;color-interpolation-filters:linearRGB;solid-color:#000000;solid-opacity:1;vector-effect:none;fill-opacity:1;fill-rule:nonzero;stroke-width:0.264583;stroke-linecap:butt;stroke-linejoin:miter;stroke-miterlimit:4;stroke-dasharray:none;stroke-dashoffset:0;stroke-opacity:1.0;color-rendering:auto;image-rendering:auto;shape-rendering:auto;text-rendering:auto;enable-background:accumulate;stop-color:#000000;stop-opacity:1;stroke:none;"
           d="M 123.16602 86.814453 L 118.07812 101.32422 L 118.20312 101.36719 L 120.6582 102.22852 L 125.74805 87.720703 L 123.16602 86.814453 z M 123.32812 87.152344 L 125.41016 87.882812 L 120.49609 101.89062 L 118.41406 101.16211 L 123.32812 87.152344 z "
           id="path1009" />
      </g>
      <g
         id="g1011"
         style="opacity:1">
        <path
           style="color:#000000;font-style:normal;font-variant:normal;font-weight:600;font-stretch:normal;font-size:21.1667px;line-height:1.25;font-family:'Open Sans';-inkscape-font-specification:'Open Sans Semi-Bold';font-variant-ligatures:normal;font-variant-position:normal;font-variant-caps:normal;font-variant-numeric:normal;font-variant-alternates:normal;font-variant-east-asian:normal;font-feature-settings:normal;font-variation-settings:normal;text-indent:0;text-align:start;text-decoration:none;text-decoration-line:none;text-decoration-style:solid;text-decoration-color:#000000;letter-spacing:0px;word-spacing:0px;text-transform:none;writing-mode:lr-tb;direction:ltr;text-orientation:mixed;dominant-baseline:auto;baseline-shift:baseline;text-anchor:start;white-space:normal;shape-padding:0;shape-margin:0;inline-size:0;clip-rule:nonzero;display:inline;overflow:visible;visibility:visible;isolation:auto;mix-blend-mode:normal;color-interpolation:sRGB;color-interpolation-filters:linearRGB;solid-color:#000000;solid-opacity:1;vector-effect:none;fill:#000000;fill-opacity:1;fill-rule:nonzero;stroke-width:0.264583;stroke-linecap:butt;stroke-linejoin:miter;stroke-miterlimit:4;stroke-dasharray:none;stroke-dashoffset:0;stroke-opacity:1.0;color-rendering:auto;image-rendering:auto;shape-rendering:auto;text-rendering:auto;enable-background:accumulate;stop-color:#000000;stop-opacity:1;stroke:none;"
           d="m 133.8845,104.54665 c -0.6978,1.14817 -1.66041,1.79677 -2.88784,1.94579 -1.22743,0.14901 -2.57127,-0.22021 -4.03151,-1.10766 -1.46025,-0.88745 -2.51776,-1.84057 -3.17254,-2.85935 l 1.21309,-1.99606 c 0.42063,0.63459 0.91236,1.23176 1.47521,1.79152 0.56873,0.56335 1.13867,1.01857 1.70982,1.36568 0.83611,0.50814 1.54803,0.72311 2.13577,0.64491 0.59363,-0.0746 1.05326,-0.37984 1.3789,-0.91566 0.29343,-0.48282 0.3596,-1.00297 0.19851,-1.56046 -0.16109,-0.55749 -0.67322,-1.41297 -1.53639,-2.566462 -0.88776,-1.192625 -1.38697,-2.241834 -1.49764,-3.147628 -0.11067,-0.905794 0.0952,-1.788521 0.61768,-2.648182 0.65485,-1.077521 1.55288,-1.692807 2.69407,-1.845858 1.14119,-0.153051 2.35653,0.162264 3.64602,0.945944 1.2365,0.751474 2.3025,1.770222 3.198,3.056243 l -1.71793,1.314323 c -0.85475,-1.180621 -1.73256,-2.044682 -2.63344,-2.592185 -0.68302,-0.4151 -1.29242,-0.579857 -1.8282,-0.494271 -0.53221,0.0797 -0.94682,0.363902 -1.24383,0.852613 -0.20397,0.335621 -0.30866,0.667079 -0.31406,0.994373 -0.002,0.321407 0.0946,0.686503 0.28979,1.095289 0.19502,0.408785 0.60797,1.042736 1.23884,1.901851 0.70823,0.970633 1.17937,1.7609 1.41342,2.37079 0.23406,0.60989 0.32352,1.19238 0.26837,1.74745 -0.0551,0.55508 -0.25984,1.12408 -0.61411,1.707 z"
           id="path1013" />
        <path
           style="color:#000000;font-style:normal;font-variant:normal;font-weight:600;font-stretch:normal;font-size:21.1667px;line-height:1.25;font-family:'Open Sans';-inkscape-font-specification:'Open Sans Semi-Bold';font-variant-ligatures:normal;font-variant-position:normal;font-variant-caps:normal;font-variant-numeric:normal;font-variant-alternates:normal;font-variant-east-asian:normal;font-feature-settings:normal;font-variation-settings:normal;text-indent:0;text-align:start;text-decoration:none;text-decoration-line:none;text-decoration-style:solid;text-decoration-color:#000000;letter-spacing:0px;word-spacing:0px;text-transform:none;writing-mode:lr-tb;direction:ltr;text-orientation:mixed;dominant-baseline:auto;baseline-shift:baseline;text-anchor:start;white-space:normal;shape-padding:0;shape-margin:0;inline-size:0;clip-rule:nonzero;display:inline;overflow:visible;visibility:visible;isolation:auto;mix-blend-mode:normal;color-interpolation:sRGB;color-interpolation-filters:linearRGB;solid-color:#000000;solid-opacity:1;vector-effect:none;fill-opacity:1;fill-rule:nonzero;stroke-width:0.264583;stroke-linecap:butt;stroke-linejoin:miter;stroke-miterlimit:4;stroke-dasharray:none;stroke-dashoffset:0;stroke-opacity:1.0;color-rendering:auto;image-rendering:auto;shape-rendering:auto;text-rendering:auto;enable-background:accumulate;stop-color:#000000;stop-opacity:1;stroke:none;"
           d="M 132.16406 91.515625 C 130.98564 91.67367 130.04612 92.319537 129.375 93.423828 C 128.83968 94.304654 128.62396 95.222533 128.73828 96.158203 C 128.85326 97.099329 129.36595 98.163807 130.26172 99.367188 C 131.12113 100.51565 131.627 101.37225 131.77734 101.89258 C 131.92966 102.4197 131.86791 102.89333 131.5918 103.34766 C 131.28327 103.85532 130.86827 104.13107 130.31055 104.20117 L 130.30859 104.20117 C 129.76612 104.27335 129.08154 104.07365 128.25977 103.57422 C 127.69911 103.23349 127.13687 102.78389 126.57422 102.22656 C 126.01741 101.67281 125.53074 101.0839 125.11523 100.45703 L 125 100.2832 L 123.63672 102.52734 L 123.68164 102.59766 C 124.35116 103.63937 125.42454 104.60348 126.89648 105.49805 C 128.37359 106.39575 129.74686 106.7766 131.01172 106.62305 C 132.27652 106.46949 133.28369 105.79066 133.99805 104.61523 C 134.36042 104.01899 134.57342 103.4318 134.63086 102.85352 C 134.6883 102.27538 134.59363 101.67059 134.35352 101.04492 C 134.11188 100.41527 133.63574 99.618264 132.92383 98.642578 C 132.29503 97.786289 131.88392 97.152975 131.69727 96.761719 C 131.50796 96.365257 131.41809 96.018888 131.41992 95.724609 C 131.42522 95.424588 131.52089 95.117971 131.71484 94.798828 C 131.99529 94.337359 132.36862 94.082178 132.86523 94.007812 L 132.86719 94.007812 C 133.36142 93.928863 133.93902 94.079344 134.60547 94.484375 C 135.48615 95.019603 136.35368 95.870409 137.20117 97.041016 L 137.2793 97.150391 L 139.20703 95.677734 L 139.13477 95.574219 C 138.22985 94.274681 137.14949 93.241976 135.89648 92.480469 C 134.58892 91.685808 133.34124 91.357748 132.16406 91.515625 z M 132.19922 91.779297 C 133.30442 91.631073 134.48834 91.934332 135.75977 92.707031 C 136.94426 93.4269 137.95649 94.416355 138.82617 95.636719 L 137.31641 96.791016 C 136.48396 95.665848 135.62966 94.79717 134.74219 94.257812 C 134.0426 93.832644 133.4035 93.653871 132.82617 93.746094 C 132.25836 93.831123 131.80184 94.146156 131.48828 94.662109 C 131.27466 95.013598 131.16209 95.368637 131.15625 95.722656 C 131.15408 96.071191 131.25791 96.455843 131.45898 96.876953 C 131.66237 97.303267 132.07799 97.936886 132.71094 98.798828 L 132.70898 98.798828 C 133.41352 99.764409 133.88095 100.54853 134.10742 101.13867 C 134.33543 101.73279 134.42004 102.29416 134.36719 102.82617 C 134.31436 103.35805 134.11766 103.90892 133.77148 104.47852 C 133.09024 105.59944 132.17052 106.21685 130.98047 106.36133 C 129.79046 106.5058 128.47658 106.14869 127.0332 105.27148 C 125.61082 104.40704 124.60366 103.47984 123.96094 102.50391 L 125.02148 100.75781 C 125.42198 101.33906 125.86661 101.89681 126.38672 102.41406 L 126.38867 102.41406 C 126.96348 102.98343 127.53946 103.44535 128.12109 103.79883 C 128.97153 104.31568 129.71075 104.54711 130.34375 104.46289 C 130.97328 104.38376 131.47561 104.04835 131.81836 103.48438 C 132.12911 102.97306 132.20112 102.40621 132.03125 101.81836 C 131.85943 101.22371 131.33959 100.3675 130.47266 99.208984 L 130.47461 99.208984 C 129.59486 98.027116 129.1083 96.995463 129.00195 96.125 C 128.89494 95.249083 129.09197 94.400996 129.60156 93.5625 C 130.24015 92.511749 131.09526 91.927355 132.19922 91.779297 z "
           id="path1015" />
      </g>
      <g
         id="g1017"
         style="opacity:1">
        <path
           style="color:#000000;font-style:normal;font-variant:normal;font-weight:600;font-stretch:normal;font-size:21.1667px;line-height:1.25;font-family:'Open Sans';-inkscape-font-specification:'Open Sans Semi-Bold';font-variant-ligatures:normal;font-variant-position:normal;font-variant-caps:normal;font-variant-numeric:normal;font-variant-alternates:normal;font-variant-east-asian:normal;font-feature-settings:normal;font-variation-settings:normal;text-indent:0;text-align:start;text-decoration:none;text-decoration-line:none;text-decoration-style:solid;text-decoration-color:#000000;letter-spacing:0px;word-spacing:0px;text-transform:none;writing-mode:lr-tb;direction:ltr;text-orientation:mixed;dominant-baseline:auto;baseline-shift:baseline;text-anchor:start;white-space:normal;shape-padding:0;shape-margin:0;inline-size:0;clip-rule:nonzero;display:inline;overflow:visible;visibility:visible;isolation:auto;mix-blend-mode:normal;color-interpolation:sRGB;color-interpolation-filters:linearRGB;solid-color:#000000;solid-opacity:1;vector-effect:none;fill:#000000;fill-opacity:1;fill-rule:nonzero;stroke-width:0.264583;stroke-linecap:butt;stroke-linejoin:miter;stroke-miterlimit:4;stroke-dasharray:none;stroke-dashoffset:0;stroke-opacity:1.0;color-rendering:auto;image-rendering:auto;shape-rendering:auto;text-rendering:auto;enable-background:accumulate;stop-color:#000000;stop-opacity:1;stroke:none;"
           d="m 140.32045,116.92567 2.1153,-3.92555 -3.85858,-4.30001 -4.11016,1.70247 -1.73947,-1.93847 15.06809,-5.92538 1.79469,2 -7.5166,14.3408 z m 3.26505,-5.83211 2.11589,-3.80111 c 0.1361,-0.26099 0.36254,-0.6586 0.67932,-1.19281 0.32138,-0.52909 0.56163,-0.91131 0.72074,-1.14666 -0.75502,0.42756 -1.62654,0.84393 -2.61455,1.24912 l -3.84192,1.61452 z m 5.00928,-11.827033 c 0.31795,-0.285309 0.62208,-0.405472 0.9124,-0.360489 0.30005,0.04551 0.56052,0.191346 0.7814,0.437497 0.24389,0.271796 0.35768,0.558508 0.34136,0.860135 -0.0117,0.30676 -0.15862,0.58669 -0.44065,0.83979 -0.27179,0.24389 -0.56337,0.35742 -0.87473,0.34057 -0.31136,-0.0169 -0.58669,-0.15862 -0.82598,-0.42527 -0.22089,-0.24616 -0.3352,-0.52314 -0.34294,-0.83095 -0.003,-0.302684 0.14638,-0.589778 0.44914,-0.861283 z m 2.71274,3.023083 c 0.31795,-0.28531 0.62208,-0.40547 0.9124,-0.36049 0.30005,0.0455 0.56052,0.19137 0.7814,0.4375 0.2439,0.27179 0.35999,0.56107 0.34827,0.86783 -0.0117,0.30676 -0.15862,0.58669 -0.44066,0.83978 -0.27692,0.2485 -0.57336,0.36176 -0.88933,0.33978 -0.31083,-0.0266 -0.58359,-0.17066 -0.81828,-0.43217 -0.22089,-0.24615 -0.3352,-0.52314 -0.34294,-0.83095 -0.003,-0.30268 0.14638,-0.58977 0.44914,-0.86128 z"
           id="path1019" />
        <path
           style="color:#000000;font-style:normal;font-variant:normal;font-weight:600;font-stretch:normal;font-size:21.1667px;line-height:1.25;font-family:'Open Sans';-inkscape-font-specification:'Open Sans Semi-Bold';font-variant-ligatures:normal;font-variant-position:normal;font-variant-caps:normal;font-variant-numeric:normal;font-variant-alternates:normal;font-variant-east-asian:normal;font-feature-settings:normal;font-variation-settings:normal;text-indent:0;text-align:start;text-decoration:none;text-decoration-line:none;text-decoration-style:solid;text-decoration-color:#000000;letter-spacing:0px;word-spacing:0px;text-transform:none;writing-mode:lr-tb;direction:ltr;text-orientation:mixed;dominant-baseline:auto;baseline-shift:baseline;text-anchor:start;white-space:normal;shape-padding:0;shape-margin:0;inline-size:0;clip-rule:nonzero;display:inline;overflow:visible;visibility:visible;isolation:auto;mix-blend-mode:normal;color-interpolation:sRGB;color-interpolation-filters:linearRGB;solid-color:#000000;solid-opacity:1;vector-effect:none;fill-opacity:1;fill-rule:nonzero;stroke-width:0.264583;stroke-linecap:butt;stroke-linejoin:miter;stroke-miterlimit:4;stroke-dasharray:none;stroke-dashoffset:0;stroke-opacity:1.0;color-rendering:auto;image-rendering:auto;shape-rendering:auto;text-rendering:auto;enable-background:accumulate;stop-color:#000000;stop-opacity:1;stroke:none;"
           d="M 149.52734 98.775391 C 149.18798 98.722808 148.84128 98.866984 148.50586 99.167969 C 148.18473 99.455948 148.00985 99.781687 148.01367 100.12891 L 148.01367 100.13086 C 148.02218 100.46939 148.15195 100.78089 148.39062 101.04688 C 148.64804 101.33372 148.95951 101.49682 149.30664 101.51562 C 149.65447 101.53444 149.98573 101.40425 150.27734 101.14258 C 150.57797 100.87279 150.748 100.5561 150.76172 100.21094 L 150.76172 100.20898 C 150.77951 99.870366 150.64738 99.546337 150.38672 99.255859 C 150.14866 98.990562 149.8576 98.825485 149.52734 98.775391 z M 149.48633 99.037109 L 149.48828 99.037109 C 149.75813 99.078041 149.98575 99.204635 150.18945 99.431641 C 150.41612 99.68424 150.51233 99.933279 150.49805 100.19727 L 150.49805 100.19922 C 150.48781 100.46691 150.3645 100.70935 150.10156 100.94531 C 149.84959 101.17142 149.59716 101.26683 149.32227 101.25195 C 149.04668 101.23702 148.80906 101.11755 148.58789 100.87109 C 148.3848 100.64476 148.28431 100.40208 148.27734 100.125 C 148.27501 99.867407 148.39977 99.619755 148.68359 99.365234 C 148.98407 99.095601 149.24505 98.999725 149.48633 99.037109 z M 152.24023 101.79883 C 151.90087 101.74625 151.55417 101.89042 151.21875 102.19141 C 150.89762 102.47939 150.72274 102.80513 150.72656 103.15234 L 150.72656 103.1543 C 150.73508 103.49284 150.86483 103.80433 151.10352 104.07031 C 151.3561 104.35177 151.6631 104.51542 152.00781 104.54492 L 152.00977 104.54688 C 152.36283 104.57144 152.70107 104.43837 152.99805 104.17188 C 153.29918 103.90165 153.46919 103.58606 153.48242 103.24023 C 153.49554 102.897 153.36074 102.56833 153.09961 102.27734 C 152.86155 102.01207 152.57049 101.84894 152.24023 101.79883 z M 152.19922 102.06055 C 152.46907 102.1015 152.69864 102.22809 152.90234 102.45508 C 153.12902 102.70767 153.22712 102.95823 153.2168 103.22852 C 153.20656 103.49621 153.08326 103.7406 152.82031 103.97656 C 152.564 104.20657 152.30942 104.30012 152.03125 104.28125 C 151.75429 104.25755 151.51561 104.13414 151.29883 103.89258 C 151.09574 103.66625 150.9972 103.42552 150.99023 103.14844 C 150.9879 102.89085 151.11266 102.64319 151.39648 102.38867 C 151.69696 102.11904 151.95794 102.02317 152.19922 102.06055 z M 147.83203 102.38281 L 132.50195 108.41016 L 134.43164 110.56055 L 138.54102 108.85742 L 142.27539 113.01953 L 140.16016 116.94531 L 140.22266 117.01367 L 142.10156 119.10938 L 149.75 104.51953 L 147.83203 102.38281 z M 147.75781 102.69531 L 149.42969 104.55859 L 142.04492 118.65039 L 140.48047 116.9082 L 142.5957 112.98047 L 138.61328 108.54297 L 134.50195 110.24414 L 132.95312 108.51758 L 147.75781 102.69531 z M 147.03711 104.83789 C 146.28803 105.26209 145.42134 105.6766 144.4375 106.08008 L 144.43555 106.08008 L 140.42188 107.76758 L 143.61133 111.32031 L 143.70117 111.1582 L 145.81836 107.35547 L 145.81836 107.35352 C 145.95211 107.09702 146.17794 106.7012 146.49414 106.16797 C 146.81501 105.63972 147.05444 105.25883 147.21094 105.02734 L 147.03711 104.83789 z M 146.74805 105.26758 C 146.60542 105.49062 146.48093 105.68001 146.26758 106.03125 C 145.95022 106.56644 145.72243 106.96498 145.58398 107.23047 L 143.56055 110.86914 L 140.86914 107.86719 L 144.53711 106.32422 C 145.37161 105.98199 146.07715 105.62673 146.74805 105.26758 z "
           id="path1021" />
      </g>
      <g
         id="g1023"
         style="opacity:1">
        <path
           style="color:#000000;font-style:normal;font-variant:normal;font-weight:600;font-stretch:normal;font-size:21.1667px;line-height:1.25;font-family:'Open Sans';-inkscape-font-specification:'Open Sans Semi-Bold';font-variant-ligatures:normal;font-variant-position:normal;font-variant-caps:normal;font-variant-numeric:normal;font-variant-alternates:normal;font-variant-east-asian:normal;font-feature-settings:normal;font-variation-settings:normal;text-indent:0;text-align:start;text-decoration:none;text-decoration-line:none;text-decoration-style:solid;text-decoration-color:#000000;letter-spacing:0px;word-spacing:0px;text-transform:none;writing-mode:lr-tb;direction:ltr;text-orientation:mixed;dominant-baseline:auto;baseline-shift:baseline;text-anchor:start;white-space:normal;shape-padding:0;shape-margin:0;inline-size:0;clip-rule:nonzero;display:inline;overflow:visible;visibility:visible;isolation:auto;mix-blend-mode:normal;color-interpolation:sRGB;color-interpolation-filters:linearRGB;solid-color:#000000;solid-opacity:1;vector-effect:none;fill:#000000;fill-opacity:1;fill-rule:nonzero;stroke-width:0.264583;stroke-linecap:butt;stroke-linejoin:miter;stroke-miterlimit:4;stroke-dasharray:none;stroke-dashoffset:0;stroke-opacity:1.0;color-rendering:auto;image-rendering:auto;shape-rendering:auto;text-rendering:auto;enable-background:accumulate;stop-color:#000000;stop-opacity:1;stroke:none;"
           d="m 146.6748,129.40436 3.24708,-3.0563 -2.30259,-5.29876 -4.4375,0.31687 -1.03802,-2.38871 16.16832,-0.86186 1.07097,2.46454 -11.662,11.23188 z m 4.94025,-4.50202 3.20832,-2.93803 c 0.21158,-0.20463 0.55203,-0.51034 1.02135,-0.91713 0.47207,-0.40046 0.82075,-0.68721 1.04606,-0.86025 -0.85142,0.16715 -1.80984,0.28688 -2.87526,0.3592 l -4.15522,0.31816 z m 8.48897,-9.63892 c 0.3918,-0.17025 0.71832,-0.18819 0.97956,-0.0538 0.27031,0.13797 0.47137,0.35861 0.60318,0.66194 0.14555,0.33493 0.16295,0.6429 0.0522,0.92393 -0.10803,0.28735 -0.33582,0.50654 -0.68338,0.65757 -0.33493,0.14554 -0.64744,0.16114 -0.93753,0.0468 -0.29009,-0.11435 -0.50654,-0.33582 -0.64933,-0.66442 -0.13181,-0.30333 -0.15278,-0.60225 -0.0629,-0.89674 0.0926,-0.28817 0.32538,-0.51327 0.69822,-0.67529 z m 1.61882,3.72525 c 0.39179,-0.17026 0.71831,-0.18819 0.97956,-0.0538 0.27031,0.13797 0.47137,0.35862 0.60318,0.66195 0.14554,0.33492 0.16431,0.64605 0.0563,0.9334 -0.10802,0.28735 -0.33581,0.50654 -0.68338,0.65757 -0.34124,0.14829 -0.65828,0.16209 -0.95112,0.0414 -0.28652,-0.12341 -0.49981,-0.34625 -0.63986,-0.66854 -0.13181,-0.30333 -0.15277,-0.60224 -0.0629,-0.89673 0.0926,-0.28817 0.32538,-0.51327 0.69822,-0.67529 z"
           id="path1025" />
        <path
           style="color:#000000;font-style:normal;font-variant:normal;font-weight:600;font-stretch:normal;font-size:21.1667px;line-height:1.25;font-family:'Open Sans';-inkscape-font-specification:'Open Sans Semi-Bold';font-variant-ligatures:normal;font-variant-position:normal;font-variant-caps:normal;font-variant-numeric:normal;font-variant-alternates:normal;font-variant-east-asian:normal;font-feature-settings:normal;font-variation-settings:normal;text-indent:0;text-align:start;text-decoration:none;text-decoration-line:none;text-decoration-style:solid;text-decoration-color:#000000;letter-spacing:0px;word-spacing:0px;text-transform:none;writing-mode:lr-tb;direction:ltr;text-orientation:mixed;dominant-baseline:auto;baseline-shift:baseline;text-anchor:start;white-space:normal;shape-padding:0;shape-margin:0;inline-size:0;clip-rule:nonzero;display:inline;overflow:visible;visibility:visible;isolation:auto;mix-blend-mode:normal;color-interpolation:sRGB;color-interpolation-filters:linearRGB;solid-color:#000000;solid-opacity:1;vector-effect:none;fill-opacity:1;fill-rule:nonzero;stroke-width:0.264583;stroke-linecap:butt;stroke-linejoin:miter;stroke-miterlimit:4;stroke-dasharray:none;stroke-dashoffset:0;stroke-opacity:1.0;color-rendering:auto;image-rendering:auto;shape-rendering:auto;text-rendering:auto;enable-background:accumulate;stop-color:#000000;stop-opacity:1;stroke:none;"
           d="M 161.14453 115.0918 C 160.83916 114.93471 160.46411 114.96297 160.05078 115.14258 C 160.04876 115.14346 160.04889 115.1456 160.04688 115.14648 C 159.65472 115.31829 159.38501 115.5696 159.2793 115.89844 L 159.2793 115.90039 C 159.18044 116.22428 159.20523 116.56091 159.34766 116.88867 C 159.50126 117.24216 159.74689 117.49556 160.07031 117.62305 C 160.39438 117.75078 160.74808 117.73037 161.10742 117.57422 C 161.47754 117.41338 161.73913 117.16644 161.86133 116.84375 C 161.9859 116.52765 161.96442 116.17694 161.80859 115.81836 C 161.66653 115.49144 161.44206 115.24365 161.14453 115.0918 z M 161.02344 115.32812 C 161.26654 115.4522 161.4429 115.64409 161.56445 115.92383 C 161.69972 116.2351 161.71216 116.50014 161.61523 116.74609 L 161.61523 116.74805 C 161.52097 116.9988 161.32598 117.19122 161.00195 117.33203 C 160.69144 117.46696 160.42214 117.4779 160.16602 117.37695 C 159.90925 117.27575 159.72182 117.08691 159.58984 116.7832 C 159.46865 116.5043 159.4523 116.24166 159.5332 115.97656 C 159.61272 115.73184 159.80715 115.53647 160.15625 115.38477 C 160.52652 115.22387 160.80633 115.21644 161.02344 115.32812 z M 158.39648 117.97852 L 141.94727 118.85547 L 143.09766 121.50391 L 147.53516 121.1875 L 149.76367 126.31641 L 146.51562 129.37109 L 146.55273 129.45703 L 147.67578 132.03906 L 159.54102 120.61133 L 158.39648 117.97852 z M 158.22656 118.25195 L 159.22461 120.54883 L 147.76562 131.58398 L 146.83398 129.43555 L 150.08008 126.38086 L 147.70312 120.91016 L 143.26562 121.22852 L 142.3418 119.09961 L 158.22656 118.25195 z M 161.85547 118.78711 L 161.66992 118.86719 C 161.27446 119.03904 161.00469 119.29252 160.89844 119.62305 L 160.89844 119.625 C 160.79959 119.94889 160.82437 120.28552 160.9668 120.61328 C 161.11753 120.96015 161.35803 121.2147 161.67578 121.35156 L 161.67773 121.35156 C 162.00496 121.48643 162.36451 121.46763 162.73047 121.30859 C 163.10157 121.14734 163.36455 120.90012 163.48633 120.57617 C 163.60718 120.25466 163.58355 119.9035 163.42773 119.54492 C 163.28567 119.218 163.05924 118.96826 162.76172 118.81641 C 162.50848 118.68678 162.18622 118.75405 161.85547 118.85938 L 161.85547 118.78711 z M 162.64258 119.05273 C 162.88567 119.17681 163.06203 119.37065 163.18359 119.65039 C 163.31885 119.96166 163.33345 120.23119 163.23828 120.48438 C 163.14402 120.73512 162.94904 120.9256 162.625 121.06641 C 162.30921 121.20364 162.03722 121.21317 161.7793 121.10742 C 161.52401 120.99747 161.33835 120.80552 161.20898 120.50781 C 161.08809 120.22959 161.07016 119.96952 161.15039 119.70508 C 161.22942 119.45926 161.42517 119.26156 161.77539 119.10938 C 162.14566 118.94847 162.42546 118.94104 162.64258 119.05273 z M 156.86523 120.05664 C 156.02051 120.22247 155.06678 120.34205 154.00586 120.41406 L 149.66406 120.74609 L 151.56836 125.125 L 151.70508 125 L 154.91406 122.06055 L 154.91602 122.05859 C 155.12353 121.85789 155.46269 121.55325 155.92969 121.14844 L 155.93164 121.14648 C 156.4015 120.74794 156.74955 120.46087 156.9707 120.29102 L 156.86523 120.05664 z M 156.45703 120.37305 C 156.25113 120.53969 156.07353 120.6811 155.75977 120.94727 L 155.75781 120.94727 C 155.28763 121.3548 154.9457 121.66098 154.73047 121.86914 L 151.66211 124.67969 L 150.05664 120.98242 L 154.02539 120.67773 C 154.92545 120.61664 155.70692 120.50191 156.45703 120.37305 z "
           id="path1027" />
      </g>
    </g>
    <g
       id="text849"
       style="font-size:10.5833px;line-height:1.25;font-family:Arial;-inkscape-font-specification:Arial;word-spacing:0px;stroke-width:0.264583" />
    <g
       id="g1029"
       style="opacity:1">
      <path
         style="color:#000000;font-style:normal;font-variant:normal;font-weight:normal;font-stretch:normal;font-size:medium;line-height:normal;font-family:sans-serif;font-variant-ligatures:normal;font-variant-position:normal;font-variant-caps:normal;font-variant-numeric:normal;font-variant-alternates:normal;font-variant-east-asian:normal;font-feature-settings:normal;font-variation-settings:normal;text-indent:0;text-align:start;text-decoration:none;text-decoration-line:none;text-decoration-style:solid;text-decoration-color:#000000;letter-spacing:normal;word-spacing:normal;text-transform:none;writing-mode:lr-tb;direction:ltr;text-orientation:mixed;dominant-baseline:auto;baseline-shift:baseline;text-anchor:start;white-space:normal;shape-padding:0;shape-margin:0;inline-size:0;clip-rule:nonzero;display:inline;overflow:visible;visibility:visible;isolation:auto;mix-blend-mode:normal;color-interpolation:sRGB;color-interpolation-filters:linearRGB;solid-color:#000000;solid-opacity:1;vector-effect:none;fill:#000000;fill-opacity:1;fill-rule:nonzero;stroke-width:0.0579007;stroke-linecap:butt;stroke-linejoin:miter;stroke-miterlimit:4;stroke-dasharray:none;stroke-dashoffset:0;stroke-opacity:1.0;color-rendering:auto;image-rendering:auto;shape-rendering:auto;text-rendering:auto;enable-background:accumulate;stop-color:#000000;stop-opacity:1;stroke:none;"
         d="m 115.94903,146.5589 1.28539,1.2854 c 0.54427,0.54426 0.54427,1.42435 0,1.96283 l -11.2501,11.2559 c -0.54427,0.54427 -1.42436,0.54427 -1.96284,0 l -11.255902,-11.2559 c -0.544267,-0.54426 -0.544267,-1.42436 0,-1.96283 l 1.285396,-1.2854 c 0.550057,-0.55006 1.447518,-0.53847 1.985994,0.0231 l 6.647012,6.97704 v -16.64067 c 0,-0.77007 0.61953,-1.38961 1.38962,-1.38961 h 1.85282 c 0.77008,0 1.38961,0.61954 1.38961,1.38961 v 16.64067 l 6.647,-6.97703 c 0.53848,-0.56743 1.43594,-0.57901 1.986,-0.0231 z"
         id="path1031" />
      <path
         style="color:#000000;font-style:normal;font-variant:normal;font-weight:normal;font-stretch:normal;font-size:medium;line-height:normal;font-family:sans-serif;font-variant-ligatures:normal;font-variant-position:normal;font-variant-caps:normal;font-variant-numeric:normal;font-variant-alternates:normal;font-variant-east-asian:normal;font-feature-settings:normal;font-variation-settings:normal;text-indent:0;text-align:start;text-decoration:none;text-decoration-line:none;text-decoration-style:solid;text-decoration-color:#000000;letter-spacing:normal;word-spacing:normal;text-transform:none;writing-mode:lr-tb;direction:ltr;text-orientation:mixed;dominant-baseline:auto;baseline-shift:baseline;text-anchor:start;white-space:normal;shape-padding:0;shape-margin:0;inline-size:0;clip-rule:nonzero;display:inline;overflow:visible;visibility:visible;isolation:auto;mix-blend-mode:normal;color-interpolation:sRGB;color-interpolation-filters:linearRGB;solid-color:#000000;solid-opacity:1;vector-effect:none;fill-opacity:1;fill-rule:nonzero;stroke-width:0.0579007;stroke-linecap:butt;stroke-linejoin:miter;stroke-miterlimit:4;stroke-dasharray:none;stroke-dashoffset:0;stroke-opacity:1.0;color-rendering:auto;image-rendering:auto;shape-rendering:auto;text-rendering:auto;enable-background:accumulate;stop-color:#000000;stop-opacity:1;stroke:none;"
         d="M 104.07422 135.5 C 103.2886 135.5 102.6543 136.13237 102.6543 136.91797 L 102.6543 153.48633 L 96.058594 146.5625 C 95.509134 145.98947 94.592584 145.97773 94.03125 146.53906 L 92.746094 147.82422 C 92.190615 148.37378 92.188839 149.27283 92.744141 149.82812 L 104 161.08398 C 104.54957 161.63947 105.4486 161.63929 106.00391 161.08398 L 117.25391 149.82812 C 117.80939 149.27855 117.81116 148.37951 117.25586 147.82422 L 115.96875 146.53906 C 115.40747 145.97182 114.49081 145.98356 113.94141 146.5625 L 107.3457 153.48633 L 107.3457 136.91797 C 107.3457 136.13237 106.71139 135.5 105.92578 135.5 L 104.07422 135.5 z M 104.07422 135.55859 L 105.92578 135.55859 C 106.68033 135.55859 107.28711 136.16343 107.28711 136.91797 L 107.28711 153.63086 L 113.98438 146.60156 C 114.51193 146.04564 115.38889 146.0355 115.92773 146.58008 L 117.21484 147.86523 C 117.74808 148.39846 117.7479 149.25972 117.21484 149.78711 L 105.96289 161.04297 C 105.42965 161.5762 104.57036 161.57603 104.04297 161.04297 L 92.785156 149.78711 C 92.251924 149.25388 92.252101 148.39261 92.785156 147.86523 L 94.072266 146.58008 C 94.611046 146.0413 95.488133 146.05145 96.015625 146.60156 L 102.71289 153.63086 L 102.71289 136.91797 C 102.71289 136.16343 103.31966 135.55859 104.07422 135.55859 z "
         id="path1033" />
    </g>
  </g>
</svg>
