<?xml version="1.0" encoding="UTF-8"?>
<svg width="558px" height="132px" viewBox="0 0 558 132" version="1.1" xmlns="http://www.w3.org/2000/svg" xmlns:xlink="http://www.w3.org/1999/xlink">
    <!-- Generator: Sketch 56.2 (81672) - https://sketch.com -->
    <title>plane</title>
    <desc>Created with Sketch.</desc>
    <g id="-Symbols" stroke="none" stroke-width="1" fill="none" fill-rule="evenodd" stroke-linecap="round" stroke-linejoin="round">
        <g id="Footer-/-demo" transform="translate(-6.000000, -296.000000)" stroke="#004F77">
            <g id="demo" transform="translate(-3.000000, 0.000000)">
                <g id="plane" transform="translate(285.000000, 374.500000) rotate(-1.000000) translate(-285.000000, -374.500000) translate(2.000000, 300.000000)">
                    <polygon id="Stroke-1" points="565.766384 3.19423506 513.160937 22.5502402 529.673153 40.4317153 565.766384 3.19423506 492.766384 0.431715326 506.554341 15.3245263"></polygon>
                    <polyline id="Stroke-3" points="506.014749 15.2431926 499.378532 39.2431926 513.378532 22.1846988"></polyline>
                    <path d="M501.006013,39.4691111 L519.545251,29.4768973" id="Stroke-4"></path>
                    <path d="M494.528625,47.6279236 C494.528625,47.6279236 268.499458,15.5048358 242.534643,81.0950354 C232.797838,105.69136 262.958948,125.351581 281.847303,116.686969 C309.221731,104.12956 327.464267,30.1649527 159.001673,65.0366721 L3.45571202,92.3019983" id="Stroke-5" transform="translate(248.992168, 79.265103) rotate(-7.000000) translate(-248.992168, -79.265103) "></path>
                </g>
            </g>
        </g>
    </g>
</svg>