<svg xmlns="http://www.w3.org/2000/svg" viewBox="0 0 42.86 32.3"><defs><style>.cls-1{fill:#324b5b;}</style></defs><title>Typewriter</title><g id="Layer_2" data-name="Layer 2"><g id="Layer_1-2" data-name="Layer 1"><path class="cls-1" d="M6.62,10.58c-.15.22-.34.31-.28.52s.19.09.27,0,.05-.29,0-.55m-2.38.28c.14,0,.19-.09.17-.22s0-.22-.14-.21-.21.1-.2.25a.17.17,0,0,0,.17.18M29.66,31a.89.89,0,0,0,.44-.73c-.3.2-.31.5-.44.73M12.12,11.81a.53.53,0,0,0-.62.2.22.22,0,0,0,0,.18c.06.1.14,0,.21,0a1.32,1.32,0,0,0,.46-.37m-6.69-.67c-.17-.31-.46-.3-.69,0Zm24.4-1.77V8.51a1,1,0,0,0,0,.87M33,11.81c.33,0,.62.21,1-.05-.38-.08-.66-.18-1,.05m-2.82-2c-.12.28-.25.47-.1.69a.16.16,0,0,0,.22,0c.13-.22,0-.4-.12-.66M28.92,7.34c0-.26.34-.28.44-.51,0,0,0-.08,0-.11s-.16,0-.2.06-.37.26-.38.51a1,1,0,0,0,.19.06M11.27,12.25c0-.08,0-.22-.14-.19s-.36,0-.39.23.11.22.25.21a.26.26,0,0,0,.28-.25m-6-3.4a1.34,1.34,0,0,0,0,1,1.38,1.38,0,0,0,0-1m1.11,22c.32,0,.44-.19.54-.4s-.06-.11-.12-.11c-.28,0-.29.25-.4.4s0,.05,0,.11m23.18-.28c-.34,0-.42.32-.54.57a.08.08,0,0,0,.07.12c.31,0,.33-.28.45-.47a.17.17,0,0,0,0-.22m-.55.13c-.24,0-.51-.06-.62.2s.12.26.21.26c.28,0,.25-.31.41-.46M23.48,11.79l.8.58c.08.06.17.12.24,0s0-.19-.1-.23a2.28,2.28,0,0,0-.94-.35m-18.73-1c.14-.11.12-.25.16-.36s.07-.13.15-.11.07.1.07.17-.06.18.07.19.1-.13.12-.21c.05-.24,0-.37-.3-.32s-.46.15-.27.65m6.63.71a1.54,1.54,0,0,1-.07-.58c0-.07,0-.14-.1-.15s-.12.07-.12.14,0,.41,0,.62-.06.25.11.25.24-.12.23-.28m-.56,0c-.06-.19.15-.54-.11-.55s-.11.36-.14.55-.18.51.06.53.13-.33.18-.53m2.52.46c0-.21-.1-.18-.2-.19s-.37.05-.39.27a.32.32,0,0,0,.33.34c.25,0,.14-.31.26-.42M3.41,10.8c.06-.2.53,0,.35-.43s-.41-.17-.62-.12-.16.27-.13.46c.23-.07.16-.46.4-.37s-.15.27,0,.46m27,.5a1.68,1.68,0,0,0,0-.31c-.06-.27-.28-.15-.44-.17s-.22,0-.21.18.1.24.27.22.16,0,.2.1,0,.27.13.24,0-.19,0-.26M12,11.07c-.08-.09.16-.33-.14-.35s-.24.2-.26.37,0,.17,0,.25,0,.24.13.24.25,0,.27-.19a2.52,2.52,0,0,0,0-.31M4.88,9.41c0-.11,0-.22,0-.33s0-.22-.18-.22-.14.13-.14.24a2.91,2.91,0,0,0,0,.37c0,.16-.07.43.18.42s.13-.28.15-.44a.22.22,0,0,0,0,0m24.36-1s-.08,0-.1,0c-.22.24-.45.48-.66.73a.19.19,0,0,0,0,.18c.06,0,.12,0,.17-.07.24-.18.41-.44.69-.58a.11.11,0,0,0,.07-.16.23.23,0,0,0-.2-.14M8.45,15.67h0c0,.12,0,.25,0,.37s0,.21.19.22.16-.11.16-.22,0-.44,0-.66-.06-.22-.2-.21-.15.1-.15.21,0,.19,0,.29m13.93-4c-.77-.18-1,0-1.17.81a.56.56,0,0,0,.46-.46c0-.14.17-.41.32-.25s.27,0,.38-.1m-2,1.26c.28-.07.6-.18.56-.31-.11-.37.11-.53.28-.76.05-.06.15-.17,0-.24a.22.22,0,0,0-.31.1l-.56,1.2M32,9.9a.53.53,0,0,1,0,.39c0,.08,0,.14.09.16a.4.4,0,0,0,.15,0,1.61,1.61,0,0,0,0-.68c-.07-.19-.42-.18-.51-.08a1.09,1.09,0,0,0-.25.82c.29-.16.16-.5.44-.61m-6.48,5.22c.13.18-.16.61.32.65.27,0,.24-.19.2-.34s.09-.6-.35-.62c-.22,0-.19.14-.17.31m3-4c.19-.45,1-.53.79-1.33-.28.51-1,.64-.79,1.33M12.88,12.68c0-.15,0-.2-.07-.23a.17.17,0,0,0-.23,0c-.15.24-.41.37-.6.57s-.15.18,0,.27.26.25.35.13c.19-.28.4-.56.56-.78M29.47,8.92a2.11,2.11,0,0,0-1,1.42c.44-.44,1-.64,1-1.42m-13.36,2.9c-.18,0-.38-.09-.43.1a4.34,4.34,0,0,1-.45.79c-.06.12-.21.27,0,.38s.3,0,.38-.18c.15-.35.31-.7.49-1.09m1.13.48c0-.1,0-.15-.1-.15s-.3-.08-.37.08-.23.55-.34.83a.15.15,0,0,0,.12.22c.08,0,.19.08.23,0,.17-.33.32-.66.47-1m5.22-.18a4.64,4.64,0,0,0,.79,1.31c.12.16.26.1.38,0s0-.23-.07-.29a7.52,7.52,0,0,1-1.1-1M11.59,13a.34.34,0,0,0,.26-.13,1.48,1.48,0,0,1,.45-.37c.1,0,.24-.14.12-.29a.23.23,0,0,0-.33,0,1.9,1.9,0,0,1-.59.3c-.12,0-.31.08-.25.27s.21.21.34.26m5.12-1.14c-.14-.07-.31-.08-.34,0-.18.4-.54.7-.64,1.15,0,.11,0,.2.11.23s.29.07.31-.1a5.61,5.61,0,0,1,.56-1.28m-2.53,1.29c0-.12-.11-.12-.18-.15a.2.2,0,0,0-.28.1l-.41.77a.18.18,0,0,0,.09.27c.1,0,.21.11.3,0,.25-.29.25-.7.47-1m5.65-1.42c-.21,0-.37,0-.46.18s-.29.62-.43.94c0,.1-.16.25,0,.3s.39,0,.39-.14a4.78,4.78,0,0,1,.45-1.28M13.57,13c0-.16-.09-.18-.16-.21s-.22-.12-.3,0a4.1,4.1,0,0,0-.5.71c0,.09-.08.18,0,.26s.28.18.33.12c.23-.29.42-.61.6-.88m7.11-1.32c-.45,0-.51,0-.68.32s-.2.45-.3.68-.17.29,0,.36a.34.34,0,0,0,.42-.18c.19-.38.37-.77.57-1.18m2.08.26A3.52,3.52,0,0,0,23.85,13c.15.12.22,0,.3-.1s.08-.19,0-.28a2.58,2.58,0,0,0-1.36-.72M22,14.17a.24.24,0,0,0,.22-.34c-.17-.33-.36-.65-.55-1a.21.21,0,0,0-.31-.1c-.13.07-.1.19-.05.29.16.34.33.67.5,1,0,.07.08.15.19.12M5,30.56a1.22,1.22,0,0,1,.06-.17c.19-.34.09-.55-.31-.63-.14,0-.2,0-.17.14.07.33.07.7.45.87s.48-.15.66-.34.22-.14.11-.25-.25-.06-.36.06-.16.33-.42.32m11.69-15.7c.15,0,.26,0,.27-.23a4.35,4.35,0,0,1,.14-.69c0-.18,0-.3-.19-.33s-.3,0-.34.18-.14.51-.2.76,0,.34.31.31m.67-1.49s.2,0,.22-.06a5.13,5.13,0,0,0,.48-1c0-.1,0-.16-.1-.17s-.43-.1-.52.22a3.53,3.53,0,0,1-.31.67c-.12.22,0,.3.23.29m-.2,1c0,.35.1.56.49.52s.17-.35.19-.54a3.74,3.74,0,0,0,0-.49c0-.15,0-.24-.2-.25s-.28,0-.31.2l-.12.56m-13-6c0-.21,0-.41,0-.62a.15.15,0,0,0-.15-.17c-.12,0-.13.08-.13.17A11.52,11.52,0,0,0,4,10.09c0,.13.11.14.21.12s.14-.06.1-.17a6.71,6.71,0,0,1-.13-1.69m10.72,5.09c0-.17-.11-.15-.18-.19a.28.28,0,0,0-.4.06,4,4,0,0,0-.46.83c-.06.11-.06.22.07.28s.32.18.42,0a11.43,11.43,0,0,0,.54-1m.37-.09a.23.23,0,0,0-.23.14l-.37.73c-.14.28,0,.4.26.49s.24-.12.3-.26.21-.45.31-.67,0-.43-.27-.43M20.93,13c-.14.08-.32.1-.26.35a5.69,5.69,0,0,0,.28.91c.15.34.38.11.56.06s.11-.24,0-.36a5.47,5.47,0,0,1-.48-.87c0-.07,0-.13-.14-.1m-1.81-1.12c-.18-.06-.34-.09-.47,0a2.92,2.92,0,0,0-.58,1c0,.11-.22.29,0,.34s.52.09.57-.15c.09-.44.37-.79.5-1.22m-3.25,2.95c.13,0,.24,0,.28-.17s.14-.5.22-.74.12-.31-.15-.4-.35,0-.43.21-.18.4-.26.6c-.15.36-.05.51.35.51m7.24-1.16a.36.36,0,0,0,0-.08l-.87-1.21c-.08-.11-.17,0-.25,0s-.18.12-.09.26c.23.37.45.75.68,1.13a.21.21,0,0,0,.32.07c.09-.05.21-.07.24-.2m-4.67,1.17c.56,0,.56,0,.4-.53a2.08,2.08,0,0,1-.13-.43c0-.27-.09-.39-.4-.35s-.28.25-.26.45a3.68,3.68,0,0,1,.09.57c0,.28.09.34.3.29M19,13.77A1,1,0,0,0,19,14a5,5,0,0,1,.16.55c0,.32.26.26.46.24s.28-.15.2-.38a4,4,0,0,1-.11-.69c0-.22-.12-.34-.38-.31s-.41.08-.33.36M6.06,7.9c.18-.09.55.15.49-.25s.15-.74-.34-.79-.69.16-.69.79c0,.41.38.11.54.25m14.26,6.74c.32,0,.52-.11.48-.26-.1-.33-.22-.65-.34-1s-.3-.12-.46-.11-.2.18-.18.31a6.37,6.37,0,0,0,.16.76c0,.17.16.29.35.26M3.64,9.85c0-.69,0-1.38,0-2.06,0-.21,0-.47.28-.47s.5,0,.48.39c0,.16.13.16.23.17s.18-.07.2-.2a1.34,1.34,0,0,0-.32-.83s-.1-.08-.14,0c-.29.3-.76.24-1.06.53-.14.13-.22.21,0,.32s.16.24.13.39a4.75,4.75,0,0,0,.2,1.8M19.34,11l0,.08c0,.14-.22.34,0,.4s.26-.17.27-.36a.15.15,0,0,1,.2-.15c.12,0,.08.13.06.2s-.06.22.12.23.16-.07.16-.18a.32.32,0,0,1,.1-.26c.09-.09.18-.09.2.06s-.17.3.1.31.09-.19.15-.29.06-.19.15-.18.12.13.11.23,0,.23.2.23.29-.06.29-.26,0-.35-.28-.33c-.69,0-1.39.07-2.08.06-.44,0-.48.22-.44.55,0,.09,0,.21.11.23s.2-.07.23-.19.06-.37.3-.38M30.71,6.5c-.11-.1-.31,0-.3-.2s.19-.1.3-.12.22,0,.25-.16-.33,0-.31-.21.2-.07.31-.08.17-.08.15-.19a7.25,7.25,0,0,1,.11-1.11c0-.18.09-.45-.16-.49s-.35.23-.41.45a.41.41,0,0,0,0,.21,1.6,1.6,0,0,1-.37,1.53.7.7,0,0,0-.07.78c.05.09.34,0,.49-.12-.1-.13-.28,0-.36-.1.09-.16.25-.06.36-.19M31,8.82c0-.3,0-.61,0-.91A2.71,2.71,0,0,0,31,7.37a.27.27,0,0,0-.34-.22c-.18,0-.13.18-.11.3,0,.32,0,.64,0,1,.07.51-.13,1,.13,1.54.05.1,0,.2.19.18S31,10,31,9.9a4,4,0,0,1,0-1.08m-15.6,3.12c0-.15-.13-.15-.24-.13s-.32.23-.38.45,0,.31-.17.27-.07-.22,0-.35a1.23,1.23,0,0,1,.1-.18c.09-.19,0-.2-.16-.2-.32,0-.34.28-.46.46s-.05.18-.16.15-.08-.15,0-.24a1.68,1.68,0,0,1,.08-.19c0-.08.09-.16,0-.21a.21.21,0,0,0-.24,0,.94.94,0,0,0-.3.53c0,.21.2.18.32.25a2.6,2.6,0,0,0,.53.24c.21.07.46.28.65.1a2.09,2.09,0,0,0,.54-.94m-9.76-.81a1.73,1.73,0,0,0,1-1.33c0-.16.05-.39-.08-.47s-.23.17-.36.26-.11.15-.2.07,0-.15,0-.22.11-.1.14-.15.52-.13.41-.4-.42,0-.64-.07H5.85c-.33,0-.35.14-.25.4.2-.06.3-.31.56-.22-.66.73-.72,1-.45,1.64.3-.18.24-.68.72-.81a5.7,5.7,0,0,1-.78,1.31M24.93,8.54a1.55,1.55,0,0,0,.06-1,.26.26,0,0,0-.22-.09l-1.46,0c-.14,0-.29.05-.28.24a2.2,2.2,0,0,0,.13.92l.15-.68c0-.09,0-.22.16-.19s.1.15.09.24-.06.3-.08.45a.15.15,0,0,0,.13.18c.13,0,.11-.09.12-.17a3.37,3.37,0,0,1,0-.45c0-.08.07-.2.19-.17s.08.13.1.21-.08.36,0,.58c.11-.1.07-.21.09-.29s-.12-.48.18-.45.09.29.08.46-.06.26.08.28.11-.15.13-.24,0-.25,0-.37,0-.14.12-.14.11.07.12.15-.09.38,0,.56m-14.06.27c.14-.08.09-.19.09-.28s0-.29.14-.29.11.18.11.29,0,.14,0,.21a.1.1,0,0,0,.11.1c.06,0,.11,0,.11-.09s-.08-.43.15-.44,0,.34.21.46a1.56,1.56,0,0,0,0-1c0-.09-.1-.12-.19-.13l-1.53-.1c-.12,0-.32,0-.3.15a2.21,2.21,0,0,0,.26,1,1.66,1.66,0,0,0,0-.4.14.14,0,0,1,.14-.17.13.13,0,0,1,.14.16c0,.07,0,.14,0,.2s0,.23.12.22.09-.14.08-.23a.84.84,0,0,1,0-.21c0-.1.07-.2.19-.18s.1.12.1.2-.08.33.08.49M2.42,6.24c.25,0,.05.31.27.29s.2-.18.25-.31A1.25,1.25,0,0,1,3,6c0-.08.06-.23.18-.18s.05.18,0,.29-.17.25-.06.43a.55.55,0,0,0,.25-.33c0-.13.13-.16.21-.05s0,.27.23.16S4,6.13,4,6s-.07-.44-.27-.41c-.37.07-.82-.15-1.09.21A3.64,3.64,0,0,1,.47,7.23c-.18,0-.22.17-.09.31a.56.56,0,0,0,.69-.11c.06-.11.05-.32.25-.26s-.09.22,0,.31c.36-.06.26-.44.41-.64.29.28.37.26.51-.11.06-.15.09-.31.14-.46M17,11.44c.16-.14.27-.26.4-.36s.14-.12.22,0a.12.12,0,0,1-.07.19c-.19,0-.17.31-.4.33s-.12.18-.08.25.17,0,.23,0,.26-.33.39-.48.14-.16.24-.06,0,.15,0,.22-.12.11-.17.18-.09.12-.08.18.13.08.2.09c.61.07.61.06.62-.57q0-.31,0-.62c0-.2-.09-.3-.3-.32a5.37,5.37,0,0,0-1.15.12c-.12,0-.15.09-.13.21s.06.44.1.71m6.83.05,0,0c.1-.18,0-.56.25-.53s0,.35,0,.54.3.33.47.45.26-.09.28-.2c.09-.5.43-.53.83-.49a.41.41,0,0,0,.38-.1c-1.27-.75-2.61-.3-3.92-.43a1,1,0,0,1,0,.24c0,.25.13.33.34.36s.19-.17.21-.31.06-.17.16-.14.11.12.09.2,0,.31.2.33.16-.14.16-.25,0-.14.11-.14.14.07.13.16,0,.31.2.35M8.29,8.41l1,.06c.36,0,.44-.1.3-.43s-.22-.13-.35-.14c-1.28-.1-2.54.23-3.82.21-.23,0-.24.17-.25.31s.19.14.29.14a24,24,0,0,1,2.78-.15m5,2.28v0h-.91c-.08,0-.24,0-.21.11s-.1.39,0,.56.14,0,.16-.06.05-.19.08-.28,0-.23.15-.2.08.16.06.25-.06.34.21.3.09-.17.1-.27.06-.23.19-.23.12.14.09.24,0,.29.24.25.1-.15.08-.24,0-.27.18-.26.1.15.1.25,0,.08,0,.12,0,.2.16.2.11-.1.11-.18,0-.11,0-.17.05-.2.17-.19.1.14.08.23,0,.33.16.36.11-.18.15-.28.09-.31.26-.25,0,.2,0,.3-.05.23.09.27.23.06.26-.11a2.44,2.44,0,0,0,0-.25c0-.12,0-.29.16-.28s.14.17.13.3-.1.32.15.35.21-.14.2-.29,0-.21.15-.2.12.11.1.19c0,.27.13.29.32.31s.22-.09.16-.2.13-.45-.23-.47l-3.15-.2m-10.6.67c-.26-.13-.47,0-.7,0s-.21,0-.22-.13.08-.15.16-.16l.54-.05c.08,0,.2,0,.19-.11s-.13-.13-.23-.11l-.49.1c-.1,0-.21,0-.23-.13s.09-.15.19-.17a4.59,4.59,0,0,1,.54-.06c.17,0,.22-.08.19-.23s-.14-.12-.25-.08a2.1,2.1,0,0,1-.4.11c-.12,0-.28.05-.32-.1s.15-.17.25-.2a1.09,1.09,0,0,1,.37,0c.29,0,.35-.13.34-.38s0-.53-.35-.53c-.14,0-.28,0-.42,0-.39,0-.57.14-.56.52,0,.79,0,1.58.05,2.37,0,.23.11.38.36.35l.88-.13a.92.92,0,0,0-.63,0c-.13,0-.29,0-.3-.12s.15-.17.28-.17h.42c.12,0,.26,0,.29-.16-.2-.12-.38,0-.56,0s-.37,0-.38-.16.21-.15.35-.17.44.08.64-.12M27.84,8.21V8.15c.73,0,1.47,0,2.2,0,.26,0,.27-.13.23-.31s0-.33-.27-.27a5.23,5.23,0,0,1-1.41,0c-1-.08-2,0-2.95-.06-.2,0-.4,0-.36.31s.12.38.42.37c.71,0,1.41,0,2.12,0M32.9,9.3a7.51,7.51,0,0,1,1-.15c.27,0,.35-.07.31-.35-.07-.5-.12-.57-.62-.52-.21,0-.41.08-.61.11s-.3.15-.29.38a6.46,6.46,0,0,1,0,1.1,13.28,13.28,0,0,0-.07,1.55.27.27,0,0,0,.19.25c.18.08.09-.12.16-.15a.55.55,0,0,1,.23-.06h.75c.14,0,.24,0,.25-.19s-.09-.19-.24-.18-.5,0-.75,0c-.09,0-.22,0-.24-.09s.12-.15.22-.18a3.16,3.16,0,0,1,.79,0c.13,0,.22,0,.21-.19s-.12-.12-.21-.12l-.75,0c-.12,0-.28,0-.29-.14s.15-.14.25-.15h.79c.11,0,.25,0,.25-.13S34.06,10,34,10l-.58.06c-.17,0-.44.13-.47-.09s.25-.17.41-.19l.5,0c.16,0,.35,0,.34-.24s-.22-.13-.34-.15-.56.13-.92-.1M20.55,31.15h.79c2.1,0,4.19-.07,6.28-.1.14,0,.39,0,.38-.14s-.25-.09-.38-.09c-1.65.1-3.3,0-4.95.06-2.12.08-4.24-.18-6.36-.16-1.43,0-2.86-.06-4.28-.14s-3,0-4.53-.22c-.19,0-.36,0-.36.24s.23.11.34.11c1.51,0,3,0,4.53.12a80.56,80.56,0,0,0,8.52.31M18,8.41c1.18.08,2.83-.18,4.47-.06.34,0,.37-.1.35-.36,0-.42-.34-.34-.59-.32a37.94,37.94,0,0,1-6.23,0,21.29,21.29,0,0,0-3.48.14c-.22,0-.41,0-.38.36s.26.23.43.23H18M6.93,11c.18,0,.18-.14.23-.22s.1-.36.29-.27,0,.22,0,.33-.09.2,0,.26.17,0,.23-.13.07-.38.32-.42c.05.14,0,.23-.06.33s-.08.17,0,.22a.21.21,0,0,0,.26-.06,2.36,2.36,0,0,0,.17-.28c.09-.15.18-.3.39-.31,0,.14-.07.2-.12.28s-.25.2-.11.34.26,0,.39,0,.19-.15.25-.26a2.72,2.72,0,0,1,.26-.37.16.16,0,0,1,.15,0c.07,0,0,.09,0,.14l-.13.27a12.32,12.32,0,0,1,4.8-.34l2,.17c.12,0,.32.08.35-.11s.27-.29.49-.31.67-.05,1-.06.52-.07.6.29c0,.14.15.06.24.06,2-.09,3.91-.16,5.87-.09a2,2,0,0,1,1.37.4c.1.09.16.06.22-.06s.12-.24.24-.15,0,.18-.09.25-.11.17,0,.25.19,0,.26-.08.06-.1.09-.14.21-.29.36-.16-.09.19-.16.28l-.12.17c.19.11.26,0,.36-.13s.24-.18.28,0,.31.13.45.14.14-.19.14-.32c0-.39,0-.78,0-1.17s0-.75,0-1.18c-.31.15-.22.59-.52.47s.06-.28.08-.43a.22.22,0,0,0,0-.08c-.19,0-.25.13-.34.25s-.07.46-.3.33.05-.3.13-.44a.58.58,0,0,0,0-.12.5.5,0,0,0-.66.34c0,.11-.1.29-.24.23s0-.21,0-.31.21-.21,0-.3a.25.25,0,0,0-.35.12c-.08.15-.16.29-.25.43s-.09.23-.24.14,0-.19,0-.29.24-.19.25-.39c-.17,0-.38-.12-.44.16s-.34.43-.47.67a.11.11,0,0,1-.17.06.14.14,0,0,1,0-.19c.08-.12.17-.22.27-.36-.27,0-.34.19-.47.3s-.07.42-.3.27.06-.27.11-.4,0-.07,0-.11-.27.13-.38.25-.19.39-.34.28.07-.29.15-.43,0,0,0-.09c-.34,0-.4.24-.52.44s-.1.2-.21.14S23,9.3,23,9.22,23.18,9,23,8.88s-.26,0-.33.15-.1.28-.26.14,0-.21.08-.31.2-.12.05-.22a.17.17,0,0,0-.25.08,3.33,3.33,0,0,1-.18.33c-.05.08-.13.18-.23.13s-.05-.17,0-.26.2-.17.08-.32a1.22,1.22,0,0,0-.38.31c-.1.09-.1.39-.28.28s0-.29.1-.42,0-.07,0-.13h-.26c-.5,0-1.09-.16-1.29.57a.14.14,0,0,1-.21.07c-.1-.07-.07-.16,0-.25s.24-.14.25-.33c-.39-.14-.62.07-.83.35-.06.08-.11.23-.25.12s0-.19.07-.27.11-.09.07-.18c-.26-.12-.35.13-.52.24s-.12.43-.32.25.09-.29.19-.43,0-.05,0-.12c-.35,0-.47.28-.61.52-.05.09-.11.19-.22.13s-.06-.19,0-.29.24-.16.23-.32c-.29-.09-.51,0-.6.29a.77.77,0,0,1-.16.24c0,.05-.1.11-.17.07s0-.12,0-.19.19-.24.19-.42a.63.63,0,0,0-.7.31c-.06.12-.12.26-.29.26a.12.12,0,0,1-.09-.08c0-.17.11-.24.21-.33a.39.39,0,0,0,.06-.1c-.37-.2-.5.08-.67.3s-.08.29-.25.19,0-.21.06-.31.16-.11.06-.19a.2.2,0,0,0-.27,0c-.06.06-.1.13-.15.2s-.17.51-.39.37.16-.31.18-.51c-.26-.12-.39,0-.53.21s-.24.49-.42.35.12-.33.21-.49a.29.29,0,0,0,0-.09c-.21,0-.39-.09-.48.19a1.54,1.54,0,0,1-.26.38c0,.06-.09.16-.19.09a.14.14,0,0,1,0-.22l.38-.46a.77.77,0,0,0-.21,0,.85.85,0,0,0-.61.56c0,.11-.13.21-.26.11s0-.17,0-.26.25-.18.21-.38c-.2,0-.36,0-.39.25a.73.73,0,0,1-.14.34c-.08.1-.15.36-.32.22s.07-.24.14-.36,0,0,0-.08a.42.42,0,0,0-.36.17c-.11.13-.16.45-.33.35s.18-.3.12-.52c-.28,0-.41.16-.52.38s-.1.2-.22.1,0-.16,0-.24.21-.12.11-.27-.27.11-.36.22-.13.44-.36.25.1-.29.17-.43a.28.28,0,0,0,0-.09c-.16,0-.32-.09-.45.1s-.17.35-.32.24.07-.25.13-.37.08-.08,0-.17c-.34-.11-.66-.13-.87.26,0,.08-.13.14-.19.22s-.12.18-.22.1,0-.14.06-.2l.24-.4c-.18-.07-.28-.08-.38.11a2.74,2.74,0,0,1-.42.51c0,.06-.08.18-.18.12s-.06-.18,0-.25.3-.33.46-.51a1.84,1.84,0,0,0-.71,0c-.49,0-.49,0-.29.47L7.12,9c.08-.1.14-.3.3-.18s0,.25-.11.3c-.74.53-.15,1.28-.37,1.9m10.4,5.8a12.94,12.94,0,0,0,3-.24A10.77,10.77,0,0,0,22.68,16a6.52,6.52,0,0,1,2.42-.77c.17,0,.23-.06.19-.22s-.14-.42.21-.45c.52,0,.78.05.78.37s.11.28.32.29a10,10,0,0,1,1.58,0c.74.16,1.14-.18,1.06-.94A17.73,17.73,0,0,1,29.17,12c0-.43-.17-.51-.54-.5-1,0-1.94.06-2.91.05a.63.63,0,0,0-.66.41,4.93,4.93,0,0,1-1.34,1.76,7.47,7.47,0,0,1-3.22,1.14,12.77,12.77,0,0,1-4.83.18,8.8,8.8,0,0,1-2-.44,12,12,0,0,1-2.36-1.39A2.63,2.63,0,0,1,10.27,12a.74.74,0,0,0-1-.58,3.49,3.49,0,0,1-.83,0H6c-.1,0-.23,0-.24.15s-.09.65-.1,1c0,.71.11,1.41.07,2.12,0,.49.27.74.83.78a11.19,11.19,0,0,0,1.2,0c.22,0,.66.17.45-.37a.1.1,0,0,1,0-.07A3.12,3.12,0,0,1,8.95,15c.18,0,.1.23.09.35s0,.34.25.3a7.65,7.65,0,0,1,3.78.49,9.89,9.89,0,0,0,4.28.71M28.17,4.34c-.16-1.09.08-2.19-.09-3.28a.44.44,0,0,0-.36-.42,10.76,10.76,0,0,0-1.6-.2A21.59,21.59,0,0,0,22.39.27c-1.15,0-2.3,0-3.45,0-2,0-4,0-6,.15A39.76,39.76,0,0,1,8.63.67c-.65,0-1.3.1-2,.14-.23,0-.3.1-.28.34.1,1.24.17,2.48.26,3.72.07.83,0,1.66.11,2.49,0,.35.12.5.52.39a4.12,4.12,0,0,1,1.85-.13c.18,0,.39.07.45-.21,0-.11.15-.12.24-.12.69,0,1.39.07,2.08.12.17,0,.28.2.49.15a15.73,15.73,0,0,1,3-.18c1.14,0,2.27.19,3.41.12A19.82,19.82,0,0,0,23,7.18a3.93,3.93,0,0,1,1.73-.05,3.38,3.38,0,0,0,.84.14,15.44,15.44,0,0,1,2.37,0c.2,0,.31,0,.3-.24-.05-.9,0-1.81-.08-2.7m3.76,24.51a1.37,1.37,0,0,0,.54-1.2,29.43,29.43,0,0,0-1-7.36A13.18,13.18,0,0,1,31,17.15a2.32,2.32,0,0,0-.78-2,.47.47,0,0,1-.16-.33,11.1,11.1,0,0,1,0-2.31,2.34,2.34,0,0,0-.06-.83c0-.25-.23-.2-.39-.2s-.22.12-.21.28c.06.85,0,1.71.09,2.57a1,1,0,0,1-1,1.14c-.59,0-1.19,0-1.78,0-.22,0-.39,0-.36.31a.21.21,0,0,1-.12.24.68.68,0,0,1-.86-.37c0-.07,0-.14-.13-.12-.42.12-.88-.07-1.27.14a12.84,12.84,0,0,1-1.94.78,14.4,14.4,0,0,1-4.39.62,12.2,12.2,0,0,1-4.72-.8,8.23,8.23,0,0,0-1.39-.37,8.88,8.88,0,0,0-1.73,0c-.33,0-.72-.12-.69.44a.16.16,0,0,1-.06.11,10.18,10.18,0,0,0-1,1c.07-.27.06-.27.48-.64.17-.15.29-.26-.05-.32-.16,0-.14-.15-.14-.26,0-.5,0-.54-.53-.51a10.18,10.18,0,0,1-1.46,0c-.5,0-.78-.25-.78-.64,0-1-.19-2-.09-3,0-.17.05-.33.06-.5s-.15-.2-.28-.21S5,11.47,5,11.6c.08,1-.07,2,.07,3a.67.67,0,0,1-.23.64.82.82,0,0,0-.29.75,3.81,3.81,0,0,1-.17,1.34c-.34,1.4-.72,2.79-1,4.2-.31,1.57-.57,3.15-.78,4.73a2.33,2.33,0,0,0,.67,2,5.6,5.6,0,0,1,.3-.49c.11-.14.21-.43.41-.29s-.12.26-.22.38c-.45.56-.4.72.16,1.11A7.78,7.78,0,0,0,8.4,30.14c.15,0,.24,0,.28-.19a1,1,0,0,1,.3-.54c.06-.05.14-.12.22-.05s0,.15,0,.22a.94.94,0,0,0-.29.59l1,.06c.26,0,.43,0,.52-.32s.24-.35.52-.31l-.17.19c-.1.12-.32.27-.2.4s.39.06.54-.13.17-.18.25-.28a.25.25,0,0,1,.34-.09l-.39.53a.44.44,0,0,0,.6-.14c.14-.16.28-.44.63-.34-.15.19-.33.29-.38.48.69.53.87-.4,1.37-.54,0,.31-.33.37-.34.6.35.16.62.14.81-.23a.26.26,0,0,1,.37-.15c0,.18-.37.27-.17.44s.37,0,.49-.21l0-.07c.07-.08.14-.22.26-.12s0,.16-.08.23-.09.13-.08.18.14.06.21.07c.26,0,.35-.17.49-.32s.13-.13.21-.07,0,.14,0,.2a1.51,1.51,0,0,0-.09.16c.32,0,.61.11.76-.26,0-.11.14-.27.27-.18s0,.21-.08.3-.12.1,0,.17a.14.14,0,0,0,.19,0c.13-.12.25-.25.38-.38s.16-.21.31-.09a2.63,2.63,0,0,0-.18.23c0,.07-.17.15-.08.24s.21.05.3,0,.12-.15.2-.2a.12.12,0,0,1,.2.05c.18.32.33.33.56.06s.2-.28.39-.2-.31.22-.11.36.3,0,.38-.23.15-.25.3-.15-.24.28,0,.41.29-.07.39-.21.18-.24.38-.16c0,.15-.2.21-.18.35.57.33.58-.58,1-.46,0,.1-.06.16-.1.22s-.2.15-.13.27.2.07.31.08.18-.09.24-.19a.7.7,0,0,1,.65-.44c0,.14-.12.17-.18.24s-.3.21-.21.36.33.06.5,0,.11-.09.15-.14.22-.47.44-.33-.2.25-.16.44a.64.64,0,0,0,.85-.23.54.54,0,0,1,.59-.3c-.14.21-.38.29-.41.55.33,0,.61.1.75-.32a.46.46,0,0,1,.53-.31c-.05.26-.39.34-.37.62.31.11.48,0,.63-.29s.2-.5.58-.43a5.66,5.66,0,0,0-.32.47c0,.08-.19.19,0,.27a.24.24,0,0,0,.33-.07l.34-.52c.07-.11.13-.24.37-.2l-.42.76c.5.17.54-.24.72-.48s.18-.4.38-.28-.09.25-.13.38a.76.76,0,0,1-.11.18c-.15.21,0,.26.16.25l1.28-.11a7.74,7.74,0,0,0,3.1-1,1.68,1.68,0,0,0,.7-.63ZM5.19,31.14c-.26-.1-.57-.12-.71-.44,0-.11-.2-.08-.3-.08l-1.07.09c-.1,0-.21,0-.24-.09s.1-.15.18-.16l1-.06c.17,0,.39,0,.34-.29S4.15,29.91,4,30a4.63,4.63,0,0,1-.53.07c-.09,0-.18,0-.19-.11s.07-.17.17-.18a2.19,2.19,0,0,0,.88-.13c-.14-.32-.42-.3-.69-.31-.11,0-.22,0-.33,0s-.18,0-.19-.1.09-.13.17-.14l.36,0c-.07-.23-.27-.31-.4-.46a2.69,2.69,0,0,1-.83-2.32A67.94,67.94,0,0,1,4.1,17.39a5.18,5.18,0,0,0,.26-1.72.6.6,0,0,1,.28-.61.32.32,0,0,0,.16-.35c-.09-.56,0-1.14-.08-1.82-.11.3-.24.43-.48.38a.36.36,0,0,1-.33-.36c0-.05,0-.14-.06-.14-.54,0-.31-.49-.43-.75a.23.23,0,0,1,.19-.34c.21,0,.2-.14.21-.28s-.08-.24-.24-.28c-.5-.11-.59-.05-.6.45a3.28,3.28,0,0,0,0,.37c0,.56,0,.59-.52.62-.26,0-.52.05-.78.09s-.52-.12-.53-.46a5.91,5.91,0,0,1,0-.67A7.91,7.91,0,0,0,1,9.82c-.09-.71.14-1,.86-1H2c.84,0,.83,0,.91.83,0,.11-.12.33.14.3s.19-.21.16-.36a5.9,5.9,0,0,1-.1-1.49s0,0,0,0c-.22-.33-.56-.66,0-1A.5.5,0,0,0,3,6.83c-.09-.07-.17,0-.25.08a4.4,4.4,0,0,1-1.37.85,1.33,1.33,0,0,1-.93.06C0,7.69,0,7.63,0,7.16a.23.23,0,0,1,.24-.23A2.85,2.85,0,0,0,2.2,5.78a1.91,1.91,0,0,1,1.61-.51.6.6,0,0,1,.42.53,1.46,1.46,0,0,0,.57,1,1,1,0,0,1,.29.8,1.18,1.18,0,0,0,.06.24c.17-.09.09-.21.09-.3,0-.6.28-.91.87-.94.25,0,.28-.09.29-.31a31.76,31.76,0,0,0-.23-4.57,7.42,7.42,0,0,0,0-.95c0-.18.15-.17.26-.18C7.62.5,8.8.37,10,.37s2.66-.15,4-.24C16,0,18,.11,20.07.07,21.36,0,22.65,0,23.94,0s2.35.14,3.53.23a2.61,2.61,0,0,1,.88.35c.07,0,.08.06.08.15,0,1.11-.06,2.22,0,3.33,0,.65.07,1.3.06,2,0,.18,0,.33.23.29.77-.15,1,.26,1,.93,0,0,0,0,.08,0s.06-.2.06-.3a1.76,1.76,0,0,1,.41-1.43c.22-.22.13-.55.11-.84,0-.6.11-.88.52-1s.53,0,.58.38a6.9,6.9,0,0,1-.08,1.07,2.22,2.22,0,0,0,0,.49.44.44,0,0,1-.16.48.72.72,0,0,0-.18,1,1.75,1.75,0,0,1,.15,1,9.06,9.06,0,0,0,0,1.08.28.28,0,0,0,0,.08c.05.18.22.14.31.1.27-.13.63.21.85-.15,0,0,0-.06,0-.08.06-.3-.17-.74.15-.89A2.79,2.79,0,0,1,34,8c.32,0,.42.3.43.58,0,.59,0,1.19,0,1.78a10,10,0,0,1-.07,1.12c-.09.63-.45.85-1.06.68l-.24-.07c-.81-.25-.81-.13-.78-1.08,0-.22,0-.35-.29-.29-.09,0-.2,0-.29,0s-.48-.07-.48.18-.21.6.27.74c.28.08.25.9,0,1a.5.5,0,0,0-.27.28c-.09.2-.28.2-.46.18a.29.29,0,0,1-.28-.34c0-.1,0-.26-.14-.22s-.12.17-.1.28a7.35,7.35,0,0,1,.05,1.48,1,1,0,0,0,.43.93,1,1,0,0,1,.43.77,17.13,17.13,0,0,0,.38,3c.21,1.13.55,2.23.72,3.36,0,.24.14.31.4.34a11.63,11.63,0,0,0,3.14-.21c.22,0,.6-.15.62.1s-.36.16-.58.18c-.54.06-1.08.09-1.61.19a5.8,5.8,0,0,1-1.53,0c-.13,0-.29-.07-.29.17s.13.22.28.2c.79-.08,1.57-.16,2.37-.19s1.55-.09,2.33-.13c.09,0,.23-.06.24.07s-.13.15-.24.16l-1.58.09-3,.22c-.11,0-.29,0-.28.15s.19.2.35.18c.75-.07,1.49-.17,2.24-.21,1.59-.09,3.18-.15,4.77-.34.11,0,.25-.06.25.11s-.13.15-.25.16c-1.88.23-3.76.25-5.65.36-.47,0-.94.1-1.4.16-.12,0-.26,0-.23.22s.17.15.29.14l6.65-.48c.73-.05,1.47,0,2.23-.11-.08.28-.27.27-.44.28l-2.58.12c-1.86.11-3.7.35-5.56.39h-.08c-.15.06-.43,0-.4.24s.28.13.43.11c1.1-.09,2.19,0,3.29-.06s2-.12,3-.24,1.94,0,2.91-.16c.12,0,.3,0,.31.13s-.2.17-.32.17c-.72,0-1.44,0-2.16.09-2.19.14-4.38.32-6.57.28a3.69,3.69,0,0,0-.62.08.27.27,0,0,0-.26.35c0,.22.18.22.34.2,1.31-.13,2.64-.09,4-.16l5-.31.66-.07c.09,0,.18,0,.2.11s-.08.16-.17.19h-.12c-2.2.06-4.38.35-6.59.33-.94,0-1.88.07-2.82.12-.16,0-.42-.06-.4.27s0,.28.29.27c2.73-.13,5.46-.26,8.2-.26.46,0,.91,0,1.37-.06.11,0,.29-.06.28.13s-.16.11-.27.11c-3.12.1-6.24.11-9.36.3h-.17c-.17,0-.35,0-.33.28s.14.29.37.27c.55-.05,1.11-.07,1.66-.12,2.16-.17,4.33-.1,6.49-.2.1,0,.23,0,.25.08s-.15.14-.25.14a12.72,12.72,0,0,1-1.28.05c-1.39,0-2.77.11-4.16.11a13,13,0,0,0-2.69.19l-.25,0c-.2.05-.19.23-.18.38s.16.12.26.11c2.1-.21,4.22-.13,6.32-.29h.12c.11,0,.26,0,.28.12s-.14.14-.24.16a14.07,14.07,0,0,1-1.66.07c-1.05.07-2.11,0-3.16.08-.65,0-1.3.11-1.95.16-.31,0-.41.29-.6.57.73,0,1.39,0,2-.11a22.62,22.62,0,0,1,3-.15c.13,0,.34-.07.34.12s-.2.15-.33.15c-1.75-.06-3.49.23-5.24.24-.31,0-.42.31-.7.32v.11c.32,0,.63,0,.95,0a31.78,31.78,0,0,1,3.57,0,1.31,1.31,0,0,1,.29,0,.16.16,0,0,1,.09.12s-.06.09-.1.11a.27.27,0,0,1-.16,0,10.37,10.37,0,0,0-2.36-.07,23,23,0,0,0-2.82.13c-.24,0-.26.21-.29.43,1.44-.07,2.87,0,4.3,0,.15,0,.42-.09.43.09s-.27.17-.43.17l-3.81,0c-.18,0-.36,0-.53,0s-.24,0-.25.16.15.12.24.12c1,0,2.08.12,3.12.06h.17c.09,0,.23,0,.22.12s-.12.13-.22.14a1.8,1.8,0,0,1-.33,0c-1.3-.12-2.6,0-3.9-.1-.32,0-.67.18-.94,0a1.83,1.83,0,0,0-1.09-.18,24.1,24.1,0,0,0-2.6.08c-1.3.15-2.6,0-3.9,0s-2.35,0-3.53,0C14.23,31.38,11.12,31,8,31a13.1,13.1,0,0,1-2.8.1Z"/><path class="cls-1" d="M5.18,31.14a2.94,2.94,0,0,0,.45.09c1.56.06,3.13.09,4.69.2.88.06,1.77.12,2.65.23,1.64.2,3.29.16,4.94.25a71.24,71.24,0,0,0,7.41.08c2-.09,3.91,0,5.85-.23a12,12,0,0,1,1.21,0c.07,0,.15,0,.17.08a.14.14,0,0,1-.12.18,1.7,1.7,0,0,1-.37,0c-1.73,0-3.46.09-5.19.15-1.44,0-2.88,0-4.32.09-1.75.08-3.49-.12-5.23-.15s-3.66-.13-5.48-.33c-1.39-.15-2.79-.22-4.19-.25-1,0-2.08-.08-3.12-.13a1.37,1.37,0,0,0-.53.06.13.13,0,0,1-.19-.11c0-.11.06-.14.15-.15l1.24-.08h0"/><path class="cls-1" d="M27.4,1.62a1,1,0,0,1-.22.39,3.72,3.72,0,0,0-.61.88c0,.09-.09.2-.2.16s-.07-.17,0-.24c.27-.41.54-.82.82-1.23a.16.16,0,0,1,.18-.08c.07,0,.07.07.06.13"/><path class="cls-1" d="M27,1.11c-.13.45-.51.74-.69,1.15,0,.07-.1,0-.14,0a.12.12,0,0,1,0-.18,3.35,3.35,0,0,1,.85-1"/><path class="cls-1" d="M8.16,1.24l-.6,1c0,.05-.06.1-.12.06a.2.2,0,0,1-.07-.13,2,2,0,0,1,.78-1"/><path class="cls-1" d="M27.54,2.24c-.15.26-.26.54-.53.68a.19.19,0,0,1-.15,0c-.06,0,0-.1,0-.14.16-.21.32-.41.49-.61,0,0,.1,0,.15,0s0,.06.05.09"/><path class="cls-1" d="M26.42,1c-.11.4-.39.56-.51.82a.08.08,0,0,1-.14,0,.12.12,0,0,1,0-.11A1.36,1.36,0,0,1,26.42,1"/><path class="cls-1" d="M27.54,3.07c-.09.14-.12.36-.35.4a.11.11,0,0,1-.11-.14.58.58,0,0,1,.37-.42c.08,0,.11.05.09.15"/><path class="cls-1" d="M25.35,1.66c.12-.23.12-.56.53-.61a1,1,0,0,1-.53.61"/><path class="cls-1" d="M7.53,1.31c0,.34-.29.46-.38.76-.11-.33,0-.5.38-.76"/><path class="cls-1" d="M8.6,1.47,8.34,2a.14.14,0,0,1-.2.07c-.1-.05-.05-.14,0-.21a.7.7,0,0,1,.48-.37"/><path class="cls-1" d="M15.62,26.1a.35.35,0,0,0,.53-.11c.07-.1,0-.16-.07-.19-.29-.1-.25.23-.46.29m-3-2.23a.57.57,0,0,0,.27-.61c-.34.11-.28.34-.27.61m11-.49a.46.46,0,0,0,.23.4c.1.06.22.11.29,0s0-.19-.14-.23l-.37-.16m-1.22-4.09a.58.58,0,0,0,.32-.45c0-.06-.11-.08-.17-.06-.31.09-.06.35-.15.51m-12.22.87.58-.11c.07,0,.13,0,.12-.13s-.07-.11-.14-.11a.62.62,0,0,0-.56.35m11.22,9.06c.18,0,.39.1.49-.16,0-.08,0-.13-.09-.14-.23-.05-.36,0-.39.3m0-9.37c-.5,0-.64.09-.52.55.11-.27.35-.35.52-.55m-9.87,9.08a.2.2,0,0,0,.22-.19c0-.15-.1-.18-.21-.18a.24.24,0,0,0-.22.24c0,.14.14.09.21.12m15.71-7.41a.46.46,0,0,0,.06.13.57.57,0,0,0,.45.24c.06,0,.08-.07.07-.13,0-.23-.25-.16-.39-.22s-.11-.09-.2,0M6.64,18.87c0-.13-.05-.16-.17-.16s-.23.17-.24.32.11.13.2.13.2-.15.21-.29m4.48,9.53c0-.08-.12-.2-.2-.17s-.21.24-.28.38.06.12.13.12.25-.18.34-.33M22,22.57c-.15-.52-.47-.35-.75-.28l.75.28m-15.89,1A.5.5,0,0,0,6.45,23c-.35.06-.31.34-.35.59m18.52,4.65c0-.09-.06-.11-.15-.11s-.31,0-.33.22,0,.15.13.15a.32.32,0,0,0,.35-.26m-1.8-9.07c0,.17-.38.19-.19.42s.22.08.33,0,0-.27-.13-.4m1.65,2.06a.63.63,0,0,0,0,.15.47.47,0,0,0,.39.32c.08,0,.07-.07.08-.12,0-.25-.19-.22-.31-.3s-.1-.1-.19-.05m-8.76.29c0-.08,0-.25-.17-.24s-.22.17-.24.3.11.13.2.13.23,0,.2-.2m9.62,4.83c-.08,0-.18,0-.16.08s.27.21.41.3.16-.05.15-.13c0-.26-.28-.15-.4-.25m3.83-3.73a1.83,1.83,0,0,1,.82-.32c-.35-.22-.61-.13-.82.32M17.32,19.06a2,2,0,0,0,.2.36.6.6,0,0,0,.4.19c.06,0,.06-.08.06-.13s-.2-.16-.3-.23-.16-.09-.36-.19M10,21a.61.61,0,0,0,.24.45.16.16,0,0,0,.22,0,.31.31,0,0,0,.09-.17c0-.1,0-.16-.14-.15s-.25-.09-.41-.16m15.65,7.77c.33-.11.54-.3.44-.68l-.44.68m-7.91-8.4c.11-.11.27-.2.27-.38s-.15-.12-.24-.11a.23.23,0,0,0-.21.29c0,.07,0,.19.18.19m5-.39c-.34-.29-.5-.25-.86.28a4.86,4.86,0,0,1,.86-.28m-2.31,3.4a.71.71,0,0,0,.51.49.13.13,0,0,0,.18-.11A.12.12,0,0,0,21,23.6l-.61-.23m-4.18,1.2A1.22,1.22,0,0,1,17,24c-.46-.17-.69,0-.74.55m8.6.82a2.91,2.91,0,0,0,.16.48.29.29,0,0,0,.29.12c.07,0,.08-.07.08-.12a.2.2,0,0,0-.14-.22,4,4,0,0,1-.4-.25m-5.23,3.85c.27,0,.46.14.61-.1,0-.07.1-.16,0-.21-.28-.11-.37.14-.6.31M19.3,22.5c-.06-.52-.42-.47-.75-.46l.75.46m6.58-3.36c-.05.34.15.42.34.48a.14.14,0,0,0,.17-.17c0-.28-.33-.18-.51-.31m-14.75.58a.24.24,0,0,0,.27-.2c0-.12-.14-.21-.26-.21a.27.27,0,0,0-.26.22c0,.18.18.11.25.19m.14-.92a.47.47,0,0,0,.19.34c.11.08.21.19.36.15s.05-.09.06-.14c0-.21-.17-.17-.28-.22l-.33-.13m3,.7c-.05-.09-.08-.22-.19-.19s-.29.24-.39.39.06.11.13.11c.23,0,.32-.17.45-.31m14.14.22c-.1-.1,0-.32-.22-.33s-.24.14-.26.28.19.16.29.22.17,0,.19-.16m-21,4.35a.59.59,0,0,0-1,.46,1,1,0,0,1,1-.46m15.81-.49c0,.27-.35.38,0,.58.11.07.22.12.32,0s-.12-.31-.28-.54m-1.58,4.51-.13,0c-.32-.06-.25.21-.3.37s0,.21.11.21.11-.22.19-.31a1.54,1.54,0,0,0,.13-.23m-14.75-7a.81.81,0,0,0,.49.44c.09,0,.2.06.23-.08s0-.18-.14-.21l-.58-.15m.54-2.44c.18-.19.42-.25.42-.48s-.16-.09-.24-.06c-.25.07-.23.27-.18.54m13,4a.83.83,0,0,1,.46-.26c.1,0,.19-.05.15-.19s-.15-.11-.24-.08a.43.43,0,0,0-.38.53m-15.08-4a.49.49,0,0,0,.36.45c.11,0,.21.09.25-.08s0-.22-.15-.21a.94.94,0,0,1-.46-.16M12,24.26c0-.14-.16-.14-.25-.18s-.25,0-.27.17a.25.25,0,0,0,.18.29c.17,0,.21-.19.33-.29m-1.05-1a.82.82,0,0,0-.4.4c0,.13.14.17.18.15s.33-.16.35-.37,0-.17-.13-.18M30,18.31c-.68-.53-1-.55-1.25-.12.52-.15.52-.15,1.25.12m-1.5,7.92c.14-.37-.16-.42-.36-.54s-.14,0-.14.08a.43.43,0,0,0,.35.4l.15.06M9.66,25.1a.74.74,0,0,0,.56.53c.07,0,.18,0,.22-.05s-.05-.13-.13-.17l-.66-.31m7.17-6.48c-.58-.11-.6-.09-.59.54.19-.19.44-.27.59-.54M14.4,22.56l.47-.41c.06-.05.16-.09.09-.19s-.15-.06-.22,0a.54.54,0,0,0-.34.63M14.3,19c0,.32.27.41.5.5.08,0,.17.07.21,0a.16.16,0,0,0-.12-.22L14.3,19m9.33,3.86c.21-.17.31-.36.51-.44s.18,0,.12-.15a.14.14,0,0,0-.22-.09.57.57,0,0,0-.41.67m-9.72,5.81c.25,0,.28-.22.36-.38s-.06-.12-.14-.12c-.25,0-.31.18-.37.36s.07.11.16.14M19,21.07a.33.33,0,0,0,0,.28.55.55,0,0,0,.43.28c.09,0,.09-.06.1-.13,0-.26-.17-.27-.33-.34l-.24-.1m7.17,2.22c.05.3.12.49.38.55.08,0,.12.21.22.06a.2.2,0,0,0-.07-.29l-.53-.32m1.47-1c.19.08.13.45.4.37.08,0,.28-.24.19-.36s-.37-.1-.59,0m-14,6c0-.17-.08-.14-.17-.15s-.28.15-.33.3.12.15.21.16c.25,0,.22-.18.28-.31m13.8-1.7c.27-.06.53,0,.62-.25a.25.25,0,0,0-.2-.28c-.26,0-.26.29-.42.52M23.67,22a.87.87,0,0,0,.54-.14.2.2,0,0,0,.1-.25c0-.07-.07-.18-.13-.2s-.16.08-.21.15l-.3.43M12.88,25a.57.57,0,0,0,.39.59c.07,0,.16.1.21,0a.18.18,0,0,0-.05-.26L12.88,25m3-3.84a.63.63,0,0,0,.43.47c.08,0,.2.08.24-.06s.05-.26-.12-.3-.34-.07-.55-.11m-3.67-1.53c-.31-.11-.46.1-.65.19s-.19.11-.06.21.17.21.31.05l.41-.45m8.71,8.72c.06-.23-.06-.21-.15-.21s-.3.15-.33.35,0,.17.16.17a.29.29,0,0,0,.32-.3M9.29,21.89c-.49-.29-.93-.16-1,.31a1.89,1.89,0,0,1,1-.31m2.63,2c.16-.6-.35-.38-.63-.6a.77.77,0,0,0,.63.6m16.12,1a1.15,1.15,0,0,1,.6-.23c.19,0,.2-.13.18-.25s-.17-.1-.27-.08a.75.75,0,0,0-.52.55m-9.88-6.77c-.08-.27-.24-.29-.46-.23s-.33.21-.3.51a1.68,1.68,0,0,1,.76-.28M26.21,24c-.08-.13-.17-.31-.32-.32s-.25.19-.24.33.22.18.35.21.17-.1.21-.22m-15,3.92c.06.31.29.38.51.46s.2-.07.24-.16-.05-.16-.14-.18l-.61-.12m13.84-3a1.25,1.25,0,0,1,1.09-.38c-.54-.33-1-.19-1.09.38m-8.88.16c0,.37.11.58.42.62.15,0,.14-.1.14-.19,0-.38-.34-.24-.56-.43m-6.33-.48a1.46,1.46,0,0,1,.52-.38c.07,0,.17,0,.13-.15s-.13-.14-.22-.11a1,1,0,0,0-.51.45c0,.08,0,.16.08.18m2.8-3.44c.07.43.35.48.64.51.09,0,.17,0,.17-.13s0-.17-.14-.16-.41-.13-.67-.22M13.7,26c-.32-.07-.64-.42-.81.19.28,0,.57.12.81-.19M26.88,18.3c-.36-.39-.74-.35-1,.14a2.34,2.34,0,0,1,1-.14m-7.56,10c0-.15-.07-.16-.17-.16-.3,0-.24.24-.29.41s.06.15.17.16c.32,0,.21-.26.29-.41m3.79-.11c0-.13,0-.18-.15-.18s-.28.21-.32.4,0,.21.16.21c.33,0,.23-.28.32-.44M28,20.3c-.14-.12-.22-.35-.47-.21s-.4.19-.36.5c.29-.08.5-.34.83-.29M4.84,23a.5.5,0,0,0,.35.66c.09,0,.16,0,.18-.11.08-.43-.36-.27-.53-.54m11.23,5.79c.31,0,.25-.32.37-.47s-.09-.15-.17-.14c-.24.05-.34.27-.41.47s.11.11.21.14m-.32-.49c0-.15-.13-.13-.22-.13-.31,0-.28.29-.36.46s.12.17.22.15c.26-.06.22-.34.37-.48m-5.37-9.55.65-.57c-.31,0-.57-.07-.74.11s.07.29.09.47M6.82,21.51c-.14-.09-.15-.35-.32-.33s-.36.16-.33.32.25.25.43.22a.23.23,0,0,0,.22-.21m11.81,6.87c0-.18-.07-.23-.19-.22-.28,0-.29.25-.33.44s.13.14.22.14c.3,0,.23-.24.3-.36m3.12-7.14a.69.69,0,0,0,.51.58c.11,0,.22.07.25-.1s0-.24-.13-.24-.37-.17-.63-.24M20.3,19.09c.09.35.35.43.63.49.09,0,.2.09.21-.08s0-.2-.11-.23l-.73-.17m2.92-.68c.39-.14.69-.36,1.12-.25-.54-.38-.89-.31-1.12.25M14.66,28.73c.26,0,.27-.2.31-.37s-.11-.21-.23-.2-.29.25-.32.43.15.11.25.14m2.88-5.6a.78.78,0,0,0,.56.57.19.19,0,0,0,.26-.14c0-.13-.06-.17-.16-.2l-.67-.24m-4.95,5c-.17,0-.43-.08-.42.15s.32.17.49.23a.21.21,0,0,0,.27-.22c0-.3-.26-.05-.35-.15m-4.71-9.6c-.24.2-.36.49-.73.55.27.14.45.21.66,0s.2-.34.07-.59M15.57,24c-.59,0-.8.26-.73.75a3.54,3.54,0,0,0,.73-.75m7.92.64c-.77-.46-1.14-.57-1.33.07.51-.21.51-.21,1.33-.07m4.74-.47c.33.05.46-.16.6-.37a.22.22,0,0,0-.07-.32c-.13-.09-.16.06-.21.13a1.19,1.19,0,0,0-.32.56M10.84,21.86c-.58-.16-.73,0-.56.67l.46-.54.1-.13m17.63-2.6c.06.32.17.5.49.51.15,0,.23,0,.26-.18s-.07-.19-.18-.21l-.56-.12M11.33,22.64a1.46,1.46,0,0,1,1.19-.41c-.79-.33-1-.27-1.19.41M5.55,20.08c.28-.23.54-.35.53-.62,0-.1-.27-.22-.38-.15s-.11.44-.16.77M13,24.54c.34-.31.6-.6,1.09-.56-.69-.29-1-.14-1.09.56m10.72,3.52c-.29-.05-.37.09-.4.32s.11.22.25.23c.32,0,.28-.26.34-.42s-.13-.1-.19-.12M8.24,18.61a.74.74,0,0,0,.63.62c.13,0,.21,0,.23-.16s0-.18-.17-.18-.43-.16-.69-.28M18.6,20.89a7.08,7.08,0,0,0-.79.81c.57,0,.82-.29.79-.81M8.14,23c.12.38.4.46.67.54.1,0,.2,0,.21-.12s0-.23-.15-.23A2.73,2.73,0,0,1,8.14,23M18.55,24c-.34-.17-.49,0-.63.21s-.07.33.05.5l.58-.71M9.4,19.58a3.83,3.83,0,0,0-.55-.07.45.45,0,0,0-.34.27c0,.08.06.18.12.24s.21-.05.3-.1a5.71,5.71,0,0,0,.47-.34m3.35.91a1.18,1.18,0,0,1,1.42-.07.79.79,0,0,0-1.42.07m-2.28,7.75a.64.64,0,0,0,.33-.72c0-.05,0-.13-.06-.13a.16.16,0,0,0-.14.05c-.13.24-.37.47-.13.8m-.73-1.62c.42.14.54-.2.74-.36s.23-.14.1-.25a.24.24,0,0,0-.34,0c-.17.18-.32.37-.51.59m14.59-2.4c-.1-.13-.25-.09-.37-.09a.28.28,0,0,0-.31.3c0,.14.13.35.24.33s.31-.32.44-.54M9.07,26.59a.17.17,0,0,0,.23,0c.24-.21.47-.43.7-.64s0-.12-.05-.15-.15-.12-.21,0c-.19.28-.53.44-.66.78M18,28.21c-.44-.21-.56.11-.69.36s0,.18.17.18c.4,0,.32-.38.52-.55M25.72,22c-.71,0-.78.15-.47.73a2.7,2.7,0,0,0,.47-.73m-11.38,1.1a.6.6,0,0,0,.62.61c.07,0,.14,0,.15-.1s0-.2-.1-.24l-.68-.27m5.41,5.55c.3.06.41-.12.45-.36s-.17-.15-.28-.17c-.31-.06-.32.21-.37.39s.12.13.21.14M26.7,25c.12-.24.2-.39.28-.55s.07-.16-.06-.19-.36-.18-.51-.06.06.25.11.38.1.22.18.42m-9.48,3.24c-.05-.15-.18-.15-.28-.14-.29,0-.29.31-.34.5s.16.17.27.15c.3,0,.16-.38.34-.51m11.79-5a.88.88,0,0,0,.42.67c.12.06.23.11.29-.08s.09-.25-.12-.31a4.83,4.83,0,0,1-.6-.27m-3.46-3.08c-.26.08-.34-.41-.64-.19s-.46.21-.4.57a4.89,4.89,0,0,1,1-.39M7.67,23.9A.87.87,0,0,0,8,23.45c0-.11-.12-.33-.2-.3a.88.88,0,0,0-.45.39c-.06.14.19.21.3.36m9.34-5-.29.23c-.09.08-.22.16-.25.26s-.46,0-.38.23.26-.06.42,0c.36.08.6-.24.51-.69m-8.24,5c-.26-.22-.46-.28-.69,0a.25.25,0,0,0,.11.39c.35.1.36-.3.58-.42M22,25.94c-.08-.14-.09-.3-.24-.35s-.4.49-.38.6.2.13.3.14c.28,0,.18-.28.32-.39m-10,.27c.19,0,.38.11.45,0s.31-.3.42-.49,0-.14-.1-.2-.14,0-.2,0l-.55.65m17.72-1.09a2.62,2.62,0,0,0,.43-.59c.13-.26,0-.28-.21-.25-.35,0-.42.26-.22.85m1,.4c-.21.24-.4.44-.57.65a.23.23,0,0,0-.06.19c0,.1.14.05.22,0,.4-.09.54-.36.41-.87m-24.75.8c.19-.21.38-.42.56-.64,0,0-.08-.1-.13-.15s-.11-.06-.17,0-.3.28-.45.43-.14.14-.08.21a.86.86,0,0,0,.27.14m10-5.94a1.42,1.42,0,0,1,1.38-.19,1.59,1.59,0,0,0-1.07-.38c-.19,0-.35.21-.31.57M29,21c.14-.23.23-.39.34-.55s.22-.24.06-.39a.3.3,0,0,0-.38,0c-.1.1-.28.24-.16.41s.06.32.14.54M22.46,28.1c-.35-.13-.61-.07-.7.34,0,.13,0,.2.13.22.47.08.52-.23.57-.56m-16-6a1,1,0,0,0-1.07-.45.65.65,0,0,0-.61.55c.51-.56,1.07-.27,1.68-.1m10.67-.21a1,1,0,0,0-.86.73.3.3,0,0,0,.08.22c.09.06.14,0,.19-.11a4.45,4.45,0,0,0,.59-.84m-10.4.71L7.45,22c.11-.11.05-.15-.06-.2s-.27-.12-.42,0-.28.47-.19.85M14,21.92c-.93.16-1,.26-.8.95.18-.4.61-.55.8-.95M7.26,26.05c-.5-.3-.62-.17-.86.19-.09.14-.08.2.1.26.44.15.49-.27.76-.45m20.35-3.29a1,1,0,0,0-.84-.52c-.29.07-.52.2-.44.57.56-.34.56-.34,1.28-.05M10,18.18c0-.27-.19-.29-.3-.38s-.4-.06-.59-.15c-.36-.17-.61,0-.78.45a1.63,1.63,0,0,1,1.68.08m4.36.2c.56-.58,1.1-.29,1.67.07a1.2,1.2,0,0,0-1.1-.65.61.61,0,0,0-.58.58m.49,7.72c.14.09.27.14.35.07a8.9,8.9,0,0,0,.72-.73.22.22,0,0,0,0-.27c-.11-.08-.17,0-.23.1l-.79.83M22,18.6c-.14-.38-.5-.38-.79-.52-.49-.23-.73-.14-.86.41A1.34,1.34,0,0,1,22,18.6m2.53,7a.56.56,0,0,0-.25.31c-.07.13-.24.28-.16.4s.32.12.49.12.33-.16.18-.35-.15-.32-.26-.48m-1.49-2.74A7.71,7.71,0,0,0,22.39,24a.81.81,0,0,0,.69-1.13M21.29,19c.15,0,.42.07.45-.16s-.26-.24-.43-.29a.62.62,0,0,0-.17,0c-.21,0-.5,0-.51.23s.29.18.48.21l.18,0m.49,5.17c-.66,0-1,.49-.77,1.08.15-.47.64-.63.77-1.08M8.24,20A.36.36,0,0,0,8,19.69c-.13,0-.29,0-.4-.08-.43-.27-.66-.2-.83.32A1.9,1.9,0,0,1,8.24,20m-1.8-.33c-.29.45-1.09.5-1,1.36.34-.51,1-.68,1-1.36m21.22,5.48c-.31.48-.58.89-.84,1.31,0,.05-.13.14,0,.2s.2.05.24-.07c.08-.28.32-.44.47-.67a.77.77,0,0,0,.14-.77M20.75,21.3a6.71,6.71,0,0,0,.9-1.15c.05-.09.19-.19.07-.28s-.18,0-.25.13-.33.47-.62.55a.12.12,0,0,0-.09.19c.09.17,0,.32,0,.56M12.8,18.14c0-.23-.19-.26-.31-.31s-.29,0-.43-.11a.58.58,0,0,0-.81.31.24.24,0,0,0,0,.19c.07.08.1,0,.16-.06a1.69,1.69,0,0,1,1.36,0m13.34,9.43a.18.18,0,0,0,0-.1c-.07-.06-.12,0-.17,0a2,2,0,0,0-.47.77c-.07.17-.15.34-.36.35s-.24.16-.29.3,0,.11.12.12.25-.1.35-.23c.26-.35.4-.79.81-1,.07,0,.09-.1.07-.22M14.59,20.89a2.93,2.93,0,0,0,.71-.9c.06-.14.07-.25-.13-.23a1,1,0,0,0-.58,1.13m-2.53-2.14a.88.88,0,0,0,.62-.24s0-.1,0-.14a.75.75,0,0,0-.67-.11c-.18,0-.48,0-.46.26s.32.2.54.22M8.18,26.6c.48.07,1.34-.75,1.27-1.2L8.8,26a1.93,1.93,0,0,0-.62.64m14.25-3.25.77-1.25c-.66,0-1,.52-.77,1.25M9.84,18.42a1.09,1.09,0,0,0-1.12-.22c-.08,0-.16.07-.16.16s.08.14.15.18a1,1,0,0,0,1.13-.12M7,17.92a1,1,0,0,0-1.3-.46c-.35.14-.42.29-.28.67.43-.69,1-.47,1.58-.21m19.64,1.26c.21,0,.48-.09.52-.31s-.26-.19-.41-.27h0a.79.79,0,0,0-.66.15.1.1,0,0,0,0,.14.87.87,0,0,0,.62.3m-2-.35c-.43-.48-.62-.52-1.08-.26-.1.05-.27.09-.21.25a.28.28,0,0,0,.31.17c.31,0,.62-.1,1-.16m-5.81,6.31c-.26.35-.61.58-.76,1,.19.07.34.12.42-.11a.73.73,0,0,1,.17-.23.21.21,0,0,1,.3-.06c.15.11,0,.18-.05.27l-.09.13c.17.13.28.14.42,0s0-.25-.09-.33-.21-.35-.33-.59m5.48-1.74c.26-.05.58-.1.57-.39s-.33-.3-.56-.31a.42.42,0,0,0-.42.43c0,.28.28.18.41.27M6.94,18.19c-.48-.32-.89-.33-1.16,0-.07.07-.15.13-.12.24s.14.13.23.13a1.25,1.25,0,0,0,1-.33m1.48,3.26c1.1.18,1.44-.08,1.19-.83-.43.17-.61.68-1.19.83m4.66,2.16c.69-.11.81-.27.94-1.29-.2.51-.93.61-.94,1.29m14.08-.07a.59.59,0,0,0,.55-.36c0-.07.06-.19-.07-.19s-.37-.12-.55-.15a.39.39,0,0,0-.48.24c-.07.2.12.29.26.37a1.58,1.58,0,0,0,.29.09m-9-4.47c.26,0,.57-.08.57-.3s-.31-.37-.57-.36-.57.09-.56.36.31.31.57.3m-3.86,1.69c-.4-.12-.71-.38-1.11-.17-.13.07-.24.15-.22.32s.16.19.28.2a1.15,1.15,0,0,0,1-.35m7.48,3.92c-.36.45-.7.85-1,1.27,0,0-.23.21,0,.29s.26.09.36-.13a1.46,1.46,0,0,1,.48-.66c.31-.2.3-.41.17-.76m3.68-3.52c.37,0,.61,0,.6-.33s-.27-.3-.49-.28a2.61,2.61,0,0,0-.45.05c-.15,0-.33.1-.33.26s.19.2.34.23l.33.06m.33,4.39c.25-.07.64-.06.64-.38s-.34-.35-.61-.35a.53.53,0,0,0-.54.41c0,.25.27.29.51.31m-6.12-2.81a1.6,1.6,0,0,1,1.12-.88.83.83,0,0,0,.54-.37c.08-.12.32-.26.1-.4s-.19.14-.28.23-.18.31-.36.31a1.86,1.86,0,0,0-1.05.48c-.21.14-.21.32-.07.62M16.9,25.12c.17,0,.37-.08.57-.14a.29.29,0,0,0,.19-.33c0-.09,0-.22-.12-.24a1.09,1.09,0,0,0-.8.05.45.45,0,0,0-.19.47c0,.2.2.15.36.19m-1.75-6.06c.23-.08.58-.07.62-.32s-.29-.28-.49-.36a.57.57,0,0,0-.28,0c-.23,0-.47.16-.5.37s.25.21.4.28a1.38,1.38,0,0,0,.24.07m-4.33,2c.25,0,.58-.07.6-.33s-.31-.32-.53-.37a.71.71,0,0,0-.69.19.13.13,0,0,0,0,.18.79.79,0,0,0,.64.32m5.89-.67a1.16,1.16,0,0,0-.5.13c-.28.16-.28.29,0,.47A.9.9,0,0,0,17,21c.16,0,.38-.1.36-.28s-.22-.26-.39-.31a1.26,1.26,0,0,0-.22,0m12.1,5.32c.31,0,.62-.07.64-.4s-.33-.21-.51-.29a.51.51,0,0,0-.63.17c-.07.09-.14.19-.07.3s.37.21.57.22M30,23.34a2.66,2.66,0,0,0,.35-.06.35.35,0,0,0,.25-.42c0-.38-.36-.14-.53-.21s-.71.09-.69.33.35.32.62.36M14.25,22a2.91,2.91,0,0,0,1.14-1,.86.86,0,0,0,.17-.43c0-.11,0-.24-.09-.28s-.15.1-.21.17c-.19.25-.32.62-.57.74s-.28.52-.44.75m15,4.5c.56-.08.72-.62,1-1a.72.72,0,0,0,.11-1c-.44.63-.73,1.32-1.16,1.93m-6.47-.89c.33,0,.7-.15.72-.42s-.39-.36-.68-.37a.53.53,0,0,0-.58.48c0,.25.3.31.54.31m-1.56-2.24c.29,0,.64,0,.66-.34s-.33-.3-.57-.37a.56.56,0,0,0-.63.19.25.25,0,0,0,0,.3c.14.22.36.22.59.22m-9.19-.09c.25,0,.76-.23.73-.4a.49.49,0,0,0-.48-.37c-.37,0-.78.21-.78.47s.27.27.54.3m-1.42,1.92a1.41,1.41,0,0,0,.52-.07c.15-.06.31-.12.25-.31s-.16-.35-.4-.34-.21,0-.32,0c-.32,0-.59.19-.59.45s.35.21.54.24m4.78-2.84c-.39,0-.77.24-.75.51s.35.29.57.32.7-.29.66-.5-.25-.33-.49-.33m8.26-.77c.21-.35.46-.59.48-1a.82.82,0,0,1,.54-.74c.37-.12.47-.47.71-.7.05-.05.19-.18.07-.28a.32.32,0,0,0-.39,0,.36.36,0,0,0-.13.29.82.82,0,0,1-.5.67.52.52,0,0,0-.24.14,2.16,2.16,0,0,0-.54,1.57m-5.26,1.6h.17c.24,0,.51-.1.58-.33s-.27-.18-.37-.33-.07,0-.1-.07c-.19-.12-.39-.23-.6,0a.53.53,0,0,0-.19.52c.08.27.35.22.51.24M6.1,24.6a10.64,10.64,0,0,1-1.3,1c.38.54.38.54.84.09.06-.06.11-.14.18-.17.44-.17.33-.51.28-.93M10,22.24c-.15.29-.27.18-.39.11a1,1,0,0,0-1,0,.31.31,0,0,0-.06.54A1.11,1.11,0,0,0,10,22.24m3.85,2.92c.38,0,.76-.28.71-.54s-.4-.28-.63-.31-.72.29-.67.49.38.31.59.36m15.63-5.95a1,1,0,0,0,.49-.11c.07-.05.16-.1.1-.23a1,1,0,0,0-1-.46.54.54,0,0,0-.4.48c0,.23.23.23.4.26a3.76,3.76,0,0,0,.39.05M5.43,23a1,1,0,0,0,.89-.31c.06-.08.12-.14,0-.24a1.13,1.13,0,0,0-1.21-.08c-.12.08-.23.17-.2.34a.35.35,0,0,0,.29.27,1,1,0,0,0,.21,0m20.88-1.6a20.74,20.74,0,0,1,1.82-2.47c-.29,0-.5,0-.53.38a.67.67,0,0,1-.62.63.86.86,0,0,0-.54.35,1.25,1.25,0,0,0-.14,1.11m1.66,0a3.13,3.13,0,0,0,.42-.1c.2-.08.37-.2.34-.46s-.24-.17-.38-.2a.94.94,0,0,0-.49-.05c-.28.07-.53.23-.5.52s.35.26.61.3m-20.5-.45a1.38,1.38,0,0,0,.81-.28c.09-.08.19-.18,0-.28a3.6,3.6,0,0,0-.94-.32.36.36,0,0,0-.44.23.39.39,0,0,0,.09.46.8.8,0,0,0,.49.19m-.15,3.36a.63.63,0,0,0-.73.54c0,.23.33.39.73.35a.86.86,0,0,0,.28-.06.6.6,0,0,0,.32-.66c0-.32-.26-.18-.44-.16H7.33m15.42-4c-.42,0-.86.3-.81.55s.43.32.7.38h0c.33-.06.77-.2.77-.5s-.46-.39-.69-.42m-5.08,1.15c.33-.47.84-.7,1-1.19a1,1,0,0,1,.46-.55c.32-.16.47-.46.74-.64a.23.23,0,0,0,0-.36c-.15-.14-.17.07-.24.15-.4.37-.65.88-1.25,1.08-.31.1-.37.67-.81.78a.17.17,0,0,0,0,.12c.1.17,0,.35,0,.62m-3.8-2.74c-.54.2-.71.92-1.37.89,0,0,0,.07,0,.1a1.49,1.49,0,0,1-.49.56c-.31.2-.28.42-.15.73.26-.3.64-.42.76-.82a.47.47,0,0,1,.3-.26c.43-.1.55-.54.87-.75a.39.39,0,0,0,.11-.44M8.69,21c.2-.18.37-.34.55-.48.56-.44,1-1,1.64-1.36a.27.27,0,0,0,.06-.41c-.15-.19-.23,0-.32.11a11.27,11.27,0,0,0-1.27,1.07c-.28.29-.9.4-.66,1.08m.77,3.33a3.13,3.13,0,0,1-.53.56c-.55.37-.93,1-1.49,1.32-.1.06-.25.21-.16.34s.28.08.43,0a.41.41,0,0,0,.19-.15,3.27,3.27,0,0,1,.94-.88,1.31,1.31,0,0,0,.63-1.23m10.66-1.79c-.53.33-.63,1-1.12,1.39a9.92,9.92,0,0,0-1.45,2c0,.06-.14.13,0,.2s.17,0,.2-.08a3.18,3.18,0,0,1,.58-.7,4.85,4.85,0,0,0,.63-.74c.14-.3.38-.5.52-.76.24-.43.76-.72.67-1.31m-2.85-.15c-1,1.29-2.14,2.5-3.27,3.74.2.08.38.14.49-.14s.26-.28.4-.41A3.57,3.57,0,0,0,16,24.34a1.19,1.19,0,0,1,.52-.64,1.6,1.6,0,0,0,.79-1.28M12.52,24.9l-.48.49c-.08.07-.16.2-.27.08s0-.21.06-.29a8.14,8.14,0,0,1,.68-.66c.09-.08.23-.09.23-.25s0-.12-.09-.11-.29,0-.39.18a1.35,1.35,0,0,1-.35.41.55.55,0,0,0-.28.65.32.32,0,0,1-.21.41c-.45.14-.61.59-.94.85-.17.13-.14.31-.11.5a.08.08,0,0,0,.12.06c.15-.06.32-.09.36-.29a.75.75,0,0,1,.51-.51c.07,0,.18-.06.2-.12.2-.44.61-.67.92-1,.13-.13.12-.23,0-.41M8.13,21.73c-.24.22-.45.39-.64.59-.34.36-.78.62-.89,1.19a.64.64,0,0,1-.79.46.47.47,0,0,0-.61.29.93.93,0,0,1-.24.29.69.69,0,0,0-.21.69.89.89,0,0,0,.52-.29A15.45,15.45,0,0,1,6.82,23.7a3.27,3.27,0,0,0,.91-.91,3.1,3.1,0,0,0,.41-1.06m18.63-.39c-.32.18-.41.49-.6.72a3,3,0,0,0-1,1.49.62.62,0,0,1-.22.39,3.68,3.68,0,0,0-1.18,1.84,1,1,0,0,1-.46.58c.18-.08.46.13.55-.14.2-.63.82-1,.95-1.7A.47.47,0,0,1,25,24.3a3.78,3.78,0,0,0,1-1.47c.21-.47.43-.87,1.06-.85a2.16,2.16,0,0,1-.29-.63m-.95,5.81a4.67,4.67,0,0,0,1-1.26c.3-.39.43-.87.74-1.25a1.69,1.69,0,0,0,.47-.67,5.42,5.42,0,0,1,1-1.75c.24-.3.37-.65.6-.95a.41.41,0,0,0,0-.44c-.06-.12-.17-.15-.2,0-.12.48-.66.66-.77,1.13a2.42,2.42,0,0,1-.36.78c-.18.28-.46.51-.43.9a.56.56,0,0,1-.41.6c-.13,0-.17.17-.23.28-.19.36-.4.72-.59,1.08s-.11.58-.41.74-.36.49-.46.81m-.61-.28a.67.67,0,0,0-.42-.17c-.51,0-1,0-1.53-.05-2.59-.09-5.18-.2-7.78-.19a33,33,0,0,1-3.36.06,1.35,1.35,0,0,0-.81.3c-.18.11-.18.2-.11.49a.89.89,0,0,1,1-.53c1.89.07,3.77-.33,5.65,0a1.12,1.12,0,0,0,.29,0,13.37,13.37,0,0,1,2.87,0,27.07,27.07,0,0,0,4.24.16m-7.11,1h1.54a46.6,46.6,0,0,1,5.07,0,1.08,1.08,0,0,0,.49,0,.36.36,0,0,0,.28-.37c0-.24-.21-.18-.34-.21a12.82,12.82,0,0,0-1.61,0c-2.47-.27-5-.2-7.43-.25-1,0-2.07.22-3.11.12a7.58,7.58,0,0,0-1,0,.61.61,0,0,0-.47.23c-.08.09-.21.18-.15.32a.31.31,0,0,0,.28.15c.25,0,.5.06.74.07,1.89.09,3.77.12,5.66,0M9.55,23.8a.63.63,0,0,0,.8-.35,9.39,9.39,0,0,0,.92-1.34.59.59,0,0,1,.51-.31.6.6,0,0,0,.46-.79c-.08.08-.16.21-.24.21-.42,0-.5.47-.83.65s-.4.71-.89.78c-.08,0,0,.09,0,.14a1.13,1.13,0,0,1-.68,1c-.71-.19-.74.61-1.18.82-.15.07-.07.24,0,.41a7.9,7.9,0,0,0,1.2-1.24m11.08.7a.94.94,0,0,0-.81-.56.67.67,0,0,0-.48.73c.49-.54.79-.58,1.29-.18-.06.21-.19.09-.29.06a.74.74,0,0,0-.73.2.36.36,0,0,0-.15.37c0,.17.21.17.34.18a1,1,0,0,0,.9-.56c0-.09,0-.19-.08-.24m-.52-4.39c-.55-.45-.75-.43-1,.13.34-.18.71,0,1-.14a.46.46,0,0,0,0,.11c.06.08.22.15.14.26s-.23,0-.33,0a.78.78,0,0,0-.52,0,.32.32,0,0,0-.3.29c0,.17.14.24.27.27A2.67,2.67,0,0,0,20,21a.49.49,0,0,0,.49-.48c0-.27-.17-.35-.38-.4M24.8,18a.61.61,0,0,1,.21.39c0,.32.26.14.41.16,0-.24.41-.3.27-.61a.09.09,0,0,1,0,0,7.11,7.11,0,0,1,1.21-1.45.16.16,0,0,1,.14,0c0,.09,0,.1-.1.14a6.08,6.08,0,0,0-1.06,1.22c.84.21,1-.47,1.39-.92a.92.92,0,0,1,.71-.43,7.5,7.5,0,0,0-1,1.09c-.07.1-.17.21-.09.34s.21,0,.31.08.14-.08.18-.17a2.37,2.37,0,0,1,.92-1c-.18.43-.53.74-.73,1.15-.12.24,0,.4.07.58s.26.1.4.11.17,0,.18-.17a.77.77,0,0,1,.44-.61,1.48,1.48,0,0,0,.51-.59c.11-.19.21-.43.54-.41a1.07,1.07,0,0,1-.4.48c-.17.15-.18.28.08.33h0c.35.18.68.29.91-.17a.26.26,0,0,1,.25-.14c.1.16-.05.21-.12.3s-.28.28-.21.49.31.14.54.15c-.43.4-.39,1-.69,1.38-.15.2-.47.32-.35.67a5.67,5.67,0,0,0,.65,1.89h0c.25.31.52.43.85.09,0-.05.13-.09.18,0s0,.16,0,.21-.24.19-.36.28a.82.82,0,0,0-.27.53A2.35,2.35,0,0,0,30.94,25S31,25,31,25s.25-.46.45-.31-.14.29-.23.43-.27.36-.2.66-.31.83-.77.93a13.68,13.68,0,0,1-2,.12c-.54,0-1.07.12-1.61.19-.25,0-.33.15-.26.4a1.84,1.84,0,0,1,.09.61,1.34,1.34,0,0,1-1.27,1.28c-2.24.12-4.48.31-6.72.23-1.26,0-2.52,0-3.78-.06s-2.23-.18-3.35-.26a1.2,1.2,0,0,1-1.29-1.38C10,27,10,27,9.25,27a10.92,10.92,0,0,1-3.05-.28,2.83,2.83,0,0,1-1.65-.89.68.68,0,0,1-.16-.52c.08-.55.18-1.09.22-1.64a4.59,4.59,0,0,0-.09-.93A1,1,0,0,1,5.59,21.5a2.32,2.32,0,0,0,.85-.69.32.32,0,0,0-.08-.22c-.06-.06-.13,0-.17.07-.21.22-.5.36-.67.62a.28.28,0,0,1-.33.11c-.17,0-.15-.18-.15-.3a6.72,6.72,0,0,1,.22-1.31,1.12,1.12,0,0,0-.1-.91,1.22,1.22,0,0,1,0-1.27,1.33,1.33,0,0,1,1.41-.4A.63.63,0,0,0,7.32,17,1.76,1.76,0,0,1,8,16.5,5,5,0,0,1,7.5,17c-.24.2-.42.43-.15.68a.62.62,0,0,0,.8,0,3.89,3.89,0,0,0,1.27-1.16.35.35,0,0,1,.4-.2c-.14.31-.41.48-.58.74,0,.07-.16.17-.06.25a.23.23,0,0,0,.33,0l.7-.77c.05-.06.1-.11.17-.06s0,.14-.05.19a2.81,2.81,0,0,0-.54.57c-.08.1-.24.19,0,.33s.26.16.4,0a9.3,9.3,0,0,1,.67-.79s.1-.1.23,0a3.35,3.35,0,0,0-.69.78c-.07.09-.28.2-.1.32a.33.33,0,0,0,.48,0c.21-.32.5-.55.73-.84.06-.08.12-.19.22-.09s0,.13-.09.19l-.6.63c0,.05-.06.12,0,.26a1,1,0,0,1,1-.56c.08,0,.16-.18.24-.26s.18-.28.39-.27c-.05.25-.44.35-.31.62a.48.48,0,0,0,.54.19h0l.3.33c.39-.29.57-.79,1.13-1-.18.49-.66.64-.76,1,.72.35.75-.45,1.13-.66.07,0,.09-.14.15-.19a.19.19,0,0,1,.15,0c.07,0,.06.08,0,.13s-.14.23.07.25.46.42.77.14l.43-.38c.07.13,0,.15-.05.2s-.36.3-.22.42.27.47.6.42a.9.9,0,0,0,.7-.33c.33-.45.58-.48,1.07-.22a2.59,2.59,0,0,1,.68.47,1,1,0,0,0,1.1-.05.94.94,0,0,1,1.31-.32,1.89,1.89,0,0,1,.87.53c.13.17.47.17.54,0s.4-.51.54-.8a1.56,1.56,0,0,1,.86-.83c-.1.25-.29.34-.4.5s-.27.29-.15.37a.45.45,0,0,0,.6,0c.22-.25.41-.52.62-.78a.37.37,0,0,1,.31-.18s.06.06.06.09-.11.18-.21.23a1.71,1.71,0,0,0-.47.52c-.2.26-.14.42.18.48Z"/><path class="cls-1" d="M31.94,28.84c-.26-.13-.07-.33-.06-.53-.17,0-.21.18-.27.29s-.15.3-.24.44-.24.39-.38.3.05-.3.14-.44.23-.35.34-.52.24-.39.55-.23,0,.31,0,.46a.74.74,0,0,1-.09.23h0"/><path class="cls-1" d="M29.6,30c-.14,0-.14-.1-.09-.18a10.66,10.66,0,0,0,.58-1.27c0-.06.07-.14.15-.09a.15.15,0,0,1,.05.14,4.64,4.64,0,0,1-.57,1.32s-.09.06-.12.09"/><path class="cls-1" d="M29.44,29a3.34,3.34,0,0,1-.75,1.26.13.13,0,0,1-.15,0c-.07-.05-.06-.12,0-.18l.27-.36A1.58,1.58,0,0,0,29.2,29c0-.08,0-.17.15-.14a.11.11,0,0,1,.09.12"/><path class="cls-1" d="M31,28.52c-.17.36-.35.75-.54,1.13a.16.16,0,0,1-.14.05.11.11,0,0,1-.06-.17,9.89,9.89,0,0,0,.48-1.1.16.16,0,0,1,.16-.11c.09,0,.09.09.09.19"/><path class="cls-1" d="M24.81,18A4.32,4.32,0,0,1,26,16.57l.12.11L24.8,18h0"/><path class="cls-1" d="M28,29.23c0,.44-.37.74-.54,1.11a.11.11,0,0,1-.18,0,.17.17,0,0,1,0-.23l.63-.95.1,0"/><path class="cls-1" d="M28,30.39a.17.17,0,0,1-.1-.25c.15-.34.46-.58.59-.94,0,0,.07,0,.1,0a.12.12,0,0,1,.06.08,3.46,3.46,0,0,1-.6,1.11l-.05,0"/><path class="cls-1" d="M31.23,20.72a.47.47,0,0,1-.06.14,4,4,0,0,0-.6.69.12.12,0,0,1-.18,0,.11.11,0,0,1,0-.17,4.8,4.8,0,0,1,.58-.7.17.17,0,0,1,.27,0"/><path class="cls-1" d="M28.1,18.09A2.29,2.29,0,0,1,29,16.87c-.27.42-.64.79-.91,1.22"/><path class="cls-1" d="M6.85,17.12a.31.31,0,0,1-.09-.05.11.11,0,0,1,0-.15,3.48,3.48,0,0,1,.69-.65c.08-.07.16,0,.15.1a4.84,4.84,0,0,1-.76.75"/><path class="cls-1" d="M23.32,17c-.11.32-.39.5-.56.77a.11.11,0,0,1-.17,0,.16.16,0,0,1,0-.11,1.33,1.33,0,0,1,.77-.69"/><path class="cls-1" d="M31,20a8.93,8.93,0,0,0-.59.75c0,.07-.1.15-.19.1s-.06-.15,0-.21c.21-.28.4-.59.78-.63"/><path class="cls-1" d="M6.81,28.85a2.6,2.6,0,0,0-.33.77c0,.09,0,.21-.17.19s-.13-.16-.08-.23c.15-.27.18-.66.58-.72"/><path class="cls-1" d="M8.2,29.24c-.18.16-.22.41-.34.62s-.17,0-.2-.08A.82.82,0,0,1,8,29.09c.1,0,.16,0,.16.15"/><path class="cls-1" d="M7.4,28.94a3,3,0,0,1-.18.86c0,.08-.1.15-.19.12s-.08-.14,0-.21c.11-.24.08-.55.42-.78"/><path class="cls-1" d="M30.44,22.29c.18-.35.39-.66.84-.68-.33.17-.34.73-.85.68h0"/><path class="cls-1" d="M4.31,28.89c-.09,0-.09-.09-.09-.16a.86.86,0,0,1,.19-.45c.09-.13.21-.36.36-.25s-.11.22-.16.35l-.17.38c0,.06-.06.12-.15.13"/><path class="cls-1" d="M5.27,28.26a1.67,1.67,0,0,0-.34.79.1.1,0,0,1-.13.08.13.13,0,0,1-.1-.16,2.11,2.11,0,0,1,.36-.77s.1,0,.15,0,0,.06.05.1"/><path class="cls-1" d="M4.39,27.82c-.15.3-.4.51-.45.83,0,0-.08.06-.1.05a.22.22,0,0,1-.1-.12c0-.23.33-.7.64-.76"/><path class="cls-1" d="M31.72,22.86a2.4,2.4,0,0,1-.54.66.13.13,0,0,1-.18,0,.1.1,0,0,1,0-.15c.19-.22.34-.48.73-.52"/><path class="cls-1" d="M7.19,16.1c-.09.42-.48.56-.74.83,0,0-.08,0-.1,0s-.06-.11,0-.14c.32-.16.51-.49.83-.65"/><path class="cls-1" d="M31.55,23.85a1.38,1.38,0,0,1-.53.55c-.1,0-.17-.06-.12-.16a1.19,1.19,0,0,1,.55-.49c.05,0,.1,0,.11.09"/><path class="cls-1" d="M6,28.82c.15,0,.14.09.1.17s-.16.35-.25.52-.08.2-.21.11a.15.15,0,0,1,0-.22c.14-.2.2-.45.4-.59"/><path class="cls-1" d="M5.78,28.53a1.13,1.13,0,0,0-.32.71.08.08,0,0,1-.13,0s-.1-.08-.09-.12a1.6,1.6,0,0,1,.37-.72s.08,0,.11,0,0,.06.06.09"/><path class="cls-1" d="M3.79,26.86l-.46.7s-.06.1-.13.07a.14.14,0,0,1-.06-.1c0-.17.43-.66.65-.67"/><path class="cls-1" d="M8.15,30.06a.51.51,0,0,1-.08-.13,1.52,1.52,0,0,1,.45-.66c.09,0,.15.05.11.12-.12.22-.26.42-.39.63,0,0,0,0-.09,0"/><path class="cls-1" d="M10,29.47c-.15.14-.17.42-.42.5a.11.11,0,0,1-.12-.16c.12-.2.2-.44.47-.49.06,0,.09,0,.07.14"/><path class="cls-1" d="M30.69,19.65c-.19.2-.37.42-.58.61-.05.05-.14,0-.12-.1.1-.28.39-.39.56-.62,0,0,.13,0,.13.11"/><path class="cls-1" d="M5.65,16.94c-.14-.17-.05-.27,0-.33a1.93,1.93,0,0,0,.48-.38c0-.05.12-.1.18,0s0,.15-.05.2a2.32,2.32,0,0,0-.65.56"/><path class="cls-1" d="M30.26,17.17l-.18.31c0,.09-.07.22-.2.22a.16.16,0,0,1-.11-.1c0-.12.05-.2.12-.29a.37.37,0,0,1,.37-.15"/><path class="cls-1" d="M5.13,16.67c.16-.5.36-.66.65-.64,0,.08-.06.12-.11.16l-.54.48"/><path class="cls-1" d="M12.85,17.7a1.33,1.33,0,0,1,.61-.64c-.24.18-.22.61-.62.63h0"/><path class="cls-1" d="M3.45,26.12a1.3,1.3,0,0,0-.34.61c-.21-.33-.09-.55.34-.61"/><path class="cls-1" d="M31.56,25.27c-.05.22-.08.4-.29.45a.11.11,0,0,1-.12-.13.4.4,0,0,1,.41-.33"/><path class="cls-1" d="M9.21,12.18a.33.33,0,0,1-.16.23,12.85,12.85,0,0,0-2,2c-.07.08-.12.28-.27.17s0-.24.09-.34c.65-.76,1.45-1.37,2.14-2.08.06-.06.14-.1.19,0"/><path class="cls-1" d="M24.65,14.95c-.08-.16,0-.22,0-.28a23.25,23.25,0,0,0,1.2-2.08c0-.09,0-.27.19-.21s0,.22,0,.33a5.92,5.92,0,0,1-.67,1l-.73,1.2"/><path class="cls-1" d="M26.35,14.06a2.18,2.18,0,0,1,.45-.93c.18-.28.38-.54.56-.82a.17.17,0,0,1,.21-.08c.1.05.06.15,0,.21-.49.48-.75,1.14-1.23,1.61"/><path class="cls-1" d="M8,14.06l1-1.06c.13-.14.26-.29.4-.42s.12-.24.25-.12,0,.21-.08.28l-1.05,1c-.13.13-.25.27-.38.41L8,14.06"/><path class="cls-1" d="M27.18,14c-.13-.06-.15-.14-.06-.26l1-1.25a.12.12,0,0,1,.14-.05c.1,0,0,.1,0,.17-.08.28-.32.45-.47.67s-.3.4-.44.6-.06.13-.15.12"/><path class="cls-1" d="M6.55,13.93a.31.31,0,0,1,.08-.47l1.69-1.37.07.08c-.32.28-.64.55-.94.84s-.59.6-.9.93"/><path class="cls-1" d="M26.75,12.53l-.35.53-.64,1c0,.07-.11.14-.2.08s0-.13,0-.18a7.79,7.79,0,0,0,1-1.49.14.14,0,0,1,.17-.09c.06,0,.08.06,0,.2"/><path class="cls-1" d="M8.76,14.27a2.14,2.14,0,0,1,1.3-1.37l-1.3,1.37"/><path class="cls-1" d="M7.71,11.88c-.35.69-1,.84-1.37,1.38a.09.09,0,0,1-.14,0,.1.1,0,0,1,0-.15,2.17,2.17,0,0,1,.31-.33c.38-.29.76-.57,1.23-.92"/><path class="cls-1" d="M10.46,13.35c.1.15,0,.22-.06.28a3.84,3.84,0,0,0-.71.75c0,.08-.11.13-.2,0s0-.13,0-.18l1-.9"/><path class="cls-1" d="M28.53,12.92c-.09.34-.37.6-.42,1a.1.1,0,0,1-.16.06.16.16,0,0,1,0-.22c.17-.29.35-.57.53-.86l.1.06"/><path class="cls-1" d="M11.13,13.77c-.23.45-.62.58-.8.91,0,.05-.09.05-.14,0s0-.1,0-.14a3.16,3.16,0,0,1,.93-.78"/><path class="cls-1" d="M7,11.82c-.2.45-.66.52-.83.88,0,0-.08,0-.1,0a.12.12,0,0,1,0-.18c.27-.23.46-.58.93-.7"/><path class="cls-1" d="M23.58,14.65l-.45.85a.09.09,0,0,1-.14,0,.14.14,0,0,1,0-.21,1.54,1.54,0,0,1,.62-.68"/><path class="cls-1" d="M23.87,15.07a2.12,2.12,0,0,1,.58-.95c-.2.31-.28.69-.58.95"/><path class="cls-1" d="M14.08,15.25c0,.12-.09.17-.15.24s-.1.27-.27.28-.09,0-.09-.06a.69.69,0,0,1,.22-.42.21.21,0,0,1,.29,0"/><path class="cls-1" d="M11.49,14.35l-.48.56c0-.29.12-.53.48-.56"/><path class="cls-1" d="M14.34,16c-.08,0-.13,0-.11-.09a.54.54,0,0,1,.35-.42c.07,0,.16,0,.13.1a.84.84,0,0,1-.37.41"/><path class="cls-1" d="M11.7,15a.74.74,0,0,1,.59-.52c-.15.29-.41.37-.59.52"/><path class="cls-1" d="M13,15.63c0-.36.25-.44.47-.52a1.29,1.29,0,0,1-.47.52"/><path class="cls-1" d="M21.57,15.39c.06.26-.2.38-.21.58,0,0-.09,0-.1,0s-.08-.1-.06-.14c.06-.19.12-.39.37-.48"/><path class="cls-1" d="M22.44,15.22c-.08.24-.3.38-.39.6-.06-.33.18-.46.39-.6"/><path class="cls-1" d="M12.86,14.84a.78.78,0,0,1-.53.4c.12-.26.24-.39.53-.4"/><path class="cls-1" d="M9.19,8.82A.74.74,0,0,1,9.11,9c-.11.13-.11.35-.32.38s-.11-.08-.08-.15.18-.39.48-.41"/><path class="cls-1" d="M20.68,9.22c-.09,0-.14,0-.13-.1a.5.5,0,0,1,.33-.39.09.09,0,0,1,.13.11.81.81,0,0,1-.33.38"/><path class="cls-1" d="M24.48,11.49c0-.15,0-.36.22-.41s.11.11.09.18,0,.44-.19.52c-.08,0-.12-.15-.12-.29"/></g></g></svg>