<?xml version="1.0" encoding="UTF-8"?>
<svg width="103.69mm" height="80.971mm" version="1.1" viewBox="0 0 103.69 80.971" xmlns="http://www.w3.org/2000/svg" xmlns:cc="http://creativecommons.org/ns#" xmlns:dc="http://purl.org/dc/elements/1.1/" xmlns:rdf="http://www.w3.org/1999/02/22-rdf-syntax-ns#" xmlns:xlink="http://www.w3.org/1999/xlink">
 <defs>
  <linearGradient id="linear-gradient" x1="91.19" x2="146" y1="302.68" y2="261.27" gradientTransform="rotate(38.84 242.59 236.49)" gradientUnits="userSpaceOnUse">
   <stop stop-color="#010101" stop-opacity="0" offset="0"/>
   <stop stop-color="#010101" offset=".95"/>
  </linearGradient>
  <linearGradient id="linear-gradient-2" x1="101.96" x2="180.55" y1="293.8" y2="236.35" gradientTransform="rotate(38.84 257.78 217.57)" xlink:href="#linear-gradient"/>
  <linearGradient id="linear-gradient-3" x1="114.75" x2="230.53" y1="285.62" y2="172.13" gradientTransform="rotate(38.84 272.97 198.66)" xlink:href="#linear-gradient"/>
  <linearGradient id="linear-gradient-4" x1="129.85" x2="302.91" y1="272.66" y2="113.71" gradientTransform="rotate(38.84 288.16 179.75)" gradientUnits="userSpaceOnUse">
   <stop stop-color="#010101" stop-opacity="0" offset="0"/>
   <stop stop-color="#010101" stop-opacity=".36" offset=".36"/>
   <stop stop-color="#010101" offset=".95"/>
  </linearGradient>
  <linearGradient id="linear-gradient-5" x1="144.04" x2="243.17" y1="261.09" y2="179.94" gradientTransform="rotate(38.84 316.8 144.33)" gradientUnits="userSpaceOnUse">
   <stop stop-color="#fff" stop-opacity="0" offset="0"/>
   <stop stop-color="#fff" stop-opacity=".22" offset=".07"/>
   <stop stop-color="#fff" stop-opacity=".45" offset=".16"/>
   <stop stop-color="#fff" stop-opacity=".65" offset=".25"/>
   <stop stop-color="#fff" stop-opacity=".8" offset=".33"/>
   <stop stop-color="#fff" stop-opacity=".91" offset=".4"/>
   <stop stop-color="#fff" stop-opacity=".98" offset=".46"/>
   <stop stop-color="#fff" offset=".51"/>
  </linearGradient>
  <linearGradient id="linear-gradient-6" x1="149.21" x2="203.49" y1="257.97" y2="211.09" gradientTransform="rotate(38.84 331.99 125.4)" xlink:href="#linear-gradient-5"/>
  <linearGradient id="linear-gradient-7" x1="281.09" x2="288.14" y1="352.88" y2="293.67" xlink:href="#linear-gradient"/>
  <linearGradient id="linear-gradient-8" x1="286.55" x2="283.73" y1="163.37" y2="377.68" xlink:href="#linear-gradient-5"/>
  <linearGradient id="linear-gradient-9" x1="281.79" x2="284.96" y1="345.2" y2="409.44" xlink:href="#linear-gradient"/>
  <linearGradient id="linear-gradient-10" x1="423.51" x2="567.32" y1="258.04" y2="269.67" xlink:href="#linear-gradient"/>
  <linearGradient id="linear-gradient-11" x1="427.71" x2="442.37" y1="137.08" y2="138.14" xlink:href="#linear-gradient-5"/>
  <linearGradient id="linear-gradient-12" x1="431.4" x2="436.47" y1="129.69" y2="130.05" xlink:href="#linear-gradient"/>
  <linearGradient id="linear-gradient-13" x1="433.31" x2="434.11" y1="357" y2="388.72" xlink:href="#linear-gradient"/>
  <linearGradient id="linear-gradient-14" x1="447.88" x2="415.89" y1="393.39" y2="424.05" xlink:href="#linear-gradient"/>
  <linearGradient id="linear-gradient-15" x1="426.59" x2="681.94" y1="242.89" y2="234.96" xlink:href="#linear-gradient"/>
  <linearGradient id="linear-gradient-16" x1="442.96" x2="543.64" y1="100.87" y2="97.74" xlink:href="#linear-gradient-5"/>
  <linearGradient id="linear-gradient-17" x1="442.96" x2="543.64" y1="108.14" y2="105.01" xlink:href="#linear-gradient-5"/>
  <linearGradient id="linear-gradient-18" x1="442.96" x2="543.64" y1="115.41" y2="112.28" xlink:href="#linear-gradient-5"/>
  <linearGradient id="linear-gradient-19" x1="442.96" x2="543.64" y1="122.68" y2="119.55" xlink:href="#linear-gradient-5"/>
  <linearGradient id="linear-gradient-20" x1="442.96" x2="543.64" y1="129.95" y2="126.82" xlink:href="#linear-gradient-5"/>
  <linearGradient id="linear-gradient-21" x1="442.96" x2="543.64" y1="137.21" y2="134.09" xlink:href="#linear-gradient-5"/>
  <linearGradient id="linear-gradient-22" x1="442.96" x2="543.64" y1="144.48" y2="141.36" xlink:href="#linear-gradient-5"/>
  <linearGradient id="linear-gradient-23" x1="442.96" x2="543.64" y1="151.75" y2="148.63" xlink:href="#linear-gradient-5"/>
  <linearGradient id="linear-gradient-24" x1="442.96" x2="543.64" y1="159.02" y2="155.9" xlink:href="#linear-gradient-5"/>
  <linearGradient id="linear-gradient-25" x1="442.96" x2="543.64" y1="166.29" y2="163.16" xlink:href="#linear-gradient-5"/>
  <linearGradient id="linear-gradient-26" x1="442.96" x2="543.64" y1="173.56" y2="170.43" xlink:href="#linear-gradient-5"/>
  <linearGradient id="linear-gradient-27" x1="442.96" x2="543.64" y1="180.83" y2="177.7" xlink:href="#linear-gradient-5"/>
  <linearGradient id="linear-gradient-28" x1="442.96" x2="543.64" y1="188.1" y2="184.97" xlink:href="#linear-gradient-5"/>
  <linearGradient id="linear-gradient-29" x1="442.96" x2="543.64" y1="195.37" y2="192.24" xlink:href="#linear-gradient-5"/>
  <linearGradient id="linear-gradient-30" x1="442.96" x2="543.64" y1="202.64" y2="199.51" xlink:href="#linear-gradient-5"/>
  <linearGradient id="linear-gradient-31" x1="442.96" x2="543.64" y1="209.91" y2="206.78" xlink:href="#linear-gradient-5"/>
  <linearGradient id="linear-gradient-32" x1="442.96" x2="543.64" y1="217.18" y2="214.05" xlink:href="#linear-gradient-5"/>
  <linearGradient id="linear-gradient-33" x1="442.96" x2="543.64" y1="224.45" y2="221.32" xlink:href="#linear-gradient-5"/>
  <linearGradient id="linear-gradient-34" x1="442.96" x2="543.64" y1="231.71" y2="228.59" xlink:href="#linear-gradient-5"/>
  <linearGradient id="linear-gradient-35" x1="442.96" x2="543.64" y1="238.98" y2="235.86" xlink:href="#linear-gradient-5"/>
  <linearGradient id="linear-gradient-36" x1="442.96" x2="543.64" y1="246.25" y2="243.13" xlink:href="#linear-gradient-5"/>
  <linearGradient id="linear-gradient-37" x1="442.96" x2="543.64" y1="253.52" y2="250.4" xlink:href="#linear-gradient-5"/>
  <linearGradient id="linear-gradient-38" x1="442.96" x2="543.64" y1="260.79" y2="257.67" xlink:href="#linear-gradient-5"/>
  <linearGradient id="linear-gradient-39" x1="442.96" x2="543.64" y1="268.06" y2="264.93" xlink:href="#linear-gradient-5"/>
  <linearGradient id="linear-gradient-40" x1="442.96" x2="543.64" y1="275.33" y2="272.2" xlink:href="#linear-gradient-5"/>
  <linearGradient id="linear-gradient-41" x1="442.96" x2="543.64" y1="282.6" y2="279.47" xlink:href="#linear-gradient-5"/>
  <linearGradient id="linear-gradient-42" x1="442.96" x2="543.64" y1="289.87" y2="286.74" xlink:href="#linear-gradient-5"/>
  <linearGradient id="linear-gradient-43" x1="442.96" x2="543.64" y1="297.14" y2="294.01" xlink:href="#linear-gradient-5"/>
  <linearGradient id="linear-gradient-44" x1="442.96" x2="543.64" y1="304.41" y2="301.28" xlink:href="#linear-gradient-5"/>
  <linearGradient id="linear-gradient-45" x1="442.96" x2="543.64" y1="311.68" y2="308.55" xlink:href="#linear-gradient-5"/>
  <linearGradient id="linear-gradient-46" x1="442.96" x2="543.64" y1="318.95" y2="315.82" xlink:href="#linear-gradient-5"/>
  <linearGradient id="linear-gradient-47" x1="442.96" x2="543.64" y1="326.22" y2="323.09" xlink:href="#linear-gradient-5"/>
  <linearGradient id="linear-gradient-48" x1="442.96" x2="543.64" y1="333.48" y2="330.36" xlink:href="#linear-gradient-5"/>
  <linearGradient id="linear-gradient-49" x1="442.96" x2="543.64" y1="340.75" y2="337.63" xlink:href="#linear-gradient-5"/>
  <linearGradient id="linear-gradient-50" x1="442.96" x2="543.64" y1="348.02" y2="344.9" xlink:href="#linear-gradient-5"/>
  <linearGradient id="linear-gradient-51" x1="442.96" x2="543.64" y1="355.29" y2="352.17" xlink:href="#linear-gradient-5"/>
  <linearGradient id="linear-gradient-52" x1="442.96" x2="543.64" y1="362.56" y2="359.44" xlink:href="#linear-gradient-5"/>
  <linearGradient id="linear-gradient-53" x1="442.96" x2="543.64" y1="369.83" y2="366.7" xlink:href="#linear-gradient-5"/>
  <linearGradient id="linear-gradient-54" x1="442.96" x2="543.64" y1="377.1" y2="373.97" xlink:href="#linear-gradient-5"/>
  <linearGradient id="linear-gradient-55" x1="442.96" x2="543.64" y1="384.37" y2="381.24" xlink:href="#linear-gradient-5"/>
  <linearGradient id="linear-gradient-56" x1="39.44" x2="1737.8" y1="206.38" y2="153.63" xlink:href="#linear-gradient-5"/>
  <linearGradient id="linear-gradient-57" x1="180.65" x2="183.82" y1="162.61" y2="361.93" xlink:href="#linear-gradient-5"/>
  <linearGradient id="linear-gradient-58" x1="280.34" x2="278.56" y1="181.75" y2="317.15" xlink:href="#linear-gradient-5"/>
  <linearGradient id="linear-gradient-59" x1="252.08" x2="258.77" y1="269.03" y2="-2.71" xlink:href="#linear-gradient"/>
  <linearGradient id="linear-gradient-60" x1="251.59" x2="258.28" y1="269.02" y2="-2.72" xlink:href="#linear-gradient"/>
  <linearGradient id="linear-gradient-61" x1="207.09" x2="213.79" y1="267.92" y2="-3.82" xlink:href="#linear-gradient"/>
  <linearGradient id="linear-gradient-62" x1="206.6" x2="213.3" y1="267.91" y2="-3.83" xlink:href="#linear-gradient"/>
  <linearGradient id="linear-gradient-63" x1="251.05" x2="257.75" y1="269.01" y2="-2.73" xlink:href="#linear-gradient"/>
  <linearGradient id="linear-gradient-64" x1="207.2" x2="213.89" y1="267.93" y2="-3.81" xlink:href="#linear-gradient"/>
  <linearGradient id="linear-gradient-65" x1="229.48" x2="236.18" y1="268.47" y2="-3.26" xlink:href="#linear-gradient"/>
  <linearGradient id="linear-gradient-66" x1="230.52" x2="237.22" y1="268.5" y2="-3.24" xlink:href="#linear-gradient"/>
  <linearGradient id="linear-gradient-67" x1="227.11" x2="344.74" y1="250.42" y2="348.22" xlink:href="#linear-gradient-5"/>
  <linearGradient id="linear-gradient-68" x1="371.69" x2="370.84" y1="174.65" y2="238.96" xlink:href="#linear-gradient-5"/>
  <linearGradient id="linear-gradient-69" x1="371.69" x2="370.84" y1="226.46" y2="290.77" xlink:href="#linear-gradient-5"/>
  <linearGradient id="linear-gradient-70" x1="181.92" x2="181.81" y1="191.35" y2="199.68" xlink:href="#linear-gradient-5"/>
  <linearGradient id="linear-gradient-71" x1="95.3" x2="150.1" y1="199.15" y2="157.73" gradientTransform="rotate(38.84 103.06 193.24)" xlink:href="#linear-gradient"/>
  <linearGradient id="linear-gradient-72" x1="106.06" x2="184.66" y1="190.27" y2="132.82" gradientTransform="rotate(38.84 114.95 183.73)" xlink:href="#linear-gradient"/>
  <linearGradient id="linear-gradient-73" x1="118.85" x2="234.63" y1="182.09" y2="68.6" gradientTransform="rotate(38.84 126.85 174.22)" xlink:href="#linear-gradient"/>
  <linearGradient id="linear-gradient-74" x1="133.96" x2="307.01" y1="169.13" y2="10.17" gradientTransform="rotate(38.84 138.73 164.71)" xlink:href="#linear-gradient-4"/>
  <linearGradient id="linear-gradient-75" x1="148.35" x2="232.52" y1="128.74" y2="59.83" xlink:href="#linear-gradient-5"/>
  <linearGradient id="linear-gradient-76" x1="153.32" x2="207.59" y1="154.43" y2="107.56" gradientTransform="rotate(38.84 173.02 137.39)" xlink:href="#linear-gradient-5"/>
  <linearGradient id="linear-gradient-77" x1="126.16" x2="144.93" y1="213.1" y2="213.63" xlink:href="#linear-gradient-5"/>
  <linearGradient id="linear-gradient-78" x1="103.09" x2="151.73" y1="200.75" y2="206.3" xlink:href="#linear-gradient"/>
  <linearGradient id="linear-gradient-79" x1="103.9" x2="151.95" y1="246.5" y2="251.98" xlink:href="#linear-gradient"/>
  <linearGradient id="linearGradient1429" x1="91.19" x2="146" y1="302.68" y2="261.27" gradientTransform="rotate(38.84 242.59 236.49)" gradientUnits="userSpaceOnUse" xlink:href="#linear-gradient"/>
  <linearGradient id="linearGradient1431" x1="129.85" x2="302.91" y1="272.66" y2="113.71" gradientTransform="rotate(38.84 288.16 179.75)" gradientUnits="userSpaceOnUse" xlink:href="#linear-gradient-4"/>
  <linearGradient id="linearGradient1433" x1="144.04" x2="243.17" y1="261.09" y2="179.94" gradientTransform="rotate(38.84 316.8 144.33)" gradientUnits="userSpaceOnUse" xlink:href="#linear-gradient-5"/>
 </defs>
 <metadata>
  <rdf:RDF>
   <cc:Work rdf:about="">
    <dc:format>image/svg+xml</dc:format>
    <dc:type rdf:resource="http://purl.org/dc/dcmitype/StillImage"/>
    <dc:title/>
   </cc:Work>
  </rdf:RDF>
 </metadata>
 <g transform="translate(-33.686 -58.792)">
  <g transform="matrix(.18425 0 0 .18425 33.684 58.792)">
   <path transform="translate(-2.57,-26.51)" d="m122.82 59.33c-45.3 38.05-52.32 110-83 163.08-10.68 18.47-24.48 35-31.68 55.49-16.53 46.9 6.22 100.1 36.67 137.35 14.52 17.77 31.48 34.05 52 41.54 15.78 5.76 32.7 6 49.31 6.15l291 3c32.49 0.33 68.59-0.86 91.95-26 16.1-17.31 22.64-42.59 28.19-66.72 6.82-29.65 13-61.85 2.39-90.09-12.12-32.31-42.77-50.62-61.81-78.5-30.9-45.17-30.19-113.49-69.54-149.55-18.37-16.83-42.61-23.43-66.23-26.73-44.53-6.23-86.71 5.53-130.44 3.89-37.38-1.4-77.8 1.04-108.81 27.09z" fill="#0a72ef" opacity=".24" style="isolation:isolate"/>
   <path transform="translate(-2.57,-26.51)" d="m152.08 404.87c-22.16 2.21-45 4.64-64.5 15.45-2.61 1.45-5.26 3.16-6.7 5.77-2.89 5.25 0.39 12.17 5.48 15.33s11.37 3.52 17.36 3.78c106.66 4.61 213.48 2.8 320.23 1 31-0.52 62.49-1.12 92.2-10.05 5.34-1.6 11.21-4 13.22-9.23 2.63-6.84-3.37-14.42-10.37-16.55s-14.47-0.54-21.71 0.39c-25.14 3.23-50.5-1.71-75.53-5.66-49-7.72-99.84-14-149.47-15.17-16.92-0.39-31.37 5.43-47.93 7.73-23.91 3.34-48.24 4.81-72.28 7.21z" fill="#0a72ef" opacity=".24" style="isolation:isolate"/>
   <rect transform="rotate(-63.88 87.175 138.88)" x="46.97" y="131.75" width="125.5" height="36.65" fill="#fff"/>
   <rect transform="rotate(-63.95 70.385 182.22)" x="85.24" y="181.07" width="15.33" height="24.67" fill="#0a72ef"/>
   <rect transform="rotate(-63.95 70.385 182.22)" x="85.24" y="181.07" width="15.33" height="24.67" fill="url(#linearGradient1429)"/>
   <rect transform="rotate(-63.95 77.113 168.55)" x="91.97" y="167.41" width="15.33" height="24.67" fill="#0a72ef"/>
   <rect transform="rotate(-63.95 77.113 168.55)" x="91.97" y="167.41" width="15.33" height="24.67" fill="url(#linear-gradient-2)"/>
   <rect transform="rotate(-63.95 83.84 154.89)" x="98.7" y="153.74" width="15.33" height="24.67" fill="#0a72ef"/>
   <rect transform="rotate(-63.95 83.84 154.89)" x="98.7" y="153.74" width="15.33" height="24.67" fill="url(#linear-gradient-3)"/>
   <rect transform="rotate(-63.95 90.581 141.22)" x="105.43" y="140.08" width="15.33" height="24.67" fill="#0a72ef"/>
   <rect transform="rotate(-63.95 90.581 141.22)" x="105.43" y="140.08" width="15.33" height="24.67" fill="url(#linearGradient1431)"/>
   <g fill="#0a72ef">
    <rect transform="rotate(-63.95 97.308 127.55)" x="112.17" y="126.41" width="15.33" height="24.67"/>
    <rect transform="rotate(-63.95 104.04 113.89)" x="118.9" y="112.75" width="15.33" height="24.67"/>
    <rect transform="rotate(-63.95 110.77 100.23)" x="125.63" y="99.08" width="15.33" height="24.67"/>
   </g>
   <rect transform="rotate(-63.95 103.29 115.6)" x="118.14" y="114.46" width="15.33" height="24.67" fill="url(#linearGradient1433)"/>
   <rect transform="rotate(-63.95 110.02 101.94)" x="124.88" y="100.8" width="15.33" height="24.67" fill="url(#linear-gradient-6)"/>
   <rect x="259" y="323.78" width="46.52" height="38.42" fill="#0a72ef"/>
   <rect x="259" y="323.78" width="46.52" height="38.42" fill="url(#linear-gradient-7)"/>
   <rect x="159.68" y="160.02" width="246.85" height="169.75" rx="9.37" fill="#0a72ef"/>
   <path transform="translate(-2.57,-26.51)" d="m401.63 201.47v140.22a8.76 8.76 0 0 1-8.75 8.79h-215.52a8.77 8.77 0 0 1-8.75-8.79v-140.22a8.77 8.77 0 0 1 8.75-8.79h215.52a8.76 8.76 0 0 1 8.75 8.79z" fill="url(#linear-gradient-8)" opacity=".65"/>
   <rect x="237.15" y="358.32" width="98.33" height="10.22" fill="#0a72ef"/>
   <rect x="259.05" y="353.03" width="46.52" height="5.42" fill="url(#linear-gradient-9)"/>
   <g fill="#0a72ef">
    <path transform="translate(-2.57,-26.51)" d="m335.61 114.12v-9.77h-6.49a27.65 27.65 0 0 0-4.1-9.57l5-5-6.87-6.94-5 4.92a28.07 28.07 0 0 0-11-4.81v-6.87h-9.76v6.72a26.45 26.45 0 0 0-11 4.17l-4-4.17-7.06 6.8 3.91 4.05a27.36 27.36 0 0 0-5 10.7h-7v9.77h6.76a27.6 27.6 0 0 0 4.92 12.54l-4.21 4.13 6.91 7 4.24-4.21a27.44 27.44 0 0 0 11.61 4.55v6.19h9.76v-6.34a28 28 0 0 0 10.37-4.36l5.07 5.26 7.06-6.8-5.15-5.33a27.36 27.36 0 0 0 5-12.58zm-33.91 12.88a16.47 16.47 0 1 1 16.49-16.45 16.44 16.44 0 0 1-16.49 16.45z"/>
    <path transform="translate(-2.57,-26.51)" d="m371.4 127.19 0.44-5.78-3.85-0.28a16.11 16.11 0 0 0-2-5.85l3.2-2.73-3.76-4.41-3.17 2.69a16.48 16.48 0 0 0-6.26-3.33l0.31-4.07-5.77-0.43-0.3 4a15.8 15.8 0 0 0-6.67 2l-2.17-2.64-4.48 3.7 2.13 2.57a16.34 16.34 0 0 0-3.41 6.11l-4.13-0.31-0.43 5.77 3.89 0.3a16.31 16.31 0 0 0 2.35 7.63l-2.67 2.26 3.77 4.41 2.7-2.3a16.27 16.27 0 0 0 6.66 3.21l-0.28 3.66 5.77 0.43 0.29-3.75a16.64 16.64 0 0 0 6.32-2.11l2.76 3.33 4.48-3.7-2.81-3.39a16.16 16.16 0 0 0 3.49-7.21zm-20.62 6.08a9.76 9.76 0 1 1 10.48-9 9.74 9.74 0 0 1-10.48 9z"/>
    <path transform="translate(-2.57,-26.51)" d="m445.57 175.14v231a8.71 8.71 0 0 1-8.68 8.68h-1a8.68 8.68 0 0 1-8.64-8.68v-231l8.71-22.9z"/>
   </g>
   <rect x="433.11" y="148.61" width="9.87" height="221.21" fill="url(#linear-gradient-10)"/>
   <polygon points="443.07 148.97 424.67 148.63 430.34 133.72 433.38 125.72 436.72 133.72" fill="url(#linear-gradient-11)" opacity=".65"/>
   <polygon points="433.38 125.72 436.72 133.72 430.34 133.72" fill="url(#linear-gradient-12)"/>
   <rect x="424.26" y="366.12" width="18.77" height="7.93" fill="url(#linear-gradient-13)"/>
   <path transform="translate(-2.57,-26.51)" d="m445.57 399v7.17a8.71 8.71 0 0 1-8.68 8.68h-1a8.68 8.68 0 0 1-8.64-8.68v-7.17z" fill="url(#linear-gradient-14)"/>
   <rect x="450.56" y="95.04" width="49.34" height="293.94" fill="#0a72ef"/>
   <rect x="450.56" y="94.51" width="25.91" height="294.47" fill="url(#linear-gradient-15)"/>
   <rect x="450.65" y="99.23" width="13.75" height="2.38" fill="url(#linear-gradient-16)" opacity=".65"/>
   <rect x="450.65" y="106.5" width="13.75" height="2.38" fill="url(#linear-gradient-17)" opacity=".65"/>
   <rect x="450.65" y="113.76" width="13.75" height="2.38" fill="url(#linear-gradient-18)" opacity=".65"/>
   <rect x="450.65" y="121.03" width="13.75" height="2.38" fill="url(#linear-gradient-19)" opacity=".65"/>
   <rect x="450.65" y="128.3" width="13.75" height="2.38" fill="url(#linear-gradient-20)" opacity=".65"/>
   <rect x="450.65" y="135.57" width="13.75" height="2.38" fill="url(#linear-gradient-21)" opacity=".65"/>
   <rect x="450.65" y="142.84" width="13.75" height="2.38" fill="url(#linear-gradient-22)" opacity=".65"/>
   <rect x="450.65" y="150.11" width="13.75" height="2.38" fill="url(#linear-gradient-23)" opacity=".65"/>
   <rect x="450.65" y="157.38" width="13.75" height="2.38" fill="url(#linear-gradient-24)" opacity=".65"/>
   <rect x="450.65" y="164.65" width="13.75" height="2.38" fill="url(#linear-gradient-25)" opacity=".65"/>
   <rect x="450.65" y="171.92" width="13.75" height="2.38" fill="url(#linear-gradient-26)" opacity=".65"/>
   <rect x="450.65" y="179.19" width="13.75" height="2.38" fill="url(#linear-gradient-27)" opacity=".65"/>
   <rect x="450.65" y="186.46" width="13.75" height="2.38" fill="url(#linear-gradient-28)" opacity=".65"/>
   <rect x="450.65" y="193.73" width="13.75" height="2.38" fill="url(#linear-gradient-29)" opacity=".65"/>
   <rect x="450.65" y="201" width="13.75" height="2.38" fill="url(#linear-gradient-30)" opacity=".65"/>
   <rect x="450.65" y="208.27" width="13.75" height="2.38" fill="url(#linear-gradient-31)" opacity=".65"/>
   <rect x="450.65" y="215.53" width="13.75" height="2.38" fill="url(#linear-gradient-32)" opacity=".65"/>
   <rect x="450.65" y="222.8" width="13.75" height="2.38" fill="url(#linear-gradient-33)" opacity=".65"/>
   <rect x="450.65" y="230.07" width="13.75" height="2.38" fill="url(#linear-gradient-34)" opacity=".65"/>
   <rect x="450.65" y="237.34" width="13.75" height="2.38" fill="url(#linear-gradient-35)" opacity=".65"/>
   <rect x="450.65" y="244.61" width="13.75" height="2.38" fill="url(#linear-gradient-36)" opacity=".65"/>
   <rect x="450.65" y="251.88" width="13.75" height="2.38" fill="url(#linear-gradient-37)" opacity=".65"/>
   <rect x="450.65" y="259.15" width="13.75" height="2.38" fill="url(#linear-gradient-38)" opacity=".65"/>
   <rect x="450.65" y="266.42" width="13.75" height="2.38" fill="url(#linear-gradient-39)" opacity=".65"/>
   <rect x="450.65" y="273.69" width="13.75" height="2.38" fill="url(#linear-gradient-40)" opacity=".65"/>
   <rect x="450.65" y="280.96" width="13.75" height="2.38" fill="url(#linear-gradient-41)" opacity=".65"/>
   <rect x="450.65" y="288.23" width="13.75" height="2.38" fill="url(#linear-gradient-42)" opacity=".65"/>
   <rect x="450.65" y="295.5" width="13.75" height="2.38" fill="url(#linear-gradient-43)" opacity=".65"/>
   <rect x="450.65" y="302.77" width="13.75" height="2.38" fill="url(#linear-gradient-44)" opacity=".65"/>
   <rect x="450.65" y="310.04" width="13.75" height="2.38" fill="url(#linear-gradient-45)" opacity=".65"/>
   <rect x="450.65" y="317.3" width="13.75" height="2.38" fill="url(#linear-gradient-46)" opacity=".65"/>
   <rect x="450.65" y="324.57" width="13.75" height="2.38" fill="url(#linear-gradient-47)" opacity=".65"/>
   <rect x="450.65" y="331.84" width="13.75" height="2.38" fill="url(#linear-gradient-48)" opacity=".65"/>
   <rect x="450.65" y="339.11" width="13.75" height="2.38" fill="url(#linear-gradient-49)" opacity=".65"/>
   <rect x="450.65" y="346.38" width="13.75" height="2.38" fill="url(#linear-gradient-50)" opacity=".65"/>
   <rect x="450.65" y="353.65" width="13.75" height="2.38" fill="url(#linear-gradient-51)" opacity=".65"/>
   <rect x="450.65" y="360.92" width="13.75" height="2.38" fill="url(#linear-gradient-52)" opacity=".65"/>
   <rect x="450.65" y="368.19" width="13.75" height="2.38" fill="url(#linear-gradient-53)" opacity=".65"/>
   <rect x="450.65" y="375.46" width="13.75" height="2.38" fill="url(#linear-gradient-54)" opacity=".65"/>
   <rect x="450.65" y="382.73" width="13.75" height="2.38" fill="url(#linear-gradient-55)" opacity=".65"/>
   <path transform="translate(-2.57,-26.51)" d="m401.63 201.47v3.08h-233v-3.08a8.77 8.77 0 0 1 8.75-8.79h215.5a8.76 8.76 0 0 1 8.75 8.79z" fill="url(#linear-gradient-56)"/>
   <rect x="170.89" y="192.85" width="22.2" height="108.38" fill="url(#linear-gradient-57)"/>
   <rect x="226.58" y="200.07" width="105.73" height="100.1" fill="url(#linear-gradient-58)"/>
   <rect x="250.54" y="247.3" width="4.03" height="4.23" fill="url(#linear-gradient-59)"/>
   <rect x="250.54" y="227.39" width="4.03" height="4.23" fill="url(#linear-gradient-60)"/>
   <rect x="205.53" y="247.3" width="4.03" height="4.23" fill="url(#linear-gradient-61)"/>
   <rect x="205.53" y="227.39" width="4.03" height="4.23" fill="url(#linear-gradient-62)"/>
   <rect x="250.54" y="205.53" width="4.03" height="4.23" fill="url(#linear-gradient-63)"/>
   <rect x="206.67" y="205.53" width="4.03" height="4.23" fill="url(#linear-gradient-64)"/>
   <rect x="228.97" y="205.53" width="4.03" height="4.23" fill="url(#linear-gradient-65)"/>
   <rect x="228.97" y="247.65" width="4.03" height="4.23" fill="url(#linear-gradient-66)"/>
   <path transform="translate(-2.57,-26.51)" d="m251.82 273.22h-37.23v-35.47h37.23zm-33.48-3.75h29.73v-28h-29.73z" fill="#0a72ef"/>
   <path transform="translate(-2.57,-26.51)" d="m251.82 273.22h-37.23v-35.47h37.23zm-33.48-3.75h29.73v-28h-29.73z" fill="url(#linear-gradient-67)"/>
   <rect x="347.47" y="183.33" width="47.58" height="47.58" fill="url(#linear-gradient-68)"/>
   <rect x="347.47" y="235.14" width="47.58" height="47.58" fill="url(#linear-gradient-69)"/>
   <rect x="170.49" y="192.58" width="22.73" height="5.95" fill="url(#linear-gradient-70)" opacity=".65"/>
   <rect transform="rotate(-38.77 97.71 151.56)" x="73.93" y="142.85" width="125.5" height="36.65" fill="#fff"/>
   <rect transform="matrix(.78 -.63 .63 .78 -100.99 80.84)" x="95.4" y="180.94" width="15.33" height="24.67" fill="#0a72ef"/>
   <rect transform="matrix(.78 -.63 .63 .78 -100.99 80.84)" x="95.4" y="180.94" width="15.33" height="24.67" fill="url(#linear-gradient-71)"/>
   <rect transform="rotate(-38.84 76.039 174.14)" x="107.29" y="171.43" width="15.33" height="24.67" fill="#0a72ef"/>
   <rect transform="rotate(-38.84 76.039 174.14)" x="107.29" y="171.43" width="15.33" height="24.67" fill="url(#linear-gradient-72)"/>
   <rect transform="rotate(-38.84 87.94 164.62)" x="119.19" y="161.91" width="15.33" height="24.67" fill="#0a72ef"/>
   <rect transform="rotate(-38.84 87.94 164.62)" x="119.19" y="161.91" width="15.33" height="24.67" fill="url(#linear-gradient-73)"/>
   <rect transform="rotate(-38.84 99.842 155.11)" x="131.08" y="152.39" width="15.33" height="24.67" fill="#0a72ef"/>
   <rect transform="rotate(-38.84 99.842 155.11)" x="131.08" y="152.39" width="15.33" height="24.67" fill="url(#linear-gradient-74)"/>
   <g fill="#0a72ef">
    <rect transform="matrix(.78 -.63 .63 .78 -66.61 102.26)" x="142.98" y="142.88" width="15.33" height="24.67"/>
    <rect transform="matrix(.78 -.63 .63 .78 -57.88 107.63)" x="154.96" y="133.18" width="15.33" height="24.67"/>
    <rect transform="rotate(-38.84 135.51 126.56)" x="166.77" y="123.84" width="15.33" height="24.67"/>
   </g>
   <polygon points="161.99 133.34 146.52 114.12 156.74 106.1 172.21 125.32" fill="url(#linear-gradient-75)"/>
   <rect transform="rotate(-38.84 134.1 127.8)" x="165.36" y="125.08" width="15.33" height="24.67" fill="url(#linear-gradient-76)"/>
   <path transform="translate(-2.57,-26.51)" d="m135.42 189.9v59.1h-10.33v-59.1a5.12 5.12 0 0 1 3.45-4.84v-5.9a1.84 1.84 0 0 1 3.68 0v6a5.15 5.15 0 0 1 3.2 4.74z" fill="#0a72ef"/>
   <path transform="translate(-2.57,-26.51)" d="m135.42 189.9v59.1h-10.33v-59.1a5.12 5.12 0 0 1 3.45-4.84v-5.9a1.84 1.84 0 0 1 3.68 0v6a5.15 5.15 0 0 1 3.2 4.74z" fill="url(#linear-gradient-77)"/>
   <rect x="115.91" y="201.3" width="23.53" height="4.49" rx="2.25" fill="#0a72ef"/>
   <path transform="translate(-2.57,-26.51)" d="m130.47 267.64c-4.09 0-7.49-6.13-7.49-10.22v-27.09h14.8v27.09c0 4.09-3.23 10.22-7.31 10.22z" fill="#0a72ef"/>
   <rect x="115.91" y="201.3" width="23.53" height="4.49" rx="2.25" fill="url(#linear-gradient-78)"/>
   <path transform="translate(-2.57,-26.51)" d="m130.47 267.64c-4.09 0-7.49-6.13-7.49-10.22v-25.2h14.8v25.2c0 4.09-3.23 10.22-7.31 10.22z" fill="url(#linear-gradient-79)"/>
   <path transform="translate(-2.57,-26.51)" d="m269.33 253.12c-299.72-363.8-149.86-181.9 0 0z" fill="#ffcd9c"/>
  </g>
 </g>
</svg>
