<?xml version="1.0" encoding="UTF-8" standalone="no"?>
<svg
   xmlns:dc="http://purl.org/dc/elements/1.1/"
   xmlns:cc="http://creativecommons.org/ns#"
   xmlns:rdf="http://www.w3.org/1999/02/22-rdf-syntax-ns#"
   xmlns:svg="http://www.w3.org/2000/svg"
   xmlns="http://www.w3.org/2000/svg"
   width="401"
   height="400"
   viewBox="0 0 401 400"
   fill="none"
   version="1.1"
   id="svg26">
  <title
     id="title841">Kartoitus</title>
  <metadata
     id="metadata32">
    <rdf:RDF>
      <cc:Work
         rdf:about="">
        <dc:format>image/svg+xml</dc:format>
        <dc:type
           rdf:resource="http://purl.org/dc/dcmitype/StillImage" />
        <dc:title>Kartoitus</dc:title>
      </cc:Work>
    </rdf:RDF>
  </metadata>
  <defs
     id="defs30" />
  <circle
     cx="95.133232"
     cy="266.30344"
     fill="#ffffff"
     stroke="#000000"
     stroke-width="1.92923"
     id="circle2"
     transform="matrix(-0.42801243,0.90377285,0.90377285,0.42801243,0,0)"
     r="198.995"
     style="stroke:#00122a;stroke-opacity:1" />
  <path
     d="M225.105 276.522L216.462 275.781C210.535 275.287 206.09 270.102 206.09 263.928V109.096H202.88L176.457 119.714V123.171L191.027 117.739C194.731 116.257 198.435 119.467 198.435 123.418V263.928C198.435 269.855 193.99 275.287 188.063 275.781L179.42 276.522V278.991H225.105V276.522Z"
     fill="black"
     id="path4"
     style="fill:#00122a;fill-opacity:1" />
  <g
     aria-label="Kartoitus"
     transform="translate(0,-34.99997)"
     id="text36"
     style="font-size:40px;line-height:1.25;font-family:'SF Pro Text';-inkscape-font-specification:'SF Pro Text'">
    <path
       d="m 117.96451,381.51863 3.26753,1.29727 3.63234,-9.14908 4.517,-2.22039 4.44878,16.37115 4.22963,1.67923 -5.52657,-19.42582 14.96421,-7.15081 -4.10256,-1.62879 -16.52477,8.17035 -0.29045,-0.11531 5.05213,-12.72519 -3.26752,-1.29727 z"
       style="fill:#00122a;fill-opacity:1"
       id="path864" />
    <path
       d="m 147.36802,392.31041 c 2.73865,0.72122 5.18627,0.0934 7.04262,-1.74042 l 0.30219,0.0796 -0.79086,3.00308 3.28639,0.86547 3.6708,-13.93881 c 1.11417,-4.23075 -0.99077,-7.5117 -5.95813,-8.81986 -4.34407,-1.14402 -8.00862,0.1934 -9.37806,3.24607 l -0.0487,0.10835 3.28639,0.86548 0.0338,-0.0517 c 0.94666,-1.44726 2.79083,-1.93106 5.22729,-1.28942 3.04085,0.80082 4.21259,2.56359 3.55105,5.0756 l -0.48745,1.85095 -5.93067,-1.1781 c -4.81532,-0.96516 -8.04943,0.42502 -9.00443,4.05138 l -0.01,0.0378 c -0.9749,3.70191 1.33585,6.8149 5.20775,7.83457 z m -1.82592,-7.02475 0.01,-0.0378 c 0.53222,-2.02094 2.18059,-2.75828 5.32785,-2.13142 l 5.52906,1.09254 -0.48745,1.85095 c -0.76599,2.90864 -3.77943,4.45793 -7.12248,3.57753 -2.36091,-0.62175 -3.79909,-2.29311 -3.25693,-4.35183 z"
       style="fill:#00122a;fill-opacity:1"
       id="path866" />
    <path
       d="m 163.32148,395.66813 3.35491,0.54216 2.0814,-12.87977 c 0.49231,-3.04642 3.09465,-4.70326 6.29531,-4.18603 0.73268,0.11841 1.3565,0.29835 2.03192,0.52621 l 0.52658,-3.2585 c -0.31843,-0.11082 -1.01936,-0.30323 -1.65564,-0.40605 -2.81504,-0.45492 -4.96808,0.50293 -6.1107,2.55394 l -0.3085,-0.0498 0.49854,-3.08498 -3.35491,-0.54216 z"
       style="fill:#00122a;fill-opacity:1"
       id="path868" />
    <path
       d="m 187.00218,398.77402 c 0.6618,0.0548 1.31058,0.0301 1.98205,-0.0319 l 0.23856,-2.88076 c -0.6277,0.007 -0.96021,-0.001 -1.56362,-0.0511 -2.18003,-0.18053 -2.95427,-1.24415 -2.74956,-3.71616 l 0.98327,-11.87342 4.59365,0.38042 0.23212,-2.80291 -4.59366,-0.38041 0.44973,-5.43063 -3.50363,-0.29014 -0.44973,5.43063 -3.30898,-0.27403 -0.23212,2.80291 3.30899,0.27402 -1.05419,12.72986 c -0.33206,4.00971 1.34598,5.75572 5.66712,6.11357 z"
       style="fill:#00122a;fill-opacity:1"
       id="path870" />
    <path
       d="m 202.42341,399.35576 c 5.99558,-0.0784 9.65208,-4.26716 9.564,-11.00486 l -5.1e-4,-0.0391 c -0.0883,-6.75724 -3.85283,-10.82947 -9.84841,-10.75109 -5.99558,0.0784 -9.65233,4.24763 -9.564,11.00486 l 5.2e-4,0.0391 c 0.0881,6.73771 3.85282,10.82947 9.8484,10.75109 z m -0.0393,-3.00755 c -3.98404,0.0521 -6.26798,-2.82847 -6.33283,-7.78898 l -5.1e-4,-0.0391 c -0.0651,-4.98004 2.14301,-7.89978 6.12705,-7.95186 3.98403,-0.0521 6.26772,2.80893 6.33282,7.78897 l 5.1e-4,0.0391 c 0.0648,4.96052 -2.14301,7.89978 -6.12704,7.95187 z"
       style="fill:#00122a;fill-opacity:1"
       id="path872" />
    <path
       d="m 216.72034,373.05853 c 1.28294,-0.12548 2.22996,-1.27782 2.10448,-2.56076 -0.12548,-1.28294 -1.27782,-2.22996 -2.56076,-2.10448 -1.28294,0.12548 -2.22996,1.27782 -2.10448,2.56076 0.12548,1.28294 1.27782,2.22996 2.56076,2.10448 z m 0.73431,25.16521 3.3823,-0.3308 -2.04946,-20.9547 -3.38229,0.3308 z"
       style="fill:#00122a;fill-opacity:1"
       id="path874" />
    <path
       d="m 234.61196,396.11856 c 0.65571,-0.105 1.27978,-0.28404 1.91697,-0.50475 l -0.45703,-2.85427 c -0.60788,0.15668 -0.93264,0.22846 -1.5305,0.32419 -2.15998,0.34586 -3.16604,-0.50183 -3.55822,-2.9511 l -1.88369,-11.76421 4.55139,-0.72878 -0.44467,-2.77712 -4.5514,0.72877 -0.86156,-5.38067 -3.47141,0.55584 0.86156,5.38068 -3.27855,0.52496 0.44468,2.77713 3.27855,-0.52497 2.01957,12.61278 c 0.63613,3.97283 2.68291,5.26706 6.96431,4.58152 z"
       style="fill:#00122a;fill-opacity:1"
       id="path876" />
    <path
       d="m 248.46288,393.3473 c 2.98727,-0.7741 4.72965,-2.53707 5.16828,-4.97101 l 0.30251,-0.0784 0.7888,3.04399 3.28977,-0.85249 -5.28152,-20.3815 -3.28977,0.85249 3.12579,12.06252 c 0.92599,3.57338 -0.41527,6.2614 -4.00756,7.19228 -3.25196,0.84269 -5.03108,-0.57268 -5.98155,-4.2406 l -3.21399,-12.40284 -3.28978,0.85249 3.41976,13.19693 c 1.24934,4.82123 4.3371,6.92648 8.96926,5.72613 z"
       style="fill:#00122a;fill-opacity:1"
       id="path878" />
    <path
       d="m 270.9178,386.27127 c 4.47136,-1.70431 6.959,-5.43245 5.62339,-8.93654 l -0.0139,-0.0365 c -1.07128,-2.81057 -3.47198,-3.73489 -7.51768,-3.21703 l -3.30783,0.42474 c -2.53346,0.31769 -3.83897,-0.14619 -4.34679,-1.47848 l -0.0139,-0.0365 c -0.66085,-1.73379 0.59558,-3.59222 2.93163,-4.48263 2.37256,-0.90432 4.31603,-0.41187 5.32707,0.97942 l 3.12083,-1.18953 c -1.66232,-3.04513 -5.31371,-4.01529 -9.43831,-2.44316 -4.17936,1.593 -6.37933,5.2533 -5.13415,8.52013 l 0.007,0.0183 c 1.07823,2.82882 3.35118,3.80184 7.37167,3.27268 l 3.32608,-0.43169 c 2.64992,-0.34117 4.00847,0.207 4.51628,1.53928 l 0.0139,0.0365 c 0.68172,1.78855 -0.71809,3.76433 -3.36441,4.773 -2.51856,0.95997 -4.49852,0.48144 -5.65386,-0.95937 l -3.24858,1.23823 c 1.60324,3.10946 5.4215,4.07871 9.80161,2.4092 z"
       style="fill:#00122a;fill-opacity:1"
       id="path880" />
  </g>
</svg>
