<?xml version="1.0" encoding="UTF-8" standalone="no"?>
<svg
   xmlns:dc="http://purl.org/dc/elements/1.1/"
   xmlns:cc="http://creativecommons.org/ns#"
   xmlns:rdf="http://www.w3.org/1999/02/22-rdf-syntax-ns#"
   xmlns:svg="http://www.w3.org/2000/svg"
   xmlns="http://www.w3.org/2000/svg"
   width="401"
   height="401"
   viewBox="0 0 401 401"
   fill="none"
   version="1.1"
   id="svg18">
  <title
     id="title857">Suunnittelu</title>
  <metadata
     id="metadata24">
    <rdf:RDF>
      <cc:Work
         rdf:about="">
        <dc:format>image/svg+xml</dc:format>
        <dc:type
           rdf:resource="http://purl.org/dc/dcmitype/StillImage" />
        <dc:title>Suunnittelu</dc:title>
      </cc:Work>
    </rdf:RDF>
  </metadata>
  <defs
     id="defs22" />
  <circle
     cx="69.685379"
     cy="275.13232"
     r="198.995"
     fill="#ffffff"
     stroke="black"
     stroke-width="1.92923"
     id="circle2"
     style="stroke:#00122a;stroke-opacity:1"
     transform="matrix(-0.51094514,0.85961332,0.85961332,0.51094514,0,0)" />
  <path
     d="M239.135 279.511L247.777 254.817L245.555 253.829L240.616 264.695C238.641 268.893 234.443 271.609 229.751 271.609H165.546L214.193 200.243C229.257 178.018 240.369 165.671 240.369 144.434C240.369 128.877 230.492 105.417 200.612 105.417C171.966 105.417 157.397 132.087 157.397 150.855H166.287C167.028 134.804 171.966 109.615 198.636 109.615C226.047 109.615 231.973 134.804 231.973 145.175C231.973 163.696 221.602 181.969 201.352 211.355L154.434 279.511H239.135Z"
     fill="black"
     id="path16"
     style="fill:#00122a;fill-opacity:1" />
  <g
     aria-label="Suunnittelu"
     transform="translate(0,-29.999885)"
     id="text851"
     style="font-size:40px;line-height:1.25;font-family:'SF Pro Text';-inkscape-font-specification:'SF Pro Text'">
    <path
       d="m 110.15485,378.33252 c 5.59829,2.86557 10.76181,1.82247 13.16462,-2.87174 l 0.009,-0.0174 c 1.85105,-3.61628 0.85893,-6.779 -3.778,-10.62255 l -2.46138,-2.04978 c -3.02498,-2.49186 -3.70433,-4.55101 -2.68091,-6.5504 l 0.009,-0.0174 c 1.34379,-2.62528 4.51688,-2.86609 7.65526,-1.28161 3.27746,1.65569 4.52725,4.35788 3.74476,6.74389 l -0.0809,0.24381 3.12947,1.60188 0.10721,-0.25231 c 1.65255,-3.87147 -0.32915,-8.61585 -5.33631,-11.17884 -5.18102,-2.65199 -10.31867,-1.57371 -12.46299,2.57264 l -0.009,0.0174 c -1.85995,3.63367 -0.87031,7.05841 3.58469,10.74301 l 2.47028,2.0324 c 3.05085,2.52704 3.76415,4.69133 2.69623,6.77765 l -0.009,0.0174 c -1.30819,2.55574 -4.69322,3.03913 -8.10087,1.29487 -3.61628,-1.85105 -5.41434,-4.76807 -4.35886,-7.38734 l 0.0805,-0.20015 -3.12947,-1.60187 -0.0805,0.20014 c -1.72623,4.27259 0.34323,8.97412 5.8372,11.7863 z"
       style="fill:#00122a;fill-opacity:1"
       id="path834" />
    <path
       d="m 131.2416,387.3224 c 2.89815,1.06006 5.33361,0.59909 7.07734,-1.15473 l 0.29348,0.10734 -1.08018,2.95318 3.19163,1.16741 7.23255,-19.77347 -3.19163,-1.16741 -4.28049,11.70267 c -1.26805,3.46678 -3.89893,4.9169 -7.38405,3.64215 -3.15496,-1.15399 -3.81499,-3.32951 -2.5134,-6.888 l 4.40126,-12.03283 -3.19164,-1.16741 -4.68304,12.80323 c -1.71085,4.6774 -0.3658,8.16411 4.12817,9.80787 z"
       style="fill:#00122a;fill-opacity:1"
       id="path836" />
    <path
       d="m 153.57521,394.20708 c 3.00284,0.71132 5.36705,-0.0333 6.89206,-1.9803 l 0.30409,0.072 -0.72483,3.05985 3.30692,0.78335 4.85319,-20.48771 -3.30693,-0.78335 -2.87229,12.12538 c -0.85088,3.592 -3.29265,5.34191 -6.90366,4.48653 -3.26891,-0.77435 -4.18059,-2.85698 -3.3072,-6.54401 l 2.95333,-12.46748 -3.30692,-0.78335 -3.14242,13.2657 c -1.14801,4.84635 0.59836,8.15037 5.25466,9.25336 z"
       style="fill:#00122a;fill-opacity:1"
       id="path838" />
    <path
       d="m 169.60251,397.2367 3.37619,0.38826 1.42362,-12.37935 c 0.42173,-3.66724 2.79553,-5.67481 6.13291,-5.29101 3.33738,0.38379 4.68213,2.36682 4.24925,6.13107 l -1.46379,12.72861 3.37619,0.38826 1.5575,-13.54355 c 0.57123,-4.96726 -1.72914,-8.04318 -6.42475,-8.58317 -3.08514,-0.35479 -5.19438,0.71986 -6.49654,2.81135 l -0.31045,-0.0357 0.36148,-3.14334 -3.37618,-0.38826 z"
       style="fill:#00122a;fill-opacity:1"
       id="path840" />
    <path
       d="m 192.83719,399.53154 3.39842,-0.0107 -0.0391,-12.46088 c -0.0116,-3.69138 2.1102,-5.96368 5.46956,-5.97422 3.35936,-0.0105 4.92755,1.80095 4.93944,5.59 l 0.0402,12.81243 3.39842,-0.0107 -0.0428,-13.63275 c -0.0157,-4.99997 -2.66116,-7.78465 -7.3877,-7.76982 -3.10546,0.01 -5.074,1.32452 -6.12169,3.55438 l -0.3125,9.8e-4 -0.01,-3.16404 -3.39842,0.0107 z"
       style="fill:#00122a;fill-opacity:1"
       id="path842" />
    <path
       d="m 215.78193,373.7351 c 1.28424,-0.11139 2.24384,-1.25327 2.13246,-2.53751 -0.11139,-1.28424 -1.25327,-2.24385 -2.53751,-2.13246 -1.28424,0.11139 -2.24385,1.25327 -2.13246,2.53751 0.11139,1.28424 1.25326,2.24384 2.53751,2.13246 z m 0.45805,25.17175 3.38573,-0.29365 -1.81934,-20.97594 -3.38573,0.29366 z"
       style="fill:#00122a;fill-opacity:1"
       id="path844" />
    <path
       d="m 233.41956,396.99194 c 0.65684,-0.0977 1.28287,-0.26973 1.92247,-0.48331 l -0.42513,-2.85919 c -0.60959,0.14987 -0.93513,0.21803 -1.53402,0.30707 -2.16371,0.32173 -3.16024,-0.53714 -3.52505,-2.99064 l -1.75225,-11.7845 4.55925,-0.67792 -0.41365,-2.78191 -4.55925,0.67791 -0.80143,-5.38996 -3.4774,0.51706 0.80144,5.38996 -3.28421,0.48833 0.41365,2.78192 3.28421,-0.48833 1.87863,12.63453 c 0.59175,3.97968 2.62395,5.29668 6.91274,4.65898 z"
       style="fill:#00122a;fill-opacity:1"
       id="path846" />
    <path
       d="m 247.66932,394.09413 c 0.64814,-0.14459 1.26019,-0.36117 1.88281,-0.62014 l -0.62939,-2.82127 c -0.59725,0.19327 -0.91706,0.28463 -1.508,0.41646 -2.13502,0.47629 -3.19066,-0.30879 -3.73074,-2.72975 l -2.5941,-11.62822 4.49879,-1.00362 -0.61238,-2.74502 -4.49879,1.00362 -1.18648,-5.31848 -3.43127,0.76547 1.18648,5.31848 -3.24066,0.72294 0.61238,2.74503 3.24065,-0.72295 2.78121,12.46698 c 0.87604,3.92691 2.99758,5.09455 7.22949,4.15047 z"
       style="fill:#00122a;fill-opacity:1"
       id="path848" />
    <path
       d="m 262.51172,390.09073 c 4.72124,-1.52342 6.72006,-5.12367 6.53213,-8.05937 l -0.0108,-0.1607 -3.23424,1.0436 -0.0204,0.19128 c -0.14919,1.38213 -1.40823,3.20446 -4.12201,4.08012 -3.56881,1.15156 -6.63478,-0.52711 -8.06521,-4.64214 l 14.42395,-4.65421 -0.40784,-1.26396 c -1.93126,-5.98519 -6.54735,-8.96969 -11.9935,-7.21237 -5.44616,1.75733 -7.61032,7.13485 -5.61308,13.32451 l 0.006,0.0186 c 2.02722,6.28259 6.78001,9.18194 12.50498,7.33465 z m -5.98684,-17.79068 c 2.95543,-0.95363 5.75453,0.21599 7.36661,4.06718 l -11.07818,3.57462 c -0.87637,-3.9244 0.73756,-6.68217 3.71157,-7.6418 z"
       style="fill:#00122a;fill-opacity:1"
       id="path850" />
    <path
       d="m 275.97486,384.79044 3.13732,-1.30636 -11.30678,-27.15407 -3.13733,1.30636 z"
       style="fill:#00122a;fill-opacity:1"
       id="path852" />
    <path
       d="m 291.57843,378.06676 c 2.73939,-1.42083 4.0447,-3.52799 3.92947,-5.99845 l 0.2774,-0.14388 1.44781,2.7914 3.0168,-1.56471 -9.69401,-18.69027 -3.0168,1.56471 5.73727,11.06159 c 1.6996,3.27686 0.99161,6.19631 -2.30259,7.9049 -2.98212,1.54673 -5.03209,0.56378 -6.77665,-2.79977 l -5.89913,-11.37367 -3.0168,1.56471 6.27682,12.10186 c 2.29311,4.42117 5.77262,5.78476 10.02041,3.58158 z"
       style="fill:#00122a;fill-opacity:1"
       id="path854" />
  </g>
</svg>
