<?xml version="1.0" encoding="UTF-8" standalone="no"?>
<svg
   xmlns:dc="http://purl.org/dc/elements/1.1/"
   xmlns:cc="http://creativecommons.org/ns#"
   xmlns:rdf="http://www.w3.org/1999/02/22-rdf-syntax-ns#"
   xmlns:svg="http://www.w3.org/2000/svg"
   xmlns="http://www.w3.org/2000/svg"
   width="401"
   height="401"
   viewBox="0 0 401 401"
   fill="none"
   version="1.1"
   id="svg34">
  <title
     id="title885">Design</title>
  <metadata
     id="metadata40">
    <rdf:RDF>
      <cc:Work
         rdf:about="">
        <dc:format>image/svg+xml</dc:format>
        <dc:type
           rdf:resource="http://purl.org/dc/dcmitype/StillImage" />
        <dc:title>Design</dc:title>
      </cc:Work>
    </rdf:RDF>
  </metadata>
  <defs
     id="defs38" />
  <circle
     cx="121.12021"
     cy="255.77083"
     r="198.995"
     fill="#ffffff"
     stroke="black"
     stroke-width="1.92923"
     id="circle2"
     style="stroke:#00122a;stroke-opacity:1"
     transform="matrix(-0.33646809,0.94169487,0.94169487,0.33646809,0,0)" />
  <path
     d="m 207.234,180.372 c 17.533,-3.951 33.091,-19.509 33.091,-37.288 0,-13.088 -8.643,-38.029 -40.993,-38.029 -27.163,0 -40.004,23.706 -40.004,39.51 h 8.643 c 0,-13.581 4.939,-36.547 31.608,-36.547 22.472,0 32.596,19.755 32.35,35.313 -0.247,20.99 -15.805,33.09 -42.227,35.312 v 6.174 c 26.422,-4.445 54.574,13.829 54.574,45.684 0,29.13899 -20.25,48.64699 -44.697,48.64699 -26.669,0 -41.239,-21.236 -41.239,-40.498 h -9.137 c 0,22.719 18.768,43.46201 49.141,43.46201 29.387,0 54.575,-20.74301 54.575,-51.11701 0,-24.19999 -16.792,-47.65999 -45.685,-50.62299 z"
     fill="#000000"
     id="path4"
     style="stroke-width:1;fill:#00122a;fill-opacity:1" />
  <g
     aria-label="Design"
     transform="translate(0,-29.999525)"
     id="text867"
     style="font-size:40px;line-height:1.25;font-family:'SF Pro Text';-inkscape-font-specification:'SF Pro Text';word-spacing:0px">
    <path
       d="m 136.45925,388.97518 9.31501,2.58849 c 8.07301,2.24335 14.21141,-1.46333 16.58549,-10.0068 l 0.0105,-0.0376 c 2.36885,-8.52465 -0.99594,-14.87211 -9.05013,-17.11023 l -9.315,-2.58848 z m 4.23442,-2.10728 5.85154,-21.05756 5.70191,1.58447 c 6.02183,1.67336 8.49078,6.57587 6.65008,13.19988 l -0.0105,0.0376 c -1.83547,6.60518 -6.4317,9.50386 -12.49116,7.82004 z"
       style="fill:#00122a;fill-opacity:1"
       id="path872" />
    <path
       d="m 172.66366,397.62604 c 4.9119,0.69582 8.28446,-1.667 9.39993,-4.38902 l 0.0606,-0.14922 -3.36484,-0.47667 -0.10201,0.16309 c -0.73887,1.17754 -2.66833,2.26532 -5.4917,1.86536 -3.71293,-0.52597 -5.7354,-3.37689 -5.22119,-7.703 l 15.00642,2.12581 0.18629,-1.31499 c 0.8821,-6.2269 -1.9629,-10.93024 -7.62898,-11.7329 -5.66609,-0.80266 -9.96494,3.08595 -10.87717,9.52556 l -0.003,0.0193 c -0.92594,6.53631 2.07924,11.22289 8.0354,12.06664 z m 2.40055,-18.61686 c 3.07477,0.43557 5.07999,2.71198 4.84458,6.88032 l -11.52556,-1.63271 c 0.92902,-3.91228 3.58688,-5.68592 6.68098,-5.24761 z"
       style="fill:#00122a;fill-opacity:1"
       id="path874" />
    <path
       d="m 194.10144,399.44639 c 4.78302,0.1432 8.51146,-2.344 8.62368,-6.09232 l 0.001,-0.039 c 0.09,-3.00647 -1.77176,-4.78173 -5.70619,-5.85698 l -3.21736,-0.87792 c -2.46124,-0.67943 -3.48857,-1.60902 -3.4459,-3.03416 l 0.001,-0.0391 c 0.0555,-1.85464 1.92921,-3.08818 4.42809,-3.01337 2.53793,0.076 4.14333,1.27691 4.54267,2.94976 l 3.33835,0.0999 c -0.36567,-3.44999 -3.36466,-5.7478 -7.77675,-5.87989 -4.47065,-0.13384 -7.90742,2.40117 -8.01204,5.89569 l -5.9e-4,0.0195 c -0.0906,3.02598 1.63452,4.79715 5.55001,5.8523 l 3.23688,0.8785 c 2.57779,0.70246 3.62172,1.73025 3.57905,3.15539 l -0.001,0.039 c -0.0573,1.9132 -2.10843,3.20006 -4.93919,3.11531 -2.69411,-0.0807 -4.33856,-1.28275 -4.85211,-3.05673 l -3.475,-0.10403 c 0.28641,3.48669 3.43982,5.84774 8.12522,5.98801 z"
       style="fill:#00122a;fill-opacity:1"
       id="path876" />
    <path
       d="m 208.40858,373.84869 c 1.28757,-0.062 2.29035,-1.16612 2.22839,-2.45369 -0.062,-1.28757 -1.16612,-2.29035 -2.45369,-2.22839 -1.28757,0.062 -2.29035,1.16612 -2.22839,2.45369 0.062,1.28757 1.16612,2.29035 2.45369,2.22839 z m -0.50953,25.17077 3.39451,-0.16334 -1.01197,-21.03036 -3.39451,0.16335 z"
       style="fill:#00122a;fill-opacity:1"
       id="path878" />
    <path
       d="m 227.29574,404.77749 c 5.69028,-0.77034 8.88675,-4.23831 8.25528,-8.9028 l -2.78525,-20.57404 -3.36772,0.45591 0.4664,3.44514 -0.23226,0.0314 c -1.59707,-2.18834 -4.07744,-3.33076 -7.01935,-2.9325 -5.45803,0.73889 -8.25193,5.43348 -7.46063,11.2786 l 0.005,0.0387 c 0.79129,5.84512 4.70561,9.57245 10.10557,8.84142 2.8645,-0.38779 5.05022,-2.00422 6.05454,-4.4856 l 0.30967,-0.0419 0.5712,4.21932 c 0.41661,3.0774 -1.57074,5.14 -5.3062,5.64569 -2.99998,0.40613 -5.01,-0.46491 -5.59259,-2.00221 l -0.022,-0.0167 -3.48385,0.47163 -0.0361,0.0246 c 0.98634,3.35503 4.50579,5.18458 9.53801,4.50334 z m -1.70075,-11.39832 c -3.87094,0.52404 -6.43169,-2.0857 -6.99241,-6.22761 l -0.005,-0.0387 c -0.56072,-4.14191 1.20612,-7.39663 5.07706,-7.92067 3.85159,-0.52142 6.59439,2.12281 7.15511,6.26472 l 0.005,0.0387 c 0.56072,4.1419 -1.36882,7.35953 -5.23976,7.88356 z"
       style="fill:#00122a;fill-opacity:1"
       id="path880" />
    <path
       d="m 241.80965,394.90614 3.28896,-0.85563 -3.13729,-12.05953 c -0.92939,-3.57249 0.56052,-6.30113 3.81168,-7.14692 3.25116,-0.84579 5.22064,0.51871 6.17462,4.18571 l 3.22581,12.39977 3.28896,-0.85562 -3.43234,-13.19366 c -1.25885,-4.83894 -4.51382,-6.87809 -9.08813,-5.68808 -3.00543,0.78187 -4.58507,2.54497 -5.0452,4.96534 l -0.30244,0.0787 -0.79662,-3.06214 -3.28896,0.85563 z"
       style="fill:#00122a;fill-opacity:1"
       id="path882" />
  </g>
</svg>
