<?xml version="1.0" encoding="UTF-8" standalone="no"?>
<svg
   xmlns:dc="http://purl.org/dc/elements/1.1/"
   xmlns:cc="http://creativecommons.org/ns#"
   xmlns:rdf="http://www.w3.org/1999/02/22-rdf-syntax-ns#"
   xmlns:svg="http://www.w3.org/2000/svg"
   xmlns="http://www.w3.org/2000/svg"
   width="401"
   height="401"
   viewBox="0 0 401 401"
   fill="none"
   version="1.1"
   id="svg40">
  <title
     id="title893">Kehitys</title>
  <metadata
     id="metadata46">
    <rdf:RDF>
      <cc:Work
         rdf:about="">
        <dc:format>image/svg+xml</dc:format>
        <dc:type
           rdf:resource="http://purl.org/dc/dcmitype/StillImage" />
        <dc:title>Kehitys</dc:title>
      </cc:Work>
    </rdf:RDF>
  </metadata>
  <defs
     id="defs44" />
  <circle
     cx="119.80241"
     cy="257.20923"
     r="198.995"
     fill="#ffffff"
     stroke="black"
     stroke-width="1.92923"
     id="circle2"
     style="stroke:#00122a;stroke-opacity:1"
     transform="matrix(-0.34242662,0.93954457,0.93954457,0.34242662,0,0)" />
  <path
     d="M253.584 220.892H221.975V109.769H214.32L148.387 220.645V229.782H214.32L214.32 279.664H221.975L221.975 229.782H253.584V220.892ZM214.32 220.892H152.832L214.32 118.658V220.892Z"
     fill="black"
     id="path38"
     style="fill:#00122a;fill-opacity:1" />
  <g
     aria-label="Kehitys"
     transform="translate(0,-30.000383)"
     id="text873"
     style="font-size:40px;line-height:1.25;font-family:'SF Pro Text';-inkscape-font-specification:'SF Pro Text';word-spacing:0px">
    <path
       d="m 135.82465,388.98469 3.37077,0.99878 2.79658,-9.43815 4.29949,-2.61682 5.9001,15.90581 4.36327,1.29286 -7.24769,-18.85143 14.26206,-8.46496 -4.23218,-1.25402 -15.72482,9.62044 -0.29962,-0.0888 3.88968,-13.12726 -3.37076,-0.99878 z"
       style="fill:#00122a;fill-opacity:1"
       id="path878" />
    <path
       d="m 167.71107,397.29953 c 4.89055,0.8327 8.32777,-1.43503 9.51881,-4.12484 l 0.0647,-0.14748 -3.35023,-0.57043 -0.10652,0.16018 c -0.77146,1.15645 -2.73054,2.18993 -5.54164,1.71129 -3.6968,-0.62944 -5.63888,-3.53571 -5.00408,-7.84578 l 14.94122,2.54399 0.22293,-1.30928 c 1.05562,-6.19984 -1.65694,-10.98078 -7.2984,-11.94134 -5.64147,-0.96055 -10.04722,2.80651 -11.1389,9.21814 l -0.003,0.0193 c -1.10808,6.5079 1.76507,11.27656 7.69535,12.28629 z m 2.91943,-18.54257 c 3.06141,0.52125 5.00229,2.85277 4.65058,7.01291 l -11.47548,-1.95389 c 1.03789,-3.88481 3.74424,-5.58356 6.8249,-5.05902 z"
       style="fill:#00122a;fill-opacity:1"
       id="path880" />
    <path
       d="m 182.08874,398.99234 3.39396,0.17443 0.63957,-12.44452 c 0.18947,-3.68654 2.43185,-5.83991 5.7868,-5.66748 3.35495,0.17242 4.82216,2.06663 4.62768,5.8507 l -0.65761,12.79561 3.39395,0.17443 0.69972,-13.61484 c 0.25663,-4.99341 -2.23326,-7.91803 -6.95359,-8.16063 -3.10138,-0.15939 -5.1386,1.04623 -6.30618,3.21572 l -0.31208,-0.016 0.59145,-11.50825 -3.39396,-0.17442 z"
       style="fill:#00122a;fill-opacity:1"
       id="path882" />
    <path
       d="m 206.37363,374.47094 c 1.28835,-0.0429 2.30739,-1.13203 2.26453,-2.42038 -0.0428,-1.28835 -1.13202,-2.30739 -2.42037,-2.26453 -1.28835,0.0429 -2.30739,1.13202 -2.26453,2.42037 0.0428,1.28835 1.13202,2.30739 2.42037,2.26454 z m -0.88278,25.16044 3.39656,-0.11298 -0.69996,-21.04305 -3.39656,0.11298 z"
       style="fill:#00122a;fill-opacity:1"
       id="path884" />
    <path
       d="m 222.74768,398.62817 c 0.66108,-0.063 1.2953,-0.20183 1.94526,-0.38144 l -0.27402,-2.87761 c -0.61663,0.11758 -0.94532,0.1685 -1.54806,0.2259 -2.17765,0.20737 -3.12758,-0.70278 -3.36272,-3.17207 l -1.12942,-11.86041 4.58862,-0.43696 -0.26662,-2.79983 -4.58862,0.43695 -0.51657,-5.42468 -3.49979,0.33327 0.51657,5.42468 -3.30536,0.31476 0.26662,2.79983 3.30536,-0.31475 1.21088,12.71591 c 0.38141,4.00532 2.34146,5.42748 6.65787,5.01645 z"
       style="fill:#00122a;fill-opacity:1"
       id="path886" />
    <path
       d="m 232.86738,404.59415 c 3.66696,-0.68537 5.12447,-2.34865 5.96479,-7.31412 l 3.97763,-23.47411 -3.51338,0.65667 -2.48079,18.08788 -0.30718,0.0574 -8.8657,-15.96718 -3.57097,0.66743 11.53213,19.28375 -0.15432,1.30049 c -0.3038,2.52059 -1.29425,3.59984 -3.19493,3.95508 -0.46077,0.0861 -0.98273,0.16381 -1.40025,0.16237 l 0.51313,2.74543 c 0.47512,-0.009 1.05826,-0.0786 1.49984,-0.16111 z"
       style="fill:#00122a;fill-opacity:1"
       id="path888" />
    <path
       d="m 257.48716,391.73634 c 4.58492,-1.36976 7.34085,-4.9042 6.26741,-8.49728 l -0.0112,-0.0374 c -0.86099,-2.88195 -3.18695,-3.98087 -7.25983,-3.76292 l -3.33015,0.17952 c -2.54999,0.12991 -3.81772,-0.42903 -4.22586,-1.79515 l -0.0112,-0.0374 c -0.53113,-1.77783 0.85899,-3.53849 3.25438,-4.25412 2.43281,-0.72681 4.33464,-0.0923 5.24028,1.36978 l 3.20009,-0.95603 c -1.43312,-3.15948 -5.00298,-4.39639 -9.23233,-3.13286 -4.2855,1.2803 -6.74954,4.76831 -5.74877,8.11811 l 0.006,0.0187 c 0.86658,2.90066 3.06154,4.03873 7.11012,3.80765 l 3.34887,-0.18512 c 2.66786,-0.14473 3.98226,0.50218 4.39039,1.8683 l 0.0112,0.0374 c 0.54791,1.83397 -0.99386,3.70109 -3.70739,4.51176 -2.58252,0.77154 -4.52178,0.14823 -5.56766,-1.3739 l -3.33109,0.99517 c 1.36945,3.21927 5.10579,4.4676 9.59714,3.1258 z"
       style="fill:#00122a;fill-opacity:1"
       id="path890" />
  </g>
</svg>
