<?xml version="1.0" encoding="UTF-8" standalone="no"?>
<svg
   xmlns:dc="http://purl.org/dc/elements/1.1/"
   xmlns:cc="http://creativecommons.org/ns#"
   xmlns:rdf="http://www.w3.org/1999/02/22-rdf-syntax-ns#"
   xmlns:svg="http://www.w3.org/2000/svg"
   xmlns="http://www.w3.org/2000/svg"
   xmlns:sodipodi="http://sodipodi.sourceforge.net/DTD/sodipodi-0.dtd"
   xmlns:inkscape="http://www.inkscape.org/namespaces/inkscape"
   width="401"
   height="401"
   viewBox="0 0 401 401"
   fill="none"
   version="1.1"
   id="svg34"
   sodipodi:docname="prosessi-5.svg"
   inkscape:version="1.0.1 (3bc2e813f5, 2020-09-07)">
  <title
     id="title889">Julkaisu</title>
  <metadata
     id="metadata40">
    <rdf:RDF>
      <cc:Work
         rdf:about="">
        <dc:format>image/svg+xml</dc:format>
        <dc:type
           rdf:resource="http://purl.org/dc/dcmitype/StillImage" />
        <dc:title>Julkaisu</dc:title>
      </cc:Work>
    </rdf:RDF>
  </metadata>
  <defs
     id="defs38" />
  <sodipodi:namedview
     pagecolor="#ffffff"
     bordercolor="#666666"
     borderopacity="1"
     objecttolerance="10"
     gridtolerance="10"
     guidetolerance="10"
     inkscape:pageopacity="0"
     inkscape:pageshadow="2"
     inkscape:window-width="1361"
     inkscape:window-height="808"
     id="namedview36"
     showgrid="false"
     inkscape:zoom="1.5544472"
     inkscape:cx="160.76019"
     inkscape:cy="288.82018"
     inkscape:window-x="0"
     inkscape:window-y="0"
     inkscape:window-maximized="0"
     inkscape:current-layer="svg34" />
  <circle
     cx="103.44105"
     cy="263.67731"
     r="198.995"
     fill="#ffffff"
     stroke="black"
     stroke-width="1.92923"
     id="circle2"
     style="stroke:#00122a;stroke-opacity:1"
     transform="matrix(-0.40057109,0.91626568,0.91626568,0.40057109,0,0)" />
  <path
     d="M170.238 177.198L175.671 113.24L233.455 117.438V109.536H168.015L161.842 183.372C206.785 163.369 243.086 189.298 243.086 227.08C243.086 256.466 225.553 278.691 197.895 278.691C174.436 278.691 157.644 256.713 157.644 234.982H148.754C148.754 251.281 162.583 282.395 197.154 282.395C226.54 282.395 253.457 260.17 253.457 229.797C253.457 193.249 224.318 162.629 170.238 177.198ZM161.842 184.359V183.372V184.359Z"
     fill="black"
     id="path4"
     style="fill:#00122a;fill-opacity:1" />
  <g
     aria-label="Julkaisu"
     transform="translate(0,-30.000371)"
     id="text867"
     style="font-size:40px;line-height:1.25;font-family:'SF Pro Text';-inkscape-font-specification:'SF Pro Text';word-spacing:0px">
    <path
       d="m 129.1281,387.00424 c 4.88268,1.8314 8.88324,-0.0474 10.75579,-5.03979 l 7.14724,-19.05526 -3.2917,-1.23465 -7.13352,19.01869 c -1.20721,3.21855 -3.43153,4.36594 -6.35748,3.26848 -2.61507,-0.98086 -3.28928,-3.132 -2.74279,-5.20075 l 0.0503,-0.18973 -3.29169,-1.23465 -0.0777,0.26288 c -1.14554,3.88834 0.36979,7.68999 4.94159,9.40478 z"
       style="fill:#00122a;fill-opacity:1"
       id="path872" />
    <path
       d="m 150.31967,393.472 c 2.99265,0.75301 5.36699,0.0413 6.91893,-1.88427 l 0.30305,0.0762 -0.7673,3.04948 3.29571,0.82926 5.13762,-20.41824 -3.29571,-0.82926 -3.04063,12.08426 c -0.90076,3.57983 -3.36663,5.29561 -6.96539,4.39009 -3.25783,-0.81973 -4.14046,-2.91484 -3.21588,-6.58937 l 3.12642,-12.4252 -3.29571,-0.82926 -3.32658,13.22072 c -1.2153,4.82991 0.48496,8.1579 5.12547,9.32554 z"
       style="fill:#00122a;fill-opacity:1"
       id="path874" />
    <path
       d="m 166.52007,396.58616 3.35393,0.54818 4.74458,-29.02889 -3.35394,-0.54817 z"
       style="fill:#00122a;fill-opacity:1"
       id="path876" />
    <path
       d="m 176.51873,398.17158 3.38677,0.28135 0.66133,-7.96086 2.12435,-1.74418 7.04374,10.5216 4.26266,0.35411 -8.74097,-12.97522 9.88066,-8.05731 -4.10695,-0.34118 -9.8319,8.41414 -0.31143,-0.0259 1.45364,-17.49832 -3.38677,-0.28135 z"
       style="fill:#00122a;fill-opacity:1"
       id="path878" />
    <path
       d="m 203.20391,399.80344 c 2.83105,-0.0747 5.00487,-1.36291 6.27331,-3.64324 l 0.31239,-0.008 0.0819,3.10439 3.39726,-0.0896 -0.38006,-14.40905 c -0.11536,-4.37348 -3.05497,-6.93358 -8.18991,-6.79814 -4.49062,0.11845 -7.63393,2.42869 -8.09358,5.74275 l -0.0164,0.11766 3.39725,-0.0896 0.018,-0.0591 c 0.50343,-1.65447 2.13829,-2.63542 4.65694,-2.70185 3.14344,-0.0829 4.762,1.28114 4.83049,3.87789 l 0.0505,1.9134 -6.02327,0.53009 c -4.89292,0.42213 -7.60823,2.66247 -7.50935,6.41117 l 0.001,0.039 c 0.10094,3.8268 3.19109,6.16801 7.1936,6.06244 z m -3.72031,-6.2322 -0.001,-0.039 c -0.0551,-2.08912 1.32079,-3.25861 4.51765,-3.53832 l 5.61378,-0.49975 0.0505,1.9134 c 0.0793,3.00676 -2.37961,5.33803 -5.83544,5.42919 -2.44056,0.0644 -4.28929,-1.1373 -4.34543,-3.26547 z"
       style="fill:#00122a;fill-opacity:1"
       id="path880" />
    <path
       d="m 218.559,373.33725 c 1.2817,-0.13756 2.21782,-1.29878 2.08025,-2.58048 -0.13756,-1.2817 -1.29878,-2.21781 -2.58048,-2.08025 -1.2817,0.13757 -2.21781,1.29878 -2.08025,2.58048 0.13757,1.28171 1.29878,2.21782 2.58048,2.08025 z m 0.97148,25.15718 3.37903,-0.36267 -2.24688,-20.93445 -3.37903,0.36266 z"
       style="fill:#00122a;fill-opacity:1"
       id="path882" />
    <path
       d="m 236.4544,396.45623 c 4.7041,-0.87698 7.81851,-4.10001 7.13124,-7.78649 l -0.007,-0.0384 c -0.55124,-2.95687 -2.74788,-4.29572 -6.82097,-4.50989 l -3.33045,-0.17382 c -2.54942,-0.14062 -3.7509,-0.83054 -4.01221,-2.23217 l -0.007,-0.0384 c -0.34005,-1.82404 1.22854,-3.42774 3.6862,-3.88592 2.49605,-0.46534 4.32008,0.36681 5.06595,1.91652 l 3.28328,-0.6121 c -1.09081,-3.29337 -4.50976,-4.90103 -8.84906,-4.09206 -4.3969,0.81971 -7.21614,4.02744 -6.57541,7.46432 l 0.004,0.0192 c 0.55483,2.97607 2.61706,4.33997 6.66737,4.53853 l 3.34965,0.17024 c 2.6682,0.13834 3.90678,0.92069 4.16809,2.32232 l 0.007,0.0384 c 0.35079,1.88164 -1.37987,3.57516 -4.16393,4.09419 -2.64966,0.49398 -4.51209,-0.33101 -5.39106,-1.95525 l -3.41768,0.63716 c 1.02117,3.34609 4.60446,4.98272 9.21257,4.12363 z"
       style="fill:#00122a;fill-opacity:1"
       id="path884" />
    <path
       d="m 256.67332,391.60061 c 2.95252,-0.8976 4.62011,-2.73147 4.9572,-5.18154 l 0.29899,-0.0909 0.91464,3.00857 3.2515,-0.98849 -6.12409,-20.14436 -3.2515,0.98849 3.62446,11.92217 c 1.0737,3.5318 -0.15467,6.27325 -3.70516,7.35264 -3.21413,0.97712 -5.05054,-0.36308 -6.15265,-3.98832 l -3.72671,-12.25854 -3.25151,0.98849 3.96532,13.04339 c 1.44865,4.76513 4.62125,6.74022 9.19951,5.34839 z"
       style="fill:#00122a;fill-opacity:1"
       id="path886" />
  </g>
</svg>
